999
dxfrw 0.6.3
  0
SECTION
  2
HEADER
  9
$ACADVER
  1
AC1021
  9
$DWGCODEPAGE
  3
ANSI_1252
  9
$INSBASE
 10
0
 20
0
 30
0
  9
$EXTMIN
 10
10000000000
 20
10000000000
 30
0
  9
$EXTMAX
 10
-10000000000
 20
-10000000000
 30
0
  9
$LIMMIN
 10
0
 20
0
  9
$LIMMAX
 10
420
 20
297
  9
$ORTHOMODE
 70
    0
  9
$REGENMODE
 70
    1
  9
$FILLMODE
 70
    1
  9
$QTEXTMODE
 70
    0
  9
$MIRRTEXT
 70
    0
  9
$LTSCALE
 40
1
  9
$ATTMODE
 70
    0
  9
$TEXTSIZE
 40
2.5
  9
$TRACEWID
 40
15.68
  9
$TEXTSTYLE
  7
STANDARD
  9
$CLAYER
  8
Component
  9
$CELTYPE
  6
BYLAYER
  9
$CECOLOR
 62
  256
  9
$CELTSCALE
 40
1
  9
$DISPSILH
 70
    0
  9
$DIMSCALE
 40
2.5
  9
$DIMASZ
 40
2.5
  9
$DIMEXO
 40
0.625
  9
$DIMDLI
 40
3.75
  9
$DIMRND
 40
0
  9
$DIMDLE
 40
0
  9
$DIMEXE
 40
1.25
  9
$DIMTP
 40
0
  9
$DIMTM
 40
0
  9
$DIMTXT
 40
2.5
  9
$DIMCEN
 40
2.5
  9
$DIMTSZ
 40
0
  9
$DIMTOL
 70
    0
  9
$DIMLIM
 70
    0
  9
$DIMTIH
 70
    0
  9
$DIMTOH
 70
    0
  9
$DIMSE1
 70
    0
  9
$DIMSE2
 70
    0
  9
$DIMTAD
 70
    1
  9
$DIMZIN
 70
    8
  9
$DIMBLK
  1

  9
$DIMASO
 70
    1
  9
$DIMSHO
 70
    1
  9
$DIMPOST
  1

  9
$DIMAPOST
  1

  9
$DIMALT
 70
    0
  9
$DIMALTD
 70
    3
  9
$DIMALTF
 40
0.03937
  9
$DIMLFAC
 40
1
  9
$DIMTOFL
 70
    1
  9
$DIMTVP
 40
0
  9
$DIMTIX
 70
    0
  9
$DIMSOXD
 70
    0
  9
$DIMSAH
 70
    0
  9
$DIMBLK1
  1

  9
$DIMBLK2
  1

  9
$DIMSTYLE
  2
Standard
  9
$DIMCLRD
 70
    0
  9
$DIMCLRE
 70
    0
  9
$DIMCLRT
 70
    0
  9
$DIMTFAC
 40
1
  9
$DIMGAP
 40
0.625
  9
$DIMJUST
 70
    0
  9
$DIMSD1
 70
    0
  9
$DIMSD2
 70
    0
  9
$DIMTOLJ
 70
    0
  9
$DIMTZIN
 70
    8
  9
$DIMALTZ
 70
    0
  9
$DIMALTTZ
 70
    0
  9
$DIMUPT
 70
    0
  9
$DIMDEC
 70
    4
  9
$DIMTDEC
 70
    2
  9
$DIMALTU
 70
    2
  9
$DIMALTTD
 70
    3
  9
$DIMTXSTY
  7
STANDARD
  9
$DIMAUNIT
 70
    0
  9
$DIMADEC
 70
    0
  9
$DIMALTRND
 40
0
  9
$DIMAZIN
 70
    0
  9
$DIMDSEP
 70
   44
  9
$DIMATFIT
 70
    3
  9
$DIMFRAC
 70
    0
  9
$DIMLDRBLK
  1
STANDARD
  9
$DIMLUNIT
 70
    2
  9
$DIMLWD
 70
   -2
  9
$DIMLWE
 70
   -2
  9
$DIMTMOVE
 70
    0
  9
$DIMFXL
 40
1
  9
$DIMFXLON
 70
    0
  9
$DIMJOGANG
 40
0.7854
  9
$DIMTFILL
 70
    0
  9
$DIMTFILLCLR
 70
    0
  9
$DIMARCSYM
 70
    0
  9
$DIMLTYPE
  6

  9
$DIMLTEX1
  6

  9
$DIMLTEX2
  6

  9
$LUNITS
 70
    2
  9
$LUPREC
 70
    4
  9
$SKETCHINC
 40
1
  9
$FILLETRAD
 40
0
  9
$AUNITS
 70
    0
  9
$AUPREC
 70
    2
  9
$MENU
  1
.
  9
$ELEVATION
 40
0
  9
$PELEVATION
 40
0
  9
$THICKNESS
 40
0
  9
$LIMCHECK
 70
    0
  9
$CHAMFERA
 40
0
  9
$CHAMFERB
 40
0
  9
$CHAMFERC
 40
0
  9
$CHAMFERD
 40
0
  9
$SKPOLY
 70
    0
  9
$USRTIMER
 70
    1
  9
$ANGBASE
 50
0
  9
$ANGDIR
 70
    0
  9
$PDMODE
 70
   34
  9
$PDSIZE
 40
0
  9
$PLINEWID
 40
0
  9
$SPLFRAME
 70
    0
  9
$SPLINETYPE
 70
    2
  9
$SPLINESEGS
 70
    8
  9
$HANDSEED
  5
20000
  9
$SURFTAB1
 70
    6
  9
$SURFTAB2
 70
    6
  9
$SURFTYPE
 70
    6
  9
$SURFU
 70
    6
  9
$SURFV
 70
    6
  9
$UCSBASE
  2

  9
$UCSNAME
  2

  9
$UCSORG
 10
0
 20
0
 30
0
  9
$UCSXDIR
 10
1
 20
0
 30
0
  9
$UCSYDIR
 10
0
 20
1
 30
0
  9
$UCSORTHOREF
  2

  9
$UCSORTHOVIEW
 70
    0
  9
$UCSORGTOP
 10
0
 20
0
 30
0
  9
$UCSORGBOTTOM
 10
0
 20
0
 30
0
  9
$UCSORGLEFT
 10
0
 20
0
 30
0
  9
$UCSORGRIGHT
 10
0
 20
0
 30
0
  9
$UCSORGFRONT
 10
0
 20
0
 30
0
  9
$UCSORGBACK
 10
0
 20
0
 30
0
  9
$PUCSBASE
  2

  9
$PUCSNAME
  2

  9
$PUCSORG
 10
0
 20
0
 30
0
  9
$PUCSXDIR
 10
1
 20
0
 30
0
  9
$PUCSYDIR
 10
0
 20
1
 30
0
  9
$PUCSORTHOREF
  2

  9
$PUCSORTHOVIEW
 70
    0
  9
$PUCSORGTOP
 10
0
 20
0
 30
0
  9
$PUCSORGBOTTOM
 10
0
 20
0
 30
0
  9
$PUCSORGLEFT
 10
0
 20
0
 30
0
  9
$PUCSORGRIGHT
 10
0
 20
0
 30
0
  9
$PUCSORGFRONT
 10
0
 20
0
 30
0
  9
$PUCSORGBACK
 10
0
 20
0
 30
0
  9
$USERI1
 70
    0
  9
$USERI2
 70
    0
  9
$USERI3
 70
    0
  9
$USERI4
 70
    0
  9
$USERI5
 70
    0
  9
$USERR1
 40
0
  9
$USERR2
 40
0
  9
$USERR3
 40
0
  9
$USERR4
 40
0
  9
$USERR5
 40
0
  9
$WORLDVIEW
 70
    1
  9
$SHADEDGE
 70
    3
  9
$SHADEDIF
 70
   70
  9
$TILEMODE
 70
    1
  9
$MAXACTVP
 70
   64
  9
$PINSBASE
 10
0
 20
0
 30
0
  9
$PLIMCHECK
 70
    0
  9
$PEXTMIN
 10
0
 20
0
 30
0
  9
$PEXTMAX
 10
0
 20
0
 30
0
  9
$GRIDMODE
 70
    1
  9
$SNAPSTYLE
 70
    0
  9
$PLIMMIN
 10
0
 20
0
  9
$PLIMMAX
 10
420
 20
297
  9
$UNITMODE
 70
    0
  9
$VISRETAIN
 70
    1
  9
$PLINEGEN
 70
    0
  9
$PSLTSCALE
 70
    1
  9
$TREEDEPTH
 70
 3020
  9
$CMLSTYLE
  2
Standard
  9
$CMLJUST
 70
    0
  9
$CMLSCALE
 40
20
  9
$PROXYGRAPHICS
 70
    1
  9
$MEASUREMENT
 70
    1
  9
$CELWEIGHT
370
   -1
  9
$ENDCAPS
280
    0
  9
$JOINSTYLE
280
    0
  9
$LWDISPLAY
290
    0
  9
$INSUNITS
 70
    4
  9
$HYPERLINKBASE
  1

  9
$STYLESHEET
  1

  9
$XEDIT
290
    1
  9
$CEPSNTYPE
380
    0
  9
$PSTYLEMODE
290
    1
  9
$EXTNAMES
290
    1
  9
$PSVPSCALE
 40
1
  9
$OLESTARTUP
290
    0
  9
$SORTENTS
280
  127
  9
$INDEXCTL
280
    0
  9
$HIDETEXT
280
    1
  9
$XCLIPFRAME
290
    0
  9
$HALOGAP
280
    0
  9
$OBSCOLOR
 70
  257
  9
$OBSLTYPE
280
    0
  9
$INTERSECTIONDISPLAY
280
    0
  9
$INTERSECTIONCOLOR
 70
  257
  9
$DIMASSOC
280
    1
  9
$PROJECTNAME
  1

  9
$CAMERADISPLAY
290
    0
  9
$LENSLENGTH
 40
50
  9
$CAMERAHEIGHT
 40
0
  9
$STEPSPERSEC
 40
2
  9
$STEPSIZE
 40
50
  9
$3DDWFPREC
 40
2
  9
$PSOLWIDTH
 40
5
  9
$PSOLHEIGHT
 40
80
  9
$LOFTANG1
 40
1.570796326794897
  9
$LOFTANG2
 40
1.570796326794897
  9
$LOFTMAG1
 40
0
  9
$LOFTMAG2
 40
0
  9
$LOFTPARAM
 70
    7
  9
$LOFTNORMALS
280
    1
  9
$LATITUDE
 40
1
  9
$LONGITUDE
 40
1
  9
$NORTHDIRECTION
 40
0
  9
$TIMEZONE
 70
-8000
  9
$LIGHTGLYPHDISPLAY
280
    1
  9
$TILEMODELIGHTSYNCH
280
    1
  9
$SOLIDHIST
280
    1
  9
$SHOWHIST
280
    1
  9
$DWFFRAME
280
    2
  9
$DGNFRAME
280
    0
  9
$REALWORLDSCALE
290
    1
  9
$INTERFERECOLOR
 62
    1
  9
$CSHADOW
280
    0
  9
$SHADOWPLANELOCATION
 40
0
  0
ENDSEC
  0
SECTION
  2
CLASSES
  0
ENDSEC
  0
SECTION
  2
TABLES
  0
TABLE
  2
VPORT
  5
8
330
0
100
AcDbSymbolTable
 70
    1
  0
VPORT
  5
31
330
2
100
AcDbSymbolTableRecord
100
AcDbViewportTableRecord
  2
*ACTIVE
 70
    0
 10
0
 20
0
 11
1
 21
1
 12
271.2692042526694
 22
185.4747392879312
 13
0
 23
0
 14
10
 24
10
 15
10
 25
10
 16
0
 26
0
 36
1
 17
0
 27
0
 37
0
 40
396.737410241564
 41
1.6575
 42
50
 43
0
 44
0
 50
0
 51
0
 71
    0
 72
  100
 73
    1
 74
    3
 75
    0
 76
    1
 77
    0
 78
    0
281
    0
 65
    1
110
0
120
0
130
0
111
1
121
0
131
0
112
0
122
1
132
0
 79
    0
146
0
348
10020
 60
    7
 61
    5
292
1
282
    1
141
0
142
0
 63
  250
421
3358443
  0
ENDTAB
  0
TABLE
  2
LTYPE
  5
5
330
0
100
AcDbSymbolTable
 70
    4
  0
LTYPE
  5
14
330
5
100
AcDbSymbolTableRecord
100
AcDbLinetypeTableRecord
  2
ByBlock
 70
    0
  3

 72
   65
 73
    0
 40
0
  0
LTYPE
  5
15
330
5
100
AcDbSymbolTableRecord
100
AcDbLinetypeTableRecord
  2
ByLayer
 70
    0
  3

 72
   65
 73
    0
 40
0
  0
LTYPE
  5
16
330
5
100
AcDbSymbolTableRecord
100
AcDbLinetypeTableRecord
  2
Continuous
 70
    0
  3
Solid line
 72
   65
 73
    0
 40
0
  0
LTYPE
  5
32
330
5
100
AcDbSymbolTableRecord
100
AcDbLinetypeTableRecord
  2
DOT
 70
    0
  3
Dot . . . . . . . . . . . . . . . . . . . . . .
 72
   65
 73
    2
 40
6.35
 49
0
 74
    0
 49
-6.35
 74
    0
  0
LTYPE
  5
33
330
5
100
AcDbSymbolTableRecord
100
AcDbLinetypeTableRecord
  2
DOTTINY
 70
    0
  3
Dot (.15x) .....................................
 72
   65
 73
    2
 40
0.9525
 49
0
 74
    0
 49
-0.9525
 74
    0
  0
LTYPE
  5
34
330
5
100
AcDbSymbolTableRecord
100
AcDbLinetypeTableRecord
  2
DOT2
 70
    0
  3
Dot (.5x) .....................................
 72
   65
 73
    2
 40
3.175
 49
0
 74
    0
 49
-3.175
 74
    0
  0
LTYPE
  5
35
330
5
100
AcDbSymbolTableRecord
100
AcDbLinetypeTableRecord
  2
DOTX2
 70
    0
  3
Dot (2x) .  .  .  .  .  .  .  .  .  .  .  .  .
 72
   65
 73
    2
 40
12.7
 49
0
 74
    0
 49
-12.7
 74
    0
  0
LTYPE
  5
36
330
5
100
AcDbSymbolTableRecord
100
AcDbLinetypeTableRecord
  2
DASHED
 70
    0
  3
Dashed _ _ _ _ _ _ _ _ _ _ _ _ _ _ _ _ _
 72
   65
 73
    2
 40
19.05
 49
12.7
 74
    0
 49
-6.35
 74
    0
  0
LTYPE
  5
37
330
5
100
AcDbSymbolTableRecord
100
AcDbLinetypeTableRecord
  2
DASHEDTINY
 70
    0
  3
Dashed (.15x) _ _ _ _ _ _ _ _ _ _ _ _ _ _ _ _ _
 72
   65
 73
    2
 40
2.8575
 49
1.905
 74
    0
 49
-0.9525
 74
    0
  0
LTYPE
  5
38
330
5
100
AcDbSymbolTableRecord
100
AcDbLinetypeTableRecord
  2
DASHED2
 70
    0
  3
Dashed (.5x) _ _ _ _ _ _ _ _ _ _ _ _ _ _ _ _ _
 72
   65
 73
    2
 40
9.524999999999999
 49
6.35
 74
    0
 49
-3.175
 74
    0
  0
LTYPE
  5
39
330
5
100
AcDbSymbolTableRecord
100
AcDbLinetypeTableRecord
  2
DASHEDX2
 70
    0
  3
Dashed (2x) ____  ____  ____  ____  ____  ___
 72
   65
 73
    2
 40
38.09999999999999
 49
25.4
 74
    0
 49
-12.7
 74
    0
  0
LTYPE
  5
3A
330
5
100
AcDbSymbolTableRecord
100
AcDbLinetypeTableRecord
  2
DASHDOT
 70
    0
  3
Dash dot __ . __ . __ . __ . __ . __ . __ . __
 72
   65
 73
    4
 40
25.4
 49
12.7
 74
    0
 49
-6.35
 74
    0
 49
0
 74
    0
 49
-6.35
 74
    0
  0
LTYPE
  5
3B
330
5
100
AcDbSymbolTableRecord
100
AcDbLinetypeTableRecord
  2
DASHDOTTINY
 70
    0
  3
Dash dot (.15x) _._._._._._._._._._._._._._._.
 72
   65
 73
    4
 40
3.81
 49
1.905
 74
    0
 49
-0.9525
 74
    0
 49
0
 74
    0
 49
-0.9525
 74
    0
  0
LTYPE
  5
3C
330
5
100
AcDbSymbolTableRecord
100
AcDbLinetypeTableRecord
  2
DASHDOT2
 70
    0
  3
Dash dot (.5x) _._._._._._._._._._._._._._._.
 72
   65
 73
    4
 40
12.7
 49
6.35
 74
    0
 49
-3.175
 74
    0
 49
0
 74
    0
 49
-3.175
 74
    0
  0
LTYPE
  5
3D
330
5
100
AcDbSymbolTableRecord
100
AcDbLinetypeTableRecord
  2
DASHDOTX2
 70
    0
  3
Dash dot (2x) ____  .  ____  .  ____  .  ___
 72
   65
 73
    4
 40
50.8
 49
25.4
 74
    0
 49
-12.7
 74
    0
 49
0
 74
    0
 49
-12.7
 74
    0
  0
LTYPE
  5
3E
330
5
100
AcDbSymbolTableRecord
100
AcDbLinetypeTableRecord
  2
DIVIDE
 70
    0
  3
Divide ____ . . ____ . . ____ . . ____ . . ____
 72
   65
 73
    6
 40
31.75
 49
12.7
 74
    0
 49
-6.35
 74
    0
 49
0
 74
    0
 49
-6.35
 74
    0
 49
0
 74
    0
 49
-6.35
 74
    0
  0
LTYPE
  5
3F
330
5
100
AcDbSymbolTableRecord
100
AcDbLinetypeTableRecord
  2
DIVIDETINY
 70
    0
  3
Divide (.15x) __..__..__..__..__..__..__..__.._
 72
   65
 73
    6
 40
4.7625
 49
1.905
 74
    0
 49
-0.9525
 74
    0
 49
0
 74
    0
 49
-0.9525
 74
    0
 49
0
 74
    0
 49
-0.9525
 74
    0
  0
LTYPE
  5
40
330
5
100
AcDbSymbolTableRecord
100
AcDbLinetypeTableRecord
  2
DIVIDE2
 70
    0
  3
Divide (.5x) __..__..__..__..__..__..__..__.._
 72
   65
 73
    6
 40
15.875
 49
6.35
 74
    0
 49
-3.175
 74
    0
 49
0
 74
    0
 49
-3.175
 74
    0
 49
0
 74
    0
 49
-3.175
 74
    0
  0
LTYPE
  5
41
330
5
100
AcDbSymbolTableRecord
100
AcDbLinetypeTableRecord
  2
DIVIDEX2
 70
    0
  3
Divide (2x) ________  .  .  ________  .  .  _
 72
   65
 73
    6
 40
63.5
 49
25.4
 74
    0
 49
-12.7
 74
    0
 49
0
 74
    0
 49
-12.7
 74
    0
 49
0
 74
    0
 49
-12.7
 74
    0
  0
LTYPE
  5
42
330
5
100
AcDbSymbolTableRecord
100
AcDbLinetypeTableRecord
  2
BORDER
 70
    0
  3
Border __ __ . __ __ . __ __ . __ __ . __ __ .
 72
   65
 73
    6
 40
44.45
 49
12.7
 74
    0
 49
-6.35
 74
    0
 49
12.7
 74
    0
 49
-6.35
 74
    0
 49
0
 74
    0
 49
-6.35
 74
    0
  0
LTYPE
  5
43
330
5
100
AcDbSymbolTableRecord
100
AcDbLinetypeTableRecord
  2
BORDERTINY
 70
    0
  3
Border (.15x) __.__.__.__.__.__.__.__.__.__.__.
 72
   65
 73
    6
 40
6.6675
 49
1.905
 74
    0
 49
-0.9525
 74
    0
 49
1.905
 74
    0
 49
-0.9525
 74
    0
 49
0
 74
    0
 49
-0.9525
 74
    0
  0
LTYPE
  5
44
330
5
100
AcDbSymbolTableRecord
100
AcDbLinetypeTableRecord
  2
BORDER2
 70
    0
  3
Border (.5x) __.__.__.__.__.__.__.__.__.__.__.
 72
   65
 73
    6
 40
22.225
 49
6.35
 74
    0
 49
-3.175
 74
    0
 49
6.35
 74
    0
 49
-3.175
 74
    0
 49
0
 74
    0
 49
-3.175
 74
    0
  0
LTYPE
  5
45
330
5
100
AcDbSymbolTableRecord
100
AcDbLinetypeTableRecord
  2
BORDERX2
 70
    0
  3
Border (2x) ____  ____  .  ____  ____  .  ___
 72
   65
 73
    6
 40
88.89999999999999
 49
25.4
 74
    0
 49
-12.7
 74
    0
 49
25.4
 74
    0
 49
-12.7
 74
    0
 49
0
 74
    0
 49
-12.7
 74
    0
  0
LTYPE
  5
46
330
5
100
AcDbSymbolTableRecord
100
AcDbLinetypeTableRecord
  2
CENTER
 70
    0
  3
Center ____ _ ____ _ ____ _ ____ _ ____ _ ____
 72
   65
 73
    4
 40
50.8
 49
31.75
 74
    0
 49
-6.35
 74
    0
 49
6.35
 74
    0
 49
-6.35
 74
    0
  0
LTYPE
  5
47
330
5
100
AcDbSymbolTableRecord
100
AcDbLinetypeTableRecord
  2
CENTERTINY
 70
    0
  3
Center (.15x) ___ _ ___ _ ___ _ ___ _ ___ _ ___
 72
   65
 73
    4
 40
7.619999999999999
 49
4.7625
 74
    0
 49
-0.9525
 74
    0
 49
0.9525
 74
    0
 49
-0.9525
 74
    0
  0
LTYPE
  5
48
330
5
100
AcDbSymbolTableRecord
100
AcDbLinetypeTableRecord
  2
CENTER2
 70
    0
  3
Center (.5x) ___ _ ___ _ ___ _ ___ _ ___ _ ___
 72
   65
 73
    4
 40
28.575
 49
19.05
 74
    0
 49
-3.175
 74
    0
 49
3.175
 74
    0
 49
-3.175
 74
    0
  0
LTYPE
  5
49
330
5
100
AcDbSymbolTableRecord
100
AcDbLinetypeTableRecord
  2
CENTERX2
 70
    0
  3
Center (2x) ________  __  ________  __  _____
 72
   65
 73
    4
 40
101.6
 49
63.5
 74
    0
 49
-12.7
 74
    0
 49
12.7
 74
    0
 49
-12.7
 74
    0
  0
ENDTAB
  0
TABLE
  2
LAYER
  5
2
330
0
100
AcDbSymbolTable
 70
    1
  0
LAYER
  5
10
330
2
100
AcDbSymbolTableRecord
100
AcDbLayerTableRecord
  2
0
 70
    0
 62
    7
  6
CONTINUOUS
370
   13
390
F
  0
LAYER
  5
4A
330
2
100
AcDbSymbolTableRecord
100
AcDbLayerTableRecord
  2
Component
 70
    0
 62
    7
  6
CONTINUOUS
370
   50
390
F
  0
LAYER
  5
4B
330
2
100
AcDbSymbolTableRecord
100
AcDbLayerTableRecord
  2
Power
 70
    0
 62
    1
  6
CONTINUOUS
370
   50
390
F
  0
LAYER
  5
4C
330
2
100
AcDbSymbolTableRecord
100
AcDbLayerTableRecord
  2
Signal Connections
 70
    0
 62
    4
  6
CONTINUOUS
370
   18
390
F
  0
ENDTAB
  0
TABLE
  2
STYLE
  5
3
330
0
100
AcDbSymbolTable
 70
    3
  0
STYLE
  5
4D
330
2
100
AcDbSymbolTableRecord
100
AcDbTextStyleTableRecord
  2
standard
 70
    0
 40
0
 41
1
 50
0
 71
    0
 42
1
  3
standard
  4

  0
STYLE
  5
4E
330
2
100
AcDbSymbolTableRecord
100
AcDbTextStyleTableRecord
  2
STANDARD
 70
    0
 40
0
 41
1
 50
0
 71
    0
 42
1
  3
STANDARD
  4

  0
ENDTAB
  0
TABLE
  2
VIEW
  5
6
330
0
100
AcDbSymbolTable
 70
    0
  0
ENDTAB
  0
TABLE
  2
UCS
  5
7
330
0
100
AcDbSymbolTable
 70
    0
  0
ENDTAB
  0
TABLE
  2
APPID
  5
9
330
0
100
AcDbSymbolTable
 70
    1
  0
APPID
  5
12
330
9
100
AcDbSymbolTableRecord
100
AcDbRegAppTableRecord
  2
ACAD
 70
    0
  0
APPID
  5
4F
330
9
100
AcDbSymbolTableRecord
100
AcDbRegAppTableRecord
  2
LibreCad
 70
    0
  0
ENDTAB
  0
TABLE
  2
DIMSTYLE
  5
A
330
0
100
AcDbSymbolTable
 70
    1
100
AcDbDimStyleTable
 71
    1
  0
DIMSTYLE
105
50
330
A
100
AcDbSymbolTableRecord
100
AcDbDimStyleTableRecord
  2
Standard
 70
    0
 40
2.5
 41
2.5
 42
0.625
 43
0.38
 44
1.25
 45
0
 46
0
 47
0
 48
0
 49
1
140
2.5
141
0.09
142
0
143
25.4
144
1
145
0
146
1
147
0.625
148
0
 71
    0
 72
    0
 73
    0
 74
    1
 75
    0
 76
    0
 77
    0
 78
    8
 79
    0
170
    0
171
    2
172
    0
173
    0
174
    0
175
    0
176
    0
177
    0
178
    0
179
    0
271
    4
272
    4
273
    2
274
    2
275
    0
276
    0
277
    2
278
   44
279
    0
280
    0
281
    0
282
    0
283
    1
284
    0
285
    0
286
    0
288
    0
289
    3
340
STANDARD
341

371
   -2
372
   -2
  0
ENDTAB
  0
TABLE
  2
BLOCK_RECORD
  5
1
330
0
100
AcDbSymbolTable
 70
    2
  0
BLOCK_RECORD
  5
1F
330
1
100
AcDbSymbolTableRecord
100
AcDbBlockTableRecord
  2
*Model_Space
 70
    0
280
    1
281
    0
  0
BLOCK_RECORD
  5
1E
330
1
100
AcDbSymbolTableRecord
100
AcDbBlockTableRecord
  2
*Paper_Space
 70
    0
280
    1
281
    0
  0
BLOCK_RECORD
  5
51
330
1
100
AcDbSymbolTableRecord
100
AcDbBlockTableRecord
  2
MEGA2560r3 Block
 70
    0
280
    1
281
    0
  0
BLOCK_RECORD
  5
54
330
1
100
AcDbSymbolTableRecord
100
AcDbBlockTableRecord
  2
PSU Block
 70
    0
280
    1
281
    0
  0
BLOCK_RECORD
  5
57
330
1
100
AcDbSymbolTableRecord
100
AcDbBlockTableRecord
  2
VOLT SELECTOR Block
 70
    0
280
    1
281
    0
  0
BLOCK_RECORD
  5
5A
330
1
100
AcDbSymbolTableRecord
100
AcDbBlockTableRecord
  2
CDB block
 70
    0
280
    1
281
    0
  0
BLOCK_RECORD
  5
5D
330
1
100
AcDbSymbolTableRecord
100
AcDbBlockTableRecord
  2
Sensor Array block
 70
    0
280
    1
281
    0
  0
ENDTAB
  0
ENDSEC
  0
SECTION
  2
BLOCKS
  0
BLOCK
  5
20
330
1F
100
AcDbEntity
  8
0
100
AcDbBlockBegin
  2
*Model_Space
 70
    0
 10
0
 20
0
 30
0
  3
*Model_Space
  1

  0
ENDBLK
  5
21
330
1F
100
AcDbEntity
  8
0
100
AcDbBlockEnd
  0
BLOCK
  5
1C
330
1B
100
AcDbEntity
  8
0
100
AcDbBlockBegin
  2
*Paper_Space
 70
    0
 10
0
 20
0
 30
0
  3
*Paper_Space
  1

  0
ENDBLK
  5
1D
330
1F
100
AcDbEntity
  8
0
100
AcDbBlockEnd
  0
BLOCK
  5
52
330
51
100
AcDbEntity
  8
0
100
AcDbBlockBegin
  2
MEGA2560r3 Block
 70
    0
 10
0
 20
0
  3
MEGA2560r3 Block
  1

  0
LINE
  5
60
100
AcDbEntity
  8
Component
  6
ByLayer
 62
  256
370
   -1
100
AcDbLine
 10
0
 20
0
 11
0
 21
-60
  0
LINE
  5
61
100
AcDbEntity
  8
Component
  6
ByLayer
 62
  256
370
   -1
100
AcDbLine
 10
0
 20
-60
 11
40
 21
-60
  0
LINE
  5
62
100
AcDbEntity
  8
Component
  6
ByLayer
 62
  256
370
   -1
100
AcDbLine
 10
40
 20
-60
 11
40
 21
0
  0
LINE
  5
63
100
AcDbEntity
  8
Component
  6
ByLayer
 62
  256
370
   -1
100
AcDbLine
 10
40
 20
0
 11
0
 21
0
  0
MTEXT
  5
64
100
AcDbEntity
  8
Component
  6
ByLayer
 62
  256
370
   -1
100
AcDbMText
 10
10
 20
-5
 30
0
 40
5
 41
16.66666666666667
 71
    1
 72
    1
  1
MEGA\P2560
  7
standard
210
0
220
0
230
1
 50
0
 73
    2
 44
1
  0
LINE
  5
65
100
AcDbEntity
  8
Component
  6
ByLayer
 62
  256
370
   -1
100
AcDbLine
 10
40
 20
-10
 11
38
 21
-10
  0
LINE
  5
66
100
AcDbEntity
  8
Component
  6
ByLayer
 62
  256
370
   -1
100
AcDbLine
 10
38
 20
-10
 11
38
 21
-25
  0
LINE
  5
67
100
AcDbEntity
  8
Component
  6
ByLayer
 62
  256
370
   -1
100
AcDbLine
 10
38
 20
-25
 11
40
 21
-25
  0
LINE
  5
68
100
AcDbEntity
  8
Component
  6
ByLayer
 62
  256
370
   -1
100
AcDbLine
 10
40
 20
-30
 11
38
 21
-30
  0
LINE
  5
69
100
AcDbEntity
  8
Component
  6
ByLayer
 62
  256
370
   -1
100
AcDbLine
 10
38
 20
-30
 11
38
 21
-40
  0
LINE
  5
6A
100
AcDbEntity
  8
Component
  6
ByLayer
 62
  256
370
   -1
100
AcDbLine
 10
38
 20
-40
 11
40
 21
-40
  0
LINE
  5
6B
100
AcDbEntity
  8
Component
  6
ByLayer
 62
  256
370
   -1
100
AcDbLine
 10
40
 20
-45
 11
38
 21
-45
  0
LINE
  5
6C
100
AcDbEntity
  8
Component
  6
ByLayer
 62
  256
370
   -1
100
AcDbLine
 10
38
 20
-45
 11
38
 21
-55
  0
LINE
  5
6D
100
AcDbEntity
  8
Component
  6
ByLayer
 62
  256
370
   -1
100
AcDbLine
 10
38
 20
-55
 11
40
 21
-55
  0
LINE
  5
6E
100
AcDbEntity
  8
Component
  6
ByLayer
 62
  256
370
   -1
100
AcDbLine
 10
2
 20
-60
 11
2
 21
-58
  0
LINE
  5
6F
100
AcDbEntity
  8
Component
  6
ByLayer
 62
  256
370
   -1
100
AcDbLine
 10
2
 20
-58
 11
38
 21
-58
  0
LINE
  5
70
100
AcDbEntity
  8
Component
  6
ByLayer
 62
  256
370
   -1
100
AcDbLine
 10
38
 20
-58
 11
38
 21
-60
  0
LINE
  5
71
100
AcDbEntity
  8
Component
  6
ByLayer
 62
  256
370
   -1
100
AcDbLine
 10
38
 20
-58
 11
38
 21
-56
  0
LINE
  5
72
100
AcDbEntity
  8
Component
  6
ByLayer
 62
  256
370
   -1
100
AcDbLine
 10
38
 20
-56
 11
2
 21
-56
  0
LINE
  5
73
100
AcDbEntity
  8
Component
  6
ByLayer
 62
  256
370
   -1
100
AcDbLine
 10
2
 20
-56
 11
2
 21
-58
  0
LINE
  5
74
100
AcDbEntity
  8
Component
  6
ByLayer
 62
  256
370
   -1
100
AcDbLine
 10
0
 20
-55
 11
2
 21
-55
  0
LINE
  5
75
100
AcDbEntity
  8
Component
  6
ByLayer
 62
  256
370
   -1
100
AcDbLine
 10
2
 20
-55
 11
2
 21
-45
  0
LINE
  5
76
100
AcDbEntity
  8
Component
  6
ByLayer
 62
  256
370
   -1
100
AcDbLine
 10
2
 20
-45
 11
0
 21
-45
  0
LINE
  5
77
100
AcDbEntity
  8
Component
  6
ByLayer
 62
  256
370
   -1
100
AcDbLine
 10
0
 20
-40
 11
2
 21
-40
  0
LINE
  5
78
100
AcDbEntity
  8
Component
  6
ByLayer
 62
  256
370
   -1
100
AcDbLine
 10
2
 20
-40
 11
2
 21
-30
  0
LINE
  5
79
100
AcDbEntity
  8
Component
  6
ByLayer
 62
  256
370
   -1
100
AcDbLine
 10
2
 20
-30
 11
0
 21
-30
  0
LINE
  5
7A
100
AcDbEntity
  8
Component
  6
ByLayer
 62
  256
370
   -1
100
AcDbLine
 10
0
 20
-25
 11
2
 21
-25
  0
LINE
  5
7B
100
AcDbEntity
  8
Component
  6
ByLayer
 62
  256
370
   -1
100
AcDbLine
 10
2
 20
-13
 11
0
 21
-13
  0
LINE
  5
7C
100
AcDbEntity
  8
Component
  6
ByLayer
 62
  256
370
   -1
100
AcDbLine
 10
2
 20
-25
 11
2
 21
-13
  0
ENDBLK
  5
53
330
51
100
AcDbEntity
  8
0
100
AcDbBlockEnd
  0
BLOCK
  5
55
330
54
100
AcDbEntity
  8
0
100
AcDbBlockBegin
  2
PSU Block
 70
    0
 10
0
 20
0
  3
PSU Block
  1

  0
LINE
  5
7D
100
AcDbEntity
  8
Component
  6
ByLayer
 62
  256
370
   -1
100
AcDbLine
 10
0
 20
0
 11
0
 21
-50
  0
LINE
  5
7E
100
AcDbEntity
  8
Component
  6
ByLayer
 62
  256
370
   -1
100
AcDbLine
 10
0
 20
-50
 11
20
 21
-50
  0
LINE
  5
7F
100
AcDbEntity
  8
Component
  6
ByLayer
 62
  256
370
   -1
100
AcDbLine
 10
20
 20
-50
 11
20
 21
0
  0
LINE
  5
80
100
AcDbEntity
  8
Component
  6
ByLayer
 62
  256
370
   -1
100
AcDbLine
 10
20
 20
0
 11
0
 21
0
  0
MTEXT
  5
81
100
AcDbEntity
  8
Component
  6
ByLayer
 62
  256
370
   -1
100
AcDbMText
 10
4
 20
-5
 30
0
 40
5
 41
11.66666560665592
 71
    1
 72
    1
  1
PSU
  7
standard
210
0
220
0
230
1
 50
0
 73
    2
 44
1
  0
ENDBLK
  5
56
330
54
100
AcDbEntity
  8
0
100
AcDbBlockEnd
  0
BLOCK
  5
58
330
57
100
AcDbEntity
  8
0
100
AcDbBlockBegin
  2
VOLT SELECTOR Block
 70
    0
 10
0
 20
0
  3
VOLT SELECTOR Block
  1

  0
LINE
  5
82
100
AcDbEntity
  8
Component
  6
ByLayer
 62
  256
370
   -1
100
AcDbLine
 10
0
 20
0
 11
0
 21
-50
  0
MTEXT
  5
83
100
AcDbEntity
  8
Component
  6
ByLayer
 62
  256
370
   -1
100
AcDbMText
 10
2
 20
-8
 30
0
 40
5
 41
16.11111111111111
 71
    1
 72
    1
  1
VOLT
  7
standard
210
0
220
0
230
1
 50
0
 73
    2
 44
1
  0
LINE
  5
84
100
AcDbEntity
  8
Component
  6
ByLayer
 62
  256
370
   -1
100
AcDbLine
 10
0
 20
-50
 11
20
 21
-50
  0
LINE
  5
85
100
AcDbEntity
  8
Component
  6
ByLayer
 62
  256
370
   -1
100
AcDbLine
 10
20
 20
-50
 11
20
 21
0
  0
LINE
  5
86
100
AcDbEntity
  8
Component
  6
ByLayer
 62
  256
370
   -1
100
AcDbLine
 10
20
 20
0
 11
0
 21
0
  0
MTEXT
  5
87
100
AcDbEntity
  8
Component
  6
ByLayer
 62
  256
370
   -1
100
AcDbMText
 10
0.6999999999999886
 20
-15.99999999999997
 30
0
 40
5
 41
18.88888782887814
 71
    1
 72
    1
  1
SELCT
  7
standard
210
0
220
0
230
1
 50
0
 73
    2
 44
1
  0
ENDBLK
  5
59
330
57
100
AcDbEntity
  8
0
100
AcDbBlockEnd
  0
BLOCK
  5
5B
330
5A
100
AcDbEntity
  8
0
100
AcDbBlockBegin
  2
CDB block
 70
    0
 10
0
 20
0
  3
CDB block
  1

  0
LINE
  5
88
100
AcDbEntity
  8
Component
  6
ByLayer
 62
  256
370
   -1
100
AcDbLine
 10
0
 20
0
 11
0
 21
-50
  0
MTEXT
  5
89
100
AcDbEntity
  8
Component
  6
ByLayer
 62
  256
370
   -1
100
AcDbMText
 10
15
 20
-3
 30
0
 40
5
 41
21.11111111111142
 71
    2
 72
    1
  1
COIL \PDRIVE \PBOARD\P(CDB)
  7
standard
210
0
220
0
230
1
 50
0
 73
    2
 44
1
  0
LINE
  5
8A
100
AcDbEntity
  8
Component
  6
ByLayer
 62
  256
370
   -1
100
AcDbLine
 10
0
 20
-50
 11
30
 21
-50
  0
LINE
  5
8B
100
AcDbEntity
  8
Component
  6
ByLayer
 62
  256
370
   -1
100
AcDbLine
 10
30
 20
-50
 11
30
 21
0
  0
LINE
  5
8C
100
AcDbEntity
  8
Component
  6
ByLayer
 62
  256
370
   -1
100
AcDbLine
 10
30
 20
0
 11
0
 21
0
  0
ENDBLK
  5
5C
330
5A
100
AcDbEntity
  8
0
100
AcDbBlockEnd
  0
BLOCK
  5
5E
330
5D
100
AcDbEntity
  8
0
100
AcDbBlockBegin
  2
Sensor Array block
 70
    0
 10
0
 20
0
  3
Sensor Array block
  1

  0
LINE
  5
8D
100
AcDbEntity
  8
Component
  6
ByLayer
 62
  256
370
   -1
100
AcDbLine
 10
0
 20
0
 11
0
 21
-50
  0
LINE
  5
8E
100
AcDbEntity
  8
Component
  6
ByLayer
 62
  256
370
   -1
100
AcDbLine
 10
0
 20
-50
 11
30
 21
-50
  0
LINE
  5
8F
100
AcDbEntity
  8
Component
  6
ByLayer
 62
  256
370
   -1
100
AcDbLine
 10
30
 20
-50
 11
30
 21
0
  0
LINE
  5
90
100
AcDbEntity
  8
Component
  6
ByLayer
 62
  256
370
   -1
100
AcDbLine
 10
30
 20
0
 11
0
 21
0
  0
MTEXT
  5
91
100
AcDbEntity
  8
Component
  6
ByLayer
 62
  256
370
   -1
100
AcDbMText
 10
15.55555737127878
 20
-5
 30
0
 40
5
 41
25.55555706698103
 71
    2
 72
    1
  1
Sensory\PArray
  7
standard
210
0
220
0
230
1
 50
0
 73
    2
 44
1
  0
MTEXT
  5
92
100
AcDbEntity
  8
Component
  6
ByLayer
 62
  256
370
   18
100
AcDbMText
 10
15
 20
-26
 30
0
 40
4
 41
24.77777894603787
 71
    2
 72
    1
  1
(Hall osv)
  7
standard
210
0
220
0
230
1
 50
0
 73
    2
 44
1
  0
ENDBLK
  5
5F
330
5D
100
AcDbEntity
  8
0
100
AcDbBlockEnd
  0
ENDSEC
  0
SECTION
  2
ENTITIES
  0
HATCH
  5
93
100
AcDbEntity
  8
Signal Connections
  6
ByLayer
 62
  256
370
   18
100
AcDbHatch
 10
0
 20
0
 30
0
210
0
220
0
230
1
  2
SOLID
 70
    1
 71
    0
 91
    1
 92
    0
 93
    3
 72
    1
 10
84.83999999999999
 20
98.97999999999999
 11
86.961
 21
95.44499999999999
 72
    1
 10
86.961
 20
95.44499999999999
 11
82.71899999999999
 21
95.44499999999999
 72
    1
 10
82.71899999999999
 20
95.44499999999999
 11
84.83999999999999
 21
98.97999999999999
 97
    0
 75
    0
 76
    1
 98
    0
  0
HATCH
  5
94
100
AcDbEntity
  8
Signal Connections
  6
ByLayer
 62
  256
370
   -1
100
AcDbHatch
 10
0
 20
0
 30
0
210
0
220
0
230
1
  2
SOLID
 70
    1
 71
    0
 91
    1
 92
    0
 93
    3
 72
    1
 10
134.33
 20
120.19
 11
130.795
 21
122.311
 72
    1
 10
130.795
 20
122.311
 11
130.795
 21
118.069
 72
    1
 10
130.795
 20
118.069
 11
134.33
 21
120.19
 97
    0
 75
    0
 76
    1
 98
    0
  0
HATCH
  5
95
100
AcDbEntity
  8
Signal Connections
  6
ByLayer
 62
  256
370
   -1
100
AcDbHatch
 10
0
 20
0
 30
0
210
0
220
0
230
1
  2
SOLID
 70
    1
 71
    0
 91
    1
 92
    0
 93
    3
 72
    1
 10
134.33
 20
45.955
 11
130.795
 21
48.076
 72
    1
 10
130.795
 20
48.076
 11
130.795
 21
43.834
 72
    1
 10
130.795
 20
43.834
 11
134.33
 21
45.955
 97
    0
 75
    0
 76
    1
 98
    0
  0
HATCH
  5
96
100
AcDbEntity
  8
Signal Connections
  6
ByLayer
 62
  256
370
   -1
100
AcDbHatch
 10
0
 20
0
 30
0
210
0
220
0
230
1
  2
SOLID
 70
    1
 71
    0
 91
    1
 92
    0
 93
    3
 72
    1
 10
77.76465565445665
 20
98.97848785754874
 11
75.64365565445665
 21
95.44348785754875
 72
    1
 10
75.64365565445665
 20
95.44348785754875
 11
79.88565565445666
 21
95.44348785754875
 72
    1
 10
79.88565565445666
 20
95.44348785754875
 11
77.76465565445665
 21
98.97848785754874
 97
    0
 75
    0
 76
    1
 98
    0
  0
HATCH
  5
97
100
AcDbEntity
  8
Signal Connections
  6
ByLayer
 62
  256
370
   -1
100
AcDbHatch
 10
0
 20
0
 30
0
210
0
220
0
230
1
  2
SOLID
 70
    1
 71
    0
 91
    1
 92
    0
 93
    3
 72
    1
 10
130.795
 20
171.801
 11
134.33
 21
169.68
 72
    1
 10
134.33
 20
169.68
 11
130.795
 21
167.559
 72
    1
 10
130.795
 20
167.559
 11
130.795
 21
171.801
 97
    0
 75
    0
 76
    1
 98
    0
  0
LINE
  5
98
100
AcDbEntity
  8
0
  6
ByLayer
 62
    4
370
   -3
100
AcDbLine
 10
281.9516
 20
6.525610000000002
 11
292.698
 21
6.525610000000002
  0
MTEXT
  5
99
100
AcDbEntity
  8
0
  6
ByLayer
 62
  256
370
   -1
100
AcDbMText
 10
131.4360242283011
 20
18.0285
 30
0
 40
1.7675
 41
13.30534722222258
 71
    1
 72
    1
  1
Drawing Nr:
  7
standard
210
0
220
0
230
1
 50
0
 73
    2
 44
1
  0
MTEXT
  5
9A
100
AcDbEntity
  8
0
  6
ByLayer
 62
  256
370
   -1
100
AcDbMText
 10
210.4743628967592
 20
18.0285
 30
0
 40
1.7675
 41
13.10895833333358
 71
    1
 72
    1
  1
Original By:
  7
standard
210
0
220
0
230
1
 50
0
 73
    2
 44
1
  0
MTEXT
  5
9B
100
AcDbEntity
  8
0
  6
ByLayer
 62
  256
370
   -1
100
AcDbMText
 10
161.7684385557974
 20
17.9578
 30
0
 40
1.7675
 41
13.89451388888897
 71
    1
 72
    1
  1
Updated By:
  7
standard
210
0
220
0
230
1
 50
0
 73
    2
 44
1
  0
MTEXT
  5
9C
100
AcDbEntity
  8
0
  6
ByLayer
 62
  256
370
   -1
100
AcDbMText
 10
73.95171075674313
 20
18.0285
 30
0
 40
1.7675
 41
16.64395833333385
 71
    1
 72
    1
  1
Drawing Name:
  7
standard
210
0
220
0
230
1
 50
0
 73
    2
 44
1
  0
MTEXT
  5
9D
100
AcDbEntity
  8
0
  6
ByLayer
 62
  256
370
   -1
100
AcDbMText
 10
4.242
 20
18.0285
 30
0
 40
1.7675
 41
5.49888888888908
 71
    1
 72
    1
  1
Date:
  7
standard
210
0
220
0
230
1
 50
0
 73
    2
 44
1
  0
MTEXT
  5
9E
100
AcDbEntity
  8
0
  6
ByLayer
 62
  256
370
   -1
100
AcDbMText
 10
29.3405
 20
18.0285
 30
0
 40
1.7675
 41
4.320555555555555
 71
    1
 72
    1
  1
Ver:
  7
standard
210
0
220
0
230
1
 50
0
 73
    2
 44
1
  0
MTEXT
  5
9F
100
AcDbEntity
  8
0
  6
ByLayer
 62
  256
370
   -1
100
AcDbMText
 10
38.57077777777778
 20
18.0285
 30
0
 40
1.7675
 41
3.927777777777777
 71
    1
 72
    1
  1
Ext:
  7
standard
210
0
220
0
230
1
 50
0
 73
    2
 44
1
  0
MTEXT
  5
A0
100
AcDbEntity
  8
0
  6
ByLayer
 62
  256
370
   -1
100
AcDbMText
 10
47.35328888888888
 20
18.0285
 30
0
 40
1.7675
 41
2.945833333333333
 71
    1
 72
    1
  1
By:
  7
standard
210
0
220
0
230
1
 50
0
 73
    2
 44
1
  0
MTEXT
  5
A1
100
AcDbEntity
  8
0
  6
ByLayer
 62
  256
370
   -1
100
AcDbMText
 10
212.1
 20
13.7865
 30
0
 40
5.302499999999999
 41
58.76937500000098
 71
    1
 72
    1
  1
Eivind Lundeberg
  7
standard
210
0
220
0
230
1
 50
0
 73
    2
 44
1
  0
LINE
  5
A2
100
AcDbEntity
  8
0
  6
ByLayer
 62
    4
370
   70
100
AcDbLine
 10
226.24
 20
197.96
 11
254.52
 21
197.96
  0
INSERT
  5
A3
100
AcDbEntity
  8
Component
  6
ByLayer
 62
  256
370
   -1
100
AcDbBlockReference
  2
PSU Block
 10
28.28
 20
190.89
 30
0
 41
0.707
 42
0.707
 43
0
 50
0
 70
    1
 71
    1
 44
0
 45
0
  0
INSERT
  5
A4
100
AcDbEntity
  8
Component
  6
ByLayer
 62
  256
370
   -1
100
AcDbBlockReference
  2
CDB block
 10
134.33
 20
134.33
 30
0
 41
0.707
 42
0.707
 43
0
 50
0
 70
    1
 71
    1
 44
0
 45
0
  0
INSERT
  5
A5
100
AcDbEntity
  8
Component
  6
ByLayer
 62
  256
370
   -1
100
AcDbBlockReference
  2
MEGA2560r3 Block
 10
63.63
 20
141.4
 30
0
 41
0.707
 42
0.707
 43
0
 50
0
 70
    1
 71
    1
 44
0
 45
0
  0
LINE
  5
A6
100
AcDbEntity
  8
Signal Connections
  6
ByLayer
 62
  256
370
   -1
100
AcDbLine
 10
91.91
 20
120.19
 11
134.33
 21
120.19
  0
LINE
  5
A7
100
AcDbEntity
  8
Signal Connections
  6
ByLayer
 62
  256
370
   -1
100
AcDbLine
 10
134.33
 20
120.19
 11
130.795
 21
122.311
  0
LINE
  5
A8
100
AcDbEntity
  8
Signal Connections
  6
ByLayer
 62
  256
370
   -1
100
AcDbLine
 10
130.795
 20
122.311
 11
130.795
 21
118.069
  0
LINE
  5
A9
100
AcDbEntity
  8
Signal Connections
  6
ByLayer
 62
  256
370
   -1
100
AcDbLine
 10
130.795
 20
118.069
 11
134.33
 21
120.19
  0
LINE
  5
AA
100
AcDbEntity
  8
Power
  6
ByLayer
 62
  256
370
   -1
100
AcDbLine
 10
49.48999999999999
 20
134.33
 11
63.63
 21
134.33
  0
LINE
  5
AB
100
AcDbEntity
  8
Signal Connections
  6
ByLayer
 62
  256
370
   18
100
AcDbLine
 10
84.83999999999999
 20
98.97999999999999
 11
86.961
 21
95.44499999999999
  0
LINE
  5
AC
100
AcDbEntity
  8
Signal Connections
  6
ByLayer
 62
  256
370
   18
100
AcDbLine
 10
86.961
 20
95.44499999999999
 11
82.71899999999999
 21
95.44499999999999
  0
LINE
  5
AD
100
AcDbEntity
  8
Signal Connections
  6
ByLayer
 62
  256
370
   18
100
AcDbLine
 10
82.71899999999999
 20
95.44499999999999
 11
84.83999999999999
 21
98.97999999999999
  0
LINE
  5
AE
100
AcDbEntity
  8
Signal Connections
  6
ByLayer
 62
  256
370
   -1
100
AcDbLine
 10
134.33
 20
77.77
 11
84.83999999999999
 21
77.77
  0
LINE
  5
AF
100
AcDbEntity
  8
Signal Connections
  6
ByLayer
 62
  256
370
   -1
100
AcDbLine
 10
84.83999999999999
 20
77.77
 11
84.83999999999999
 21
98.97999999999999
  0
LINE
  5
B0
100
AcDbEntity
  8
Power
  6
ByLayer
 62
  256
370
   -1
100
AcDbLine
 10
53.025
 20
134.33
 11
49.48999999999999
 21
130.795
  0
LINE
  5
B1
100
AcDbEntity
  8
Power
  6
ByLayer
 62
  256
370
   -1
100
AcDbLine
 10
49.48999999999999
 20
130.795
 11
49.48999999999999
 21
70.7
  0
LINE
  5
B2
100
AcDbEntity
  8
Power
  6
ByLayer
 62
  256
370
   -1
100
AcDbLine
 10
49.48999999999999
 20
70.7
 11
134.33
 21
70.7
  0
LINE
  5
B3
100
AcDbEntity
  8
Power
  6
ByLayer
 62
  256
370
   -1
100
AcDbLine
 10
49.48999999999999
 20
159.075
 11
49.48999999999999
 21
134.33
  0
INSERT
  5
B4
100
AcDbEntity
  8
Component
  6
ByLayer
 62
  256
370
   18
100
AcDbBlockReference
  2
Sensor Array block
 10
134.33
 20
91.91
 30
0
 41
0.707
 42
0.707
 43
0
 50
0
 70
    1
 71
    1
 44
0
 45
0
  0
LINE
  5
B5
100
AcDbEntity
  8
Component
  6
ByLayer
 62
  256
370
   -1
100
AcDbLine
 10
134.33
 20
49.48999999999999
 11
134.33
 21
28.28
  0
LINE
  5
B6
100
AcDbEntity
  8
Component
  6
ByLayer
 62
  256
370
   -1
100
AcDbLine
 10
134.33
 20
28.28
 11
155.54
 21
28.28
  0
LINE
  5
B7
100
AcDbEntity
  8
Component
  6
ByLayer
 62
  256
370
   -1
100
AcDbLine
 10
155.54
 20
28.28
 11
155.54
 21
49.48999999999999
  0
LINE
  5
B8
100
AcDbEntity
  8
Component
  6
ByLayer
 62
  256
370
   -1
100
AcDbLine
 10
155.54
 20
49.48999999999999
 11
134.33
 21
49.48999999999999
  0
MTEXT
  5
B9
100
AcDbEntity
  8
Component
  6
ByLayer
 62
  256
370
   -1
100
AcDbMText
 10
144.935
 20
46.662
 30
0
 40
3.535
 41
6.677222222222222
 71
    2
 72
    1
  1
HMI
  7
standard
210
0
220
0
230
1
 50
0
 73
    2
 44
1
  0
LINE
  5
BA
100
AcDbEntity
  8
Signal Connections
  6
ByLayer
 62
  256
370
   -1
100
AcDbLine
 10
91.91
 20
113.12
 11
106.05
 21
113.12
  0
LINE
  5
BB
100
AcDbEntity
  8
Signal Connections
  6
ByLayer
 62
  256
370
   -1
100
AcDbLine
 10
106.05
 20
45.955
 11
134.33
 21
45.955
  0
LINE
  5
BC
100
AcDbEntity
  8
Signal Connections
  6
ByLayer
 62
  256
370
   -1
100
AcDbLine
 10
134.33
 20
45.955
 11
130.795
 21
48.076
  0
LINE
  5
BD
100
AcDbEntity
  8
Signal Connections
  6
ByLayer
 62
  256
370
   -1
100
AcDbLine
 10
130.795
 20
48.076
 11
130.795
 21
43.834
  0
LINE
  5
BE
100
AcDbEntity
  8
Signal Connections
  6
ByLayer
 62
  256
370
   -1
100
AcDbLine
 10
130.795
 20
43.834
 11
134.33
 21
45.955
  0
LINE
  5
BF
100
AcDbEntity
  8
Signal Connections
  6
ByLayer
 62
  256
370
   -1
100
AcDbLine
 10
134.33
 20
42.41999999999999
 11
77.77
 21
42.41999999999999
  0
LINE
  5
C0
100
AcDbEntity
  8
Signal Connections
  6
ByLayer
 62
  256
370
   -1
100
AcDbLine
 10
77.77
 20
42.41999999999999
 11
77.77
 21
98.97999999999999
  0
LINE
  5
C1
100
AcDbEntity
  8
Power
  6
ByLayer
 62
  256
370
   -1
100
AcDbLine
 10
53.025
 20
70.7
 11
49.48999999999999
 21
67.16499999999999
  0
LINE
  5
C2
100
AcDbEntity
  8
Power
  6
ByLayer
 62
  256
370
   -1
100
AcDbLine
 10
49.48999999999999
 20
67.16499999999999
 11
49.48999999999999
 21
35.35
  0
LINE
  5
C3
100
AcDbEntity
  8
Power
  6
ByLayer
 62
  256
370
   -1
100
AcDbLine
 10
49.48999999999999
 20
35.35
 11
134.33
 21
35.35
  0
LINE
  5
C4
100
AcDbEntity
  8
Signal Connections
  6
ByLayer
 62
  256
370
   -1
100
AcDbLine
 10
77.76465565445665
 20
98.97848785754874
 11
75.64365565445665
 21
95.44348785754875
  0
LINE
  5
C5
100
AcDbEntity
  8
Signal Connections
  6
ByLayer
 62
  256
370
   -1
100
AcDbLine
 10
75.64365565445665
 20
95.44348785754875
 11
79.88565565445666
 21
95.44348785754875
  0
LINE
  5
C6
100
AcDbEntity
  8
Signal Connections
  6
ByLayer
 62
  256
370
   -1
100
AcDbLine
 10
79.88565565445666
 20
95.44348785754875
 11
77.76465565445665
 21
98.97848785754874
  0
LINE
  5
C7
100
AcDbEntity
  8
Signal Connections
  6
ByLayer
 62
  256
370
   -1
100
AcDbLine
 10
106.05
 20
127.26
 11
91.91
 21
127.26
  0
MTEXT
  5
C8
100
AcDbEntity
  8
0
  6
ByLayer
 62
  256
370
   -1
100
AcDbMText
 10
98.97999999999999
 20
14.14
 30
0
 40
4.242
 41
39.00283333333439
 71
    2
 72
    1
  1
Block Diagram
  7
standard
210
0
220
0
230
1
 50
0
 73
    2
 44
1
  0
MTEXT
  5
C9
100
AcDbEntity
  8
0
  6
ByLayer
 62
  256
370
   -1
100
AcDbMText
 10
11.312
 20
14.847
 30
0
 40
2.121
 41
13.433
 71
    2
 72
    1
  1
08.02.2021
  7
standard
210
0
220
0
230
1
 50
0
 73
    2
 44
1
  0
MTEXT
  5
CA
100
AcDbEntity
  8
0
  6
ByLayer
 62
  256
370
   -1
100
AcDbMText
 10
29.694
 20
14.14
 30
0
 40
2.121
 41
4.477666666666666
 71
    4
 72
    1
  1
v0.1
  7
standard
210
0
220
0
230
1
 50
0
 73
    2
 44
1
  0
MTEXT
  5
CB
100
AcDbEntity
  8
0
  6
ByLayer
 62
  256
370
   -1
100
AcDbMText
 10
47.369
 20
14.14
 30
0
 40
2.121
 41
23.5077500000004
 71
    4
 72
    1
  1
Eivind Lundeberg
  7
standard
210
0
220
0
230
1
 50
0
 73
    2
 44
1
  0
LINE
  5
CC
100
AcDbEntity
  8
0
  6
ByLayer
 62
  256
370
   -3
100
AcDbLine
 10
102.33825
 20
3.535
 11
102.33825
 21
6.52561
  0
LINE
  5
CD
100
AcDbEntity
  8
0
  6
ByLayer
 62
  256
370
   -1
100
AcDbLine
 10
210.1204
 20
3.535
 11
210.1204
 21
15.49744
  0
LINE
  5
CE
100
AcDbEntity
  8
0
  6
ByLayer
 62
  256
370
   -1
100
AcDbLine
 10
210.1204
 20
18.48805
 11
210.1204
 21
15.49744
  0
LINE
  5
CF
100
AcDbEntity
  8
0
  6
ByLayer
 62
  256
370
   -1
100
AcDbLine
 10
281.9516
 20
18.48805
 11
281.9516
 21
3.535
  0
LINE
  5
D0
100
AcDbEntity
  8
0
  6
ByLayer
 62
  256
370
   -1
100
AcDbLine
 10
220.40725
 20
172.62819
 11
292.698
 21
172.62819
  0
LINE
  5
D1
100
AcDbEntity
  8
0
  6
ByLayer
 62
  256
370
   -1
100
AcDbLine
 10
220.40725
 20
206.444
 11
220.40725
 21
172.62819
  0
MTEXT
  5
D2
100
AcDbEntity
  8
0
  6
ByLayer
 62
  256
370
   -1
100
AcDbMText
 10
258.055
 20
197.96
 30
0
 40
4.242
 41
15.55399910068748
 71
    4
 72
    1
  1
Signal
  7
standard
210
0
220
0
230
1
 50
0
 73
    2
 44
1
  0
MTEXT
  5
D3
100
AcDbEntity
  8
0
  6
ByLayer
 62
  256
370
   -1
100
AcDbMText
 10
258.055
 20
190.89
 30
0
 40
4.242
 41
16.02533333333333
 71
    4
 72
    1
  1
Power
  7
standard
210
0
220
0
230
1
 50
0
 73
    2
 44
1
  0
LINE
  5
D4
100
AcDbEntity
  8
0
  6
ByLayer
 62
    1
370
   70
100
AcDbLine
 10
226.24
 20
190.89
 11
254.52
 21
190.89
  0
LINE
  5
D5
100
AcDbEntity
  8
0
  6
ByLayer
 62
  256
370
   70
100
AcDbLine
 10
292.698
 20
3.535
 11
292.698
 21
206.444
  0
LINE
  5
D6
100
AcDbEntity
  8
0
  6
ByLayer
 62
  256
370
   70
100
AcDbLine
 10
3.535
 20
3.535
 11
292.698
 21
3.535
  0
LINE
  5
D7
100
AcDbEntity
  8
0
  6
ByLayer
 62
  256
370
   70
100
AcDbLine
 10
3.535
 20
206.444
 11
3.535
 21
3.535
  0
LINE
  5
D8
100
AcDbEntity
  8
0
  6
ByLayer
 62
  256
370
   70
100
AcDbLine
 10
292.698
 20
206.444
 11
3.535
 21
206.444
  0
LINE
  5
D9
100
AcDbEntity
  8
0
  6
ByLayer
 62
  256
370
   70
100
AcDbLine
 10
3.535
 20
18.48805
 11
292.698
 21
18.48805
  0
LINE
  5
DA
100
AcDbEntity
  8
0
  6
ByLayer
 62
  256
370
   50
100
AcDbLine
 10
3.535
 20
15.49744
 11
292.698
 21
15.49744
  0
LINE
  5
DB
100
AcDbEntity
  8
0
  6
ByLayer
 62
  256
370
   -1
100
AcDbLine
 10
161.6202
 20
18.48805
 11
161.6202
 21
15.49744
  0
LINE
  5
DC
100
AcDbEntity
  8
0
  6
ByLayer
 62
  256
370
   -1
100
AcDbLine
 10
161.6202
 20
3.535
 11
161.6202
 21
15.49744
  0
LINE
  5
DD
100
AcDbEntity
  8
0
  6
ByLayer
 62
  256
370
   -1
100
AcDbLine
 10
131.0778
 20
15.49744
 11
131.0778
 21
3.535
  0
LINE
  5
DE
100
AcDbEntity
  8
0
  6
ByLayer
 62
  256
370
   -1
100
AcDbLine
 10
131.0778
 20
18.48805
 11
131.0778
 21
15.49744
  0
LINE
  5
DF
100
AcDbEntity
  8
0
  6
ByLayer
 62
  256
370
   -1
100
AcDbLine
 10
73.59869999999999
 20
6.52561
 11
292.698
 21
6.52561
  0
LINE
  5
E0
100
AcDbEntity
  8
0
  6
ByLayer
 62
  256
370
   -1
100
AcDbLine
 10
73.59869999999999
 20
18.48805
 11
73.59869999999999
 21
3.535
  0
LINE
  5
E1
100
AcDbEntity
  8
0
  6
ByLayer
 62
  256
370
   -1
100
AcDbLine
 10
3.535
 20
12.50683
 11
73.59869999999999
 21
12.50683
  0
LINE
  5
E2
100
AcDbEntity
  8
0
  6
ByLayer
 62
  256
370
   -1
100
AcDbLine
 10
3.535
 20
9.516220000000001
 11
73.59869999999999
 21
9.516220000000001
  0
LINE
  5
E3
100
AcDbEntity
  8
0
  6
ByLayer
 62
  256
370
   -1
100
AcDbLine
 10
3.535
 20
6.52561
 11
73.59869999999999
 21
6.52561
  0
LINE
  5
E4
100
AcDbEntity
  8
0
  6
ByLayer
 62
  256
370
   -1
100
AcDbLine
 10
28.6335
 20
18.48805
 11
28.6335
 21
3.535
  0
LINE
  5
E5
100
AcDbEntity
  8
0
  6
ByLayer
 62
  256
370
   -1
100
AcDbLine
 10
37.8245
 20
3.535
 11
37.8245
 21
18.48805
  0
LINE
  5
E6
100
AcDbEntity
  8
0
  6
ByLayer
 62
  256
370
   -1
100
AcDbLine
 10
46.662
 20
3.535
 11
46.662
 21
18.48805
  0
LINE
  5
E7
100
AcDbEntity
  8
0
  6
ByLayer
 62
  256
370
   70
100
AcDbLine
 10
0
 20
141.4
 11
3.535
 21
141.4
  0
LINE
  5
E8
100
AcDbEntity
  8
0
  6
ByLayer
 62
  256
370
   70
100
AcDbLine
 10
0
 20
70.7
 11
3.535
 21
70.7
  0
LINE
  5
E9
100
AcDbEntity
  8
0
  6
ByLayer
 62
  256
370
   70
100
AcDbLine
 10
0
 20
106.05
 11
3.535
 21
106.05
  0
LINE
  5
EA
100
AcDbEntity
  8
0
  6
ByLayer
 62
  256
370
   70
100
AcDbLine
 10
0
 20
176.75
 11
3.535
 21
176.75
  0
LINE
  5
EB
100
AcDbEntity
  8
0
  6
ByLayer
 62
  256
370
   70
100
AcDbLine
 10
0
 20
35.35
 11
3.535
 21
35.35
  0
LINE
  5
EC
100
AcDbEntity
  8
0
  6
ByLayer
 62
  256
370
   70
100
AcDbLine
 10
296.94
 20
70.7
 11
292.698
 21
70.7
  0
LINE
  5
ED
100
AcDbEntity
  8
0
  6
ByLayer
 62
  256
370
   70
100
AcDbLine
 10
296.94
 20
35.35
 11
292.698
 21
35.35
  0
LINE
  5
EE
100
AcDbEntity
  8
0
  6
ByLayer
 62
  256
370
   70
100
AcDbLine
 10
296.94
 20
106.05
 11
292.698
 21
106.05
  0
LINE
  5
EF
100
AcDbEntity
  8
0
  6
ByLayer
 62
  256
370
   70
100
AcDbLine
 10
296.94
 20
141.4
 11
292.698
 21
141.4
  0
LINE
  5
F0
100
AcDbEntity
  8
0
  6
ByLayer
 62
  256
370
   70
100
AcDbLine
 10
296.94
 20
176.75
 11
292.698
 21
176.75
  0
LINE
  5
F1
100
AcDbEntity
  8
0
  6
ByLayer
 62
  256
370
   70
100
AcDbLine
 10
282.8
 20
0
 11
282.8
 21
3.535
  0
LINE
  5
F2
100
AcDbEntity
  8
0
  6
ByLayer
 62
  256
370
   70
100
AcDbLine
 10
212.1
 20
0
 11
212.1
 21
3.535
  0
LINE
  5
F3
100
AcDbEntity
  8
0
  6
ByLayer
 62
  256
370
   70
100
AcDbLine
 10
247.45
 20
0
 11
247.45
 21
3.535
  0
LINE
  5
F4
100
AcDbEntity
  8
0
  6
ByLayer
 62
  256
370
   70
100
AcDbLine
 10
176.75
 20
0
 11
176.75
 21
3.535
  0
LINE
  5
F5
100
AcDbEntity
  8
0
  6
ByLayer
 62
  256
370
   70
100
AcDbLine
 10
141.4
 20
0
 11
141.4
 21
3.535
  0
LINE
  5
F6
100
AcDbEntity
  8
0
  6
ByLayer
 62
  256
370
   70
100
AcDbLine
 10
106.05
 20
0
 11
106.05
 21
3.535
  0
LINE
  5
F7
100
AcDbEntity
  8
0
  6
ByLayer
 62
  256
370
   70
100
AcDbLine
 10
70.7
 20
0
 11
70.7
 21
3.535
  0
LINE
  5
F8
100
AcDbEntity
  8
0
  6
ByLayer
 62
  256
370
   70
100
AcDbLine
 10
35.35
 20
0
 11
35.35
 21
3.535
  0
LINE
  5
F9
100
AcDbEntity
  8
0
  6
ByLayer
 62
  256
370
   70
100
AcDbLine
 10
282.8
 20
212.1
 11
282.8
 21
206.444
  0
LINE
  5
FA
100
AcDbEntity
  8
0
  6
ByLayer
 62
  256
370
   70
100
AcDbLine
 10
247.45
 20
212.1
 11
247.45
 21
206.444
  0
LINE
  5
FB
100
AcDbEntity
  8
0
  6
ByLayer
 62
  256
370
   70
100
AcDbLine
 10
212.1
 20
212.1
 11
212.1
 21
206.444
  0
LINE
  5
FC
100
AcDbEntity
  8
0
  6
ByLayer
 62
  256
370
   70
100
AcDbLine
 10
35.35
 20
212.1
 11
35.35
 21
206.444
  0
LINE
  5
FD
100
AcDbEntity
  8
0
  6
ByLayer
 62
  256
370
   70
100
AcDbLine
 10
70.7
 20
212.1
 11
70.7
 21
206.444
  0
LINE
  5
FE
100
AcDbEntity
  8
0
  6
ByLayer
 62
  256
370
   70
100
AcDbLine
 10
141.4
 20
212.1
 11
141.4
 21
206.444
  0
LINE
  5
FF
100
AcDbEntity
  8
0
  6
ByLayer
 62
  256
370
   70
100
AcDbLine
 10
176.75
 20
212.1
 11
176.75
 21
206.444
  0
LINE
  5
100
100
AcDbEntity
  8
0
  6
ByLayer
 62
  256
370
   70
100
AcDbLine
 10
106.05
 20
212.1
 11
106.05
 21
206.444
  0
INSERT
  5
101
100
AcDbEntity
  8
Component
  6
ByLayer
 62
  256
370
   -1
100
AcDbBlockReference
  2
VOLT SELECTOR Block
 10
134.33
 20
190.89
 30
0
 41
0.707
 42
0.707
 43
0
 50
0
 70
    1
 71
    1
 44
0
 45
0
  0
LINE
  5
102
100
AcDbEntity
  8
Signal Connections
  6
ByLayer
 62
  256
370
   -1
100
AcDbLine
 10
130.795
 20
171.801
 11
134.33
 21
169.68
  0
LINE
  5
103
100
AcDbEntity
  8
Signal Connections
  6
ByLayer
 62
  256
370
   -1
100
AcDbLine
 10
134.33
 20
169.68
 11
130.795
 21
167.559
  0
LINE
  5
104
100
AcDbEntity
  8
Signal Connections
  6
ByLayer
 62
  256
370
   -1
100
AcDbLine
 10
130.795
 20
167.559
 11
130.795
 21
171.801
  0
LINE
  5
105
100
AcDbEntity
  8
Signal Connections
  6
ByLayer
 62
  256
370
   -1
100
AcDbLine
 10
134.33
 20
169.68
 11
127.26
 21
169.68
  0
LINE
  5
106
100
AcDbEntity
  8
Signal Connections
  6
ByLayer
 62
  256
370
   -1
100
AcDbLine
 10
106.05
 20
169.68
 11
106.05
 21
127.26
  0
LINE
  5
107
100
AcDbEntity
  8
Signal Connections
  6
ByLayer
 62
  256
370
   -1
100
AcDbLine
 10
106.05
 20
169.68
 11
127.26
 21
169.68
  0
LINE
  5
108
100
AcDbEntity
  8
Power
  6
ByLayer
 62
  256
370
   -1
100
AcDbLine
 10
141.4
 20
155.54
 11
141.4
 21
134.33
  0
POINT
  5
109
100
AcDbEntity
  8
Power
  6
ByLayer
 62
  256
370
   -1
100
AcDbPoint
 10
53.025
 20
162.61
  0
LINE
  5
10A
100
AcDbEntity
  8
Power
  6
ByLayer
 62
  256
370
   -1
100
AcDbLine
 10
42.41999999999999
 20
162.61
 11
134.33
 21
162.61
  0
LINE
  5
10B
100
AcDbEntity
  8
Power
  6
ByLayer
 62
  256
370
   -1
100
AcDbLine
 10
53.025
 20
162.61
 11
49.48999999999999
 21
159.075
  0
POINT
  5
10C
100
AcDbEntity
  8
Power
  6
ByLayer
 62
  256
370
   -1
100
AcDbPoint
 10
53.025
 20
134.33
  0
POINT
  5
10D
100
AcDbEntity
  8
Power
  6
ByLayer
 62
  256
370
   -1
100
AcDbPoint
 10
53.025
 20
70.7
  0
LINE
  5
10E
100
AcDbEntity
  8
Signal Connections
  6
ByLayer
 62
  256
370
   -1
100
AcDbLine
 10
106.05
 20
76.35599999999999
 11
106.05
 21
45.955
  0
ARC
  5
10F
100
AcDbEntity
  8
Signal Connections
  6
ByLayer
 62
  256
370
   -1
100
AcDbCircle
 10
106.05
 20
77.77
 40
1.414
100
AcDbArc
 50
90
 51
270
  0
LINE
  5
110
100
AcDbEntity
  8
Signal Connections
  6
ByLayer
 62
  256
370
   -1
100
AcDbLine
 10
106.05
 20
79.184
 11
106.05
 21
113.12
  0
MTEXT
  5
111
100
AcDbEntity
  8
0
  6
ByLayer
 62
  256
370
   -1
100
AcDbMText
 10
141.4
 20
14.14
 30
0
 40
4.242
 41
10.84066666666667
 71
    2
 72
    1
  1
0-01
  7
standard
210
0
220
0
230
1
 50
0
 73
    2
 44
1
  0
MTEXT
  5
112
100
AcDbEntity
  8
Component
  6
ByLayer
 62
  256
370
   -1
100
AcDbMText
 10
74.235
 20
147.056
 30
0
 40
4.242
 41
5.184666666666667
 71
    4
 72
    1
  1
Q1
  7
STANDARD
210
0
220
0
230
1
 50
0
 73
    2
 44
1
  0
ENDSEC
  0
SECTION
  2
OBJECTS
  0
DICTIONARY
  5
C
330
0
100
AcDbDictionary
281
    1
  3
ACAD_GROUP
350
D
  0
DICTIONARY
  5
D
330
C
100
AcDbDictionary
281
    1
  0
ENDSEC
  0
EOF
