999
dxfrw 0.6.3
  0
SECTION
  2
HEADER
  9
$ACADVER
  1
AC1021
  9
$DWGCODEPAGE
  3
ANSI_1252
  9
$INSBASE
 10
0
 20
0
 30
0
  9
$EXTMIN
 10
0
 20
0
 30
0
  9
$EXTMAX
 10
840
 20
300
 30
0
  9
$LIMMIN
 10
0
 20
0
  9
$LIMMAX
 10
420
 20
297
  9
$ORTHOMODE
 70
    0
  9
$REGENMODE
 70
    1
  9
$FILLMODE
 70
    1
  9
$QTEXTMODE
 70
    0
  9
$MIRRTEXT
 70
    0
  9
$LTSCALE
 40
1
  9
$ATTMODE
 70
    0
  9
$TEXTSIZE
 40
2.5
  9
$TRACEWID
 40
15.68
  9
$TEXTSTYLE
  7
STANDARD
  9
$CLAYER
  8
Component
  9
$CELTYPE
  6
BYLAYER
  9
$CECOLOR
 62
  256
  9
$CELTSCALE
 40
1
  9
$DISPSILH
 70
    0
  9
$DIMSCALE
 40
2.5
  9
$DIMASZ
 40
2.5
  9
$DIMEXO
 40
0.625
  9
$DIMDLI
 40
3.75
  9
$DIMRND
 40
0
  9
$DIMDLE
 40
0
  9
$DIMEXE
 40
1.25
  9
$DIMTP
 40
0
  9
$DIMTM
 40
0
  9
$DIMTXT
 40
2.5
  9
$DIMCEN
 40
2.5
  9
$DIMTSZ
 40
0
  9
$DIMTOL
 70
    0
  9
$DIMLIM
 70
    0
  9
$DIMTIH
 70
    0
  9
$DIMTOH
 70
    0
  9
$DIMSE1
 70
    0
  9
$DIMSE2
 70
    0
  9
$DIMTAD
 70
    1
  9
$DIMZIN
 70
    8
  9
$DIMBLK
  1

  9
$DIMASO
 70
    1
  9
$DIMSHO
 70
    1
  9
$DIMPOST
  1

  9
$DIMAPOST
  1

  9
$DIMALT
 70
    0
  9
$DIMALTD
 70
    3
  9
$DIMALTF
 40
0.03937
  9
$DIMLFAC
 40
1
  9
$DIMTOFL
 70
    1
  9
$DIMTVP
 40
0
  9
$DIMTIX
 70
    0
  9
$DIMSOXD
 70
    0
  9
$DIMSAH
 70
    0
  9
$DIMBLK1
  1

  9
$DIMBLK2
  1

  9
$DIMSTYLE
  2
Standard
  9
$DIMCLRD
 70
    0
  9
$DIMCLRE
 70
    0
  9
$DIMCLRT
 70
    0
  9
$DIMTFAC
 40
1
  9
$DIMGAP
 40
0.625
  9
$DIMJUST
 70
    0
  9
$DIMSD1
 70
    0
  9
$DIMSD2
 70
    0
  9
$DIMTOLJ
 70
    0
  9
$DIMTZIN
 70
    8
  9
$DIMALTZ
 70
    0
  9
$DIMALTTZ
 70
    0
  9
$DIMUPT
 70
    0
  9
$DIMDEC
 70
    4
  9
$DIMTDEC
 70
    2
  9
$DIMALTU
 70
    2
  9
$DIMALTTD
 70
    3
  9
$DIMTXSTY
  7
STANDARD
  9
$DIMAUNIT
 70
    0
  9
$DIMADEC
 70
    0
  9
$DIMALTRND
 40
0
  9
$DIMAZIN
 70
    0
  9
$DIMDSEP
 70
   44
  9
$DIMATFIT
 70
    3
  9
$DIMFRAC
 70
    0
  9
$DIMLDRBLK
  1
STANDARD
  9
$DIMLUNIT
 70
    2
  9
$DIMLWD
 70
   -2
  9
$DIMLWE
 70
   -2
  9
$DIMTMOVE
 70
    0
  9
$DIMFXL
 40
1
  9
$DIMFXLON
 70
    0
  9
$DIMJOGANG
 40
0.7854
  9
$DIMTFILL
 70
    0
  9
$DIMTFILLCLR
 70
    0
  9
$DIMARCSYM
 70
    0
  9
$DIMLTYPE
  6

  9
$DIMLTEX1
  6

  9
$DIMLTEX2
  6

  9
$LUNITS
 70
    2
  9
$LUPREC
 70
    4
  9
$SKETCHINC
 40
1
  9
$FILLETRAD
 40
0
  9
$AUNITS
 70
    0
  9
$AUPREC
 70
    2
  9
$MENU
  1
.
  9
$ELEVATION
 40
0
  9
$PELEVATION
 40
0
  9
$THICKNESS
 40
0
  9
$LIMCHECK
 70
    0
  9
$CHAMFERA
 40
0
  9
$CHAMFERB
 40
0
  9
$CHAMFERC
 40
0
  9
$CHAMFERD
 40
0
  9
$SKPOLY
 70
    0
  9
$USRTIMER
 70
    1
  9
$ANGBASE
 50
0
  9
$ANGDIR
 70
    0
  9
$PDMODE
 70
   34
  9
$PDSIZE
 40
0
  9
$PLINEWID
 40
0
  9
$SPLFRAME
 70
    0
  9
$SPLINETYPE
 70
    2
  9
$SPLINESEGS
 70
    8
  9
$HANDSEED
  5
20000
  9
$SURFTAB1
 70
    6
  9
$SURFTAB2
 70
    6
  9
$SURFTYPE
 70
    6
  9
$SURFU
 70
    6
  9
$SURFV
 70
    6
  9
$UCSBASE
  2

  9
$UCSNAME
  2

  9
$UCSORG
 10
0
 20
0
 30
0
  9
$UCSXDIR
 10
1
 20
0
 30
0
  9
$UCSYDIR
 10
0
 20
1
 30
0
  9
$UCSORTHOREF
  2

  9
$UCSORTHOVIEW
 70
    0
  9
$UCSORGTOP
 10
0
 20
0
 30
0
  9
$UCSORGBOTTOM
 10
0
 20
0
 30
0
  9
$UCSORGLEFT
 10
0
 20
0
 30
0
  9
$UCSORGRIGHT
 10
0
 20
0
 30
0
  9
$UCSORGFRONT
 10
0
 20
0
 30
0
  9
$UCSORGBACK
 10
0
 20
0
 30
0
  9
$PUCSBASE
  2

  9
$PUCSNAME
  2

  9
$PUCSORG
 10
0
 20
0
 30
0
  9
$PUCSXDIR
 10
1
 20
0
 30
0
  9
$PUCSYDIR
 10
0
 20
1
 30
0
  9
$PUCSORTHOREF
  2

  9
$PUCSORTHOVIEW
 70
    0
  9
$PUCSORGTOP
 10
0
 20
0
 30
0
  9
$PUCSORGBOTTOM
 10
0
 20
0
 30
0
  9
$PUCSORGLEFT
 10
0
 20
0
 30
0
  9
$PUCSORGRIGHT
 10
0
 20
0
 30
0
  9
$PUCSORGFRONT
 10
0
 20
0
 30
0
  9
$PUCSORGBACK
 10
0
 20
0
 30
0
  9
$USERI1
 70
    0
  9
$USERI2
 70
    0
  9
$USERI3
 70
    0
  9
$USERI4
 70
    0
  9
$USERI5
 70
    0
  9
$USERR1
 40
0
  9
$USERR2
 40
0
  9
$USERR3
 40
0
  9
$USERR4
 40
0
  9
$USERR5
 40
0
  9
$WORLDVIEW
 70
    1
  9
$SHADEDGE
 70
    3
  9
$SHADEDIF
 70
   70
  9
$TILEMODE
 70
    1
  9
$MAXACTVP
 70
   64
  9
$PINSBASE
 10
0
 20
0
 30
0
  9
$PLIMCHECK
 70
    0
  9
$PEXTMIN
 10
0
 20
0
 30
0
  9
$PEXTMAX
 10
0
 20
0
 30
0
  9
$GRIDMODE
 70
    1
  9
$SNAPSTYLE
 70
    0
  9
$PLIMMIN
 10
0
 20
0
  9
$PLIMMAX
 10
420
 20
297
  9
$UNITMODE
 70
    0
  9
$VISRETAIN
 70
    1
  9
$PLINEGEN
 70
    0
  9
$PSLTSCALE
 70
    1
  9
$TREEDEPTH
 70
 3020
  9
$CMLSTYLE
  2
Standard
  9
$CMLJUST
 70
    0
  9
$CMLSCALE
 40
20
  9
$PROXYGRAPHICS
 70
    1
  9
$MEASUREMENT
 70
    1
  9
$CELWEIGHT
370
   -1
  9
$ENDCAPS
280
    0
  9
$JOINSTYLE
280
    0
  9
$LWDISPLAY
290
    0
  9
$INSUNITS
 70
    4
  9
$HYPERLINKBASE
  1

  9
$STYLESHEET
  1

  9
$XEDIT
290
    1
  9
$CEPSNTYPE
380
    0
  9
$PSTYLEMODE
290
    1
  9
$EXTNAMES
290
    1
  9
$PSVPSCALE
 40
1
  9
$OLESTARTUP
290
    0
  9
$SORTENTS
280
  127
  9
$INDEXCTL
280
    0
  9
$HIDETEXT
280
    1
  9
$XCLIPFRAME
290
    0
  9
$HALOGAP
280
    0
  9
$OBSCOLOR
 70
  257
  9
$OBSLTYPE
280
    0
  9
$INTERSECTIONDISPLAY
280
    0
  9
$INTERSECTIONCOLOR
 70
  257
  9
$DIMASSOC
280
    1
  9
$PROJECTNAME
  1

  9
$CAMERADISPLAY
290
    0
  9
$LENSLENGTH
 40
50
  9
$CAMERAHEIGHT
 40
0
  9
$STEPSPERSEC
 40
2
  9
$STEPSIZE
 40
50
  9
$3DDWFPREC
 40
2
  9
$PSOLWIDTH
 40
5
  9
$PSOLHEIGHT
 40
80
  9
$LOFTANG1
 40
1.570796326794897
  9
$LOFTANG2
 40
1.570796326794897
  9
$LOFTMAG1
 40
0
  9
$LOFTMAG2
 40
0
  9
$LOFTPARAM
 70
    7
  9
$LOFTNORMALS
280
    1
  9
$LATITUDE
 40
1
  9
$LONGITUDE
 40
1
  9
$NORTHDIRECTION
 40
0
  9
$TIMEZONE
 70
-8000
  9
$LIGHTGLYPHDISPLAY
280
    1
  9
$TILEMODELIGHTSYNCH
280
    1
  9
$SOLIDHIST
280
    1
  9
$SHOWHIST
280
    1
  9
$DWFFRAME
280
    2
  9
$DGNFRAME
280
    0
  9
$REALWORLDSCALE
290
    1
  9
$INTERFERECOLOR
 62
    1
  9
$CSHADOW
280
    0
  9
$SHADOWPLANELOCATION
 40
0
  0
ENDSEC
  0
SECTION
  2
CLASSES
  0
ENDSEC
  0
SECTION
  2
TABLES
  0
TABLE
  2
VPORT
  5
8
330
0
100
AcDbSymbolTable
 70
    1
  0
VPORT
  5
31
330
2
100
AcDbSymbolTableRecord
100
AcDbViewportTableRecord
  2
*ACTIVE
 70
    0
 10
0
 20
0
 11
1
 21
1
 12
216.4333082728674
 22
155.7833596347715
 13
0
 23
0
 14
10
 24
10
 15
10
 25
10
 16
0
 26
0
 36
1
 17
0
 27
0
 37
0
 40
102.3627825115542
 41
1.6575
 42
50
 43
0
 44
0
 50
0
 51
0
 71
    0
 72
  100
 73
    1
 74
    3
 75
    0
 76
    1
 77
    0
 78
    0
281
    0
 65
    1
110
0
120
0
130
0
111
1
121
0
131
0
112
0
122
1
132
0
 79
    0
146
0
348
10020
 60
    7
 61
    5
292
1
282
    1
141
0
142
0
 63
  250
421
3358443
  0
ENDTAB
  0
TABLE
  2
LTYPE
  5
5
330
0
100
AcDbSymbolTable
 70
    4
  0
LTYPE
  5
14
330
5
100
AcDbSymbolTableRecord
100
AcDbLinetypeTableRecord
  2
ByBlock
 70
    0
  3

 72
   65
 73
    0
 40
0
  0
LTYPE
  5
15
330
5
100
AcDbSymbolTableRecord
100
AcDbLinetypeTableRecord
  2
ByLayer
 70
    0
  3

 72
   65
 73
    0
 40
0
  0
LTYPE
  5
16
330
5
100
AcDbSymbolTableRecord
100
AcDbLinetypeTableRecord
  2
Continuous
 70
    0
  3
Solid line
 72
   65
 73
    0
 40
0
  0
LTYPE
  5
32
330
5
100
AcDbSymbolTableRecord
100
AcDbLinetypeTableRecord
  2
DOT
 70
    0
  3
Dot . . . . . . . . . . . . . . . . . . . . . .
 72
   65
 73
    2
 40
6.35
 49
0
 74
    0
 49
-6.35
 74
    0
  0
LTYPE
  5
33
330
5
100
AcDbSymbolTableRecord
100
AcDbLinetypeTableRecord
  2
DOTTINY
 70
    0
  3
Dot (.15x) .....................................
 72
   65
 73
    2
 40
0.9525
 49
0
 74
    0
 49
-0.9525
 74
    0
  0
LTYPE
  5
34
330
5
100
AcDbSymbolTableRecord
100
AcDbLinetypeTableRecord
  2
DOT2
 70
    0
  3
Dot (.5x) .....................................
 72
   65
 73
    2
 40
3.175
 49
0
 74
    0
 49
-3.175
 74
    0
  0
LTYPE
  5
35
330
5
100
AcDbSymbolTableRecord
100
AcDbLinetypeTableRecord
  2
DOTX2
 70
    0
  3
Dot (2x) .  .  .  .  .  .  .  .  .  .  .  .  .
 72
   65
 73
    2
 40
12.7
 49
0
 74
    0
 49
-12.7
 74
    0
  0
LTYPE
  5
36
330
5
100
AcDbSymbolTableRecord
100
AcDbLinetypeTableRecord
  2
DASHED
 70
    0
  3
Dashed _ _ _ _ _ _ _ _ _ _ _ _ _ _ _ _ _
 72
   65
 73
    2
 40
19.05
 49
12.7
 74
    0
 49
-6.35
 74
    0
  0
LTYPE
  5
37
330
5
100
AcDbSymbolTableRecord
100
AcDbLinetypeTableRecord
  2
DASHEDTINY
 70
    0
  3
Dashed (.15x) _ _ _ _ _ _ _ _ _ _ _ _ _ _ _ _ _
 72
   65
 73
    2
 40
2.8575
 49
1.905
 74
    0
 49
-0.9525
 74
    0
  0
LTYPE
  5
38
330
5
100
AcDbSymbolTableRecord
100
AcDbLinetypeTableRecord
  2
DASHED2
 70
    0
  3
Dashed (.5x) _ _ _ _ _ _ _ _ _ _ _ _ _ _ _ _ _
 72
   65
 73
    2
 40
9.524999999999999
 49
6.35
 74
    0
 49
-3.175
 74
    0
  0
LTYPE
  5
39
330
5
100
AcDbSymbolTableRecord
100
AcDbLinetypeTableRecord
  2
DASHEDX2
 70
    0
  3
Dashed (2x) ____  ____  ____  ____  ____  ___
 72
   65
 73
    2
 40
38.09999999999999
 49
25.4
 74
    0
 49
-12.7
 74
    0
  0
LTYPE
  5
3A
330
5
100
AcDbSymbolTableRecord
100
AcDbLinetypeTableRecord
  2
DASHDOT
 70
    0
  3
Dash dot __ . __ . __ . __ . __ . __ . __ . __
 72
   65
 73
    4
 40
25.4
 49
12.7
 74
    0
 49
-6.35
 74
    0
 49
0
 74
    0
 49
-6.35
 74
    0
  0
LTYPE
  5
3B
330
5
100
AcDbSymbolTableRecord
100
AcDbLinetypeTableRecord
  2
DASHDOTTINY
 70
    0
  3
Dash dot (.15x) _._._._._._._._._._._._._._._.
 72
   65
 73
    4
 40
3.81
 49
1.905
 74
    0
 49
-0.9525
 74
    0
 49
0
 74
    0
 49
-0.9525
 74
    0
  0
LTYPE
  5
3C
330
5
100
AcDbSymbolTableRecord
100
AcDbLinetypeTableRecord
  2
DASHDOT2
 70
    0
  3
Dash dot (.5x) _._._._._._._._._._._._._._._.
 72
   65
 73
    4
 40
12.7
 49
6.35
 74
    0
 49
-3.175
 74
    0
 49
0
 74
    0
 49
-3.175
 74
    0
  0
LTYPE
  5
3D
330
5
100
AcDbSymbolTableRecord
100
AcDbLinetypeTableRecord
  2
DASHDOTX2
 70
    0
  3
Dash dot (2x) ____  .  ____  .  ____  .  ___
 72
   65
 73
    4
 40
50.8
 49
25.4
 74
    0
 49
-12.7
 74
    0
 49
0
 74
    0
 49
-12.7
 74
    0
  0
LTYPE
  5
3E
330
5
100
AcDbSymbolTableRecord
100
AcDbLinetypeTableRecord
  2
DIVIDE
 70
    0
  3
Divide ____ . . ____ . . ____ . . ____ . . ____
 72
   65
 73
    6
 40
31.75
 49
12.7
 74
    0
 49
-6.35
 74
    0
 49
0
 74
    0
 49
-6.35
 74
    0
 49
0
 74
    0
 49
-6.35
 74
    0
  0
LTYPE
  5
3F
330
5
100
AcDbSymbolTableRecord
100
AcDbLinetypeTableRecord
  2
DIVIDETINY
 70
    0
  3
Divide (.15x) __..__..__..__..__..__..__..__.._
 72
   65
 73
    6
 40
4.7625
 49
1.905
 74
    0
 49
-0.9525
 74
    0
 49
0
 74
    0
 49
-0.9525
 74
    0
 49
0
 74
    0
 49
-0.9525
 74
    0
  0
LTYPE
  5
40
330
5
100
AcDbSymbolTableRecord
100
AcDbLinetypeTableRecord
  2
DIVIDE2
 70
    0
  3
Divide (.5x) __..__..__..__..__..__..__..__.._
 72
   65
 73
    6
 40
15.875
 49
6.35
 74
    0
 49
-3.175
 74
    0
 49
0
 74
    0
 49
-3.175
 74
    0
 49
0
 74
    0
 49
-3.175
 74
    0
  0
LTYPE
  5
41
330
5
100
AcDbSymbolTableRecord
100
AcDbLinetypeTableRecord
  2
DIVIDEX2
 70
    0
  3
Divide (2x) ________  .  .  ________  .  .  _
 72
   65
 73
    6
 40
63.5
 49
25.4
 74
    0
 49
-12.7
 74
    0
 49
0
 74
    0
 49
-12.7
 74
    0
 49
0
 74
    0
 49
-12.7
 74
    0
  0
LTYPE
  5
42
330
5
100
AcDbSymbolTableRecord
100
AcDbLinetypeTableRecord
  2
BORDER
 70
    0
  3
Border __ __ . __ __ . __ __ . __ __ . __ __ .
 72
   65
 73
    6
 40
44.45
 49
12.7
 74
    0
 49
-6.35
 74
    0
 49
12.7
 74
    0
 49
-6.35
 74
    0
 49
0
 74
    0
 49
-6.35
 74
    0
  0
LTYPE
  5
43
330
5
100
AcDbSymbolTableRecord
100
AcDbLinetypeTableRecord
  2
BORDERTINY
 70
    0
  3
Border (.15x) __.__.__.__.__.__.__.__.__.__.__.
 72
   65
 73
    6
 40
6.6675
 49
1.905
 74
    0
 49
-0.9525
 74
    0
 49
1.905
 74
    0
 49
-0.9525
 74
    0
 49
0
 74
    0
 49
-0.9525
 74
    0
  0
LTYPE
  5
44
330
5
100
AcDbSymbolTableRecord
100
AcDbLinetypeTableRecord
  2
BORDER2
 70
    0
  3
Border (.5x) __.__.__.__.__.__.__.__.__.__.__.
 72
   65
 73
    6
 40
22.225
 49
6.35
 74
    0
 49
-3.175
 74
    0
 49
6.35
 74
    0
 49
-3.175
 74
    0
 49
0
 74
    0
 49
-3.175
 74
    0
  0
LTYPE
  5
45
330
5
100
AcDbSymbolTableRecord
100
AcDbLinetypeTableRecord
  2
BORDERX2
 70
    0
  3
Border (2x) ____  ____  .  ____  ____  .  ___
 72
   65
 73
    6
 40
88.89999999999999
 49
25.4
 74
    0
 49
-12.7
 74
    0
 49
25.4
 74
    0
 49
-12.7
 74
    0
 49
0
 74
    0
 49
-12.7
 74
    0
  0
LTYPE
  5
46
330
5
100
AcDbSymbolTableRecord
100
AcDbLinetypeTableRecord
  2
CENTER
 70
    0
  3
Center ____ _ ____ _ ____ _ ____ _ ____ _ ____
 72
   65
 73
    4
 40
50.8
 49
31.75
 74
    0
 49
-6.35
 74
    0
 49
6.35
 74
    0
 49
-6.35
 74
    0
  0
LTYPE
  5
47
330
5
100
AcDbSymbolTableRecord
100
AcDbLinetypeTableRecord
  2
CENTERTINY
 70
    0
  3
Center (.15x) ___ _ ___ _ ___ _ ___ _ ___ _ ___
 72
   65
 73
    4
 40
7.619999999999999
 49
4.7625
 74
    0
 49
-0.9525
 74
    0
 49
0.9525
 74
    0
 49
-0.9525
 74
    0
  0
LTYPE
  5
48
330
5
100
AcDbSymbolTableRecord
100
AcDbLinetypeTableRecord
  2
CENTER2
 70
    0
  3
Center (.5x) ___ _ ___ _ ___ _ ___ _ ___ _ ___
 72
   65
 73
    4
 40
28.575
 49
19.05
 74
    0
 49
-3.175
 74
    0
 49
3.175
 74
    0
 49
-3.175
 74
    0
  0
LTYPE
  5
49
330
5
100
AcDbSymbolTableRecord
100
AcDbLinetypeTableRecord
  2
CENTERX2
 70
    0
  3
Center (2x) ________  __  ________  __  _____
 72
   65
 73
    4
 40
101.6
 49
63.5
 74
    0
 49
-12.7
 74
    0
 49
12.7
 74
    0
 49
-12.7
 74
    0
  0
ENDTAB
  0
TABLE
  2
LAYER
  5
2
330
0
100
AcDbSymbolTable
 70
    1
  0
LAYER
  5
10
330
2
100
AcDbSymbolTableRecord
100
AcDbLayerTableRecord
  2
0
 70
    0
 62
    7
  6
CONTINUOUS
370
   13
390
F
  0
LAYER
  5
4A
330
2
100
AcDbSymbolTableRecord
100
AcDbLayerTableRecord
  2
Com
 70
    0
 62
    4
  6
CONTINUOUS
370
   18
390
F
  0
LAYER
  5
4B
330
2
100
AcDbSymbolTableRecord
100
AcDbLayerTableRecord
  2
Component
 70
    0
 62
    7
  6
CONTINUOUS
370
   25
390
F
  0
LAYER
  5
4C
330
2
100
AcDbSymbolTableRecord
100
AcDbLayerTableRecord
  2
Drawing info
 70
    0
 62
    7
  6
CONTINUOUS
370
    5
390
F
  0
LAYER
  5
4D
330
2
100
AcDbSymbolTableRecord
100
AcDbLayerTableRecord
  2
Power
 70
    0
 62
    1
  6
CONTINUOUS
370
   35
390
F
  0
LAYER
  5
4E
330
2
100
AcDbSymbolTableRecord
100
AcDbLayerTableRecord
  2
Ref
 70
    0
 62
    5
  6
CONTINUOUS
370
   35
390
F
  0
LAYER
  5
4F
330
2
100
AcDbSymbolTableRecord
100
AcDbLayerTableRecord
  2
Signal
 70
    0
 62
    3
  6
CONTINUOUS
370
   18
390
F
  0
ENDTAB
  0
TABLE
  2
STYLE
  5
3
330
0
100
AcDbSymbolTable
 70
    3
  0
STYLE
  5
50
330
2
100
AcDbSymbolTableRecord
100
AcDbTextStyleTableRecord
  2
standard
 70
    0
 40
0
 41
1
 50
0
 71
    0
 42
1
  3
standard
  4

  0
STYLE
  5
51
330
2
100
AcDbSymbolTableRecord
100
AcDbTextStyleTableRecord
  2
STANDARD
 70
    0
 40
0
 41
1
 50
0
 71
    0
 42
1
  3
STANDARD
  4

  0
ENDTAB
  0
TABLE
  2
VIEW
  5
6
330
0
100
AcDbSymbolTable
 70
    0
  0
ENDTAB
  0
TABLE
  2
UCS
  5
7
330
0
100
AcDbSymbolTable
 70
    0
  0
ENDTAB
  0
TABLE
  2
APPID
  5
9
330
0
100
AcDbSymbolTable
 70
    1
  0
APPID
  5
12
330
9
100
AcDbSymbolTableRecord
100
AcDbRegAppTableRecord
  2
ACAD
 70
    0
  0
APPID
  5
52
330
9
100
AcDbSymbolTableRecord
100
AcDbRegAppTableRecord
  2
LibreCad
 70
    0
  0
ENDTAB
  0
TABLE
  2
DIMSTYLE
  5
A
330
0
100
AcDbSymbolTable
 70
    1
100
AcDbDimStyleTable
 71
    1
  0
DIMSTYLE
105
53
330
A
100
AcDbSymbolTableRecord
100
AcDbDimStyleTableRecord
  2
Standard
 70
    0
 40
2.5
 41
2.5
 42
0.625
 43
0.38
 44
1.25
 45
0
 46
0
 47
0
 48
0
 49
1
140
2.5
141
0.09
142
0
143
25.4
144
1
145
0
146
1
147
0.625
148
0
 71
    0
 72
    0
 73
    0
 74
    1
 75
    0
 76
    0
 77
    0
 78
    8
 79
    0
170
    0
171
    2
172
    0
173
    0
174
    0
175
    0
176
    0
177
    0
178
    0
179
    0
271
    4
272
    4
273
    2
274
    2
275
    0
276
    0
277
    2
278
   44
279
    0
280
    0
281
    0
282
    0
283
    1
284
    0
285
    0
286
    0
288
    0
289
    3
340
STANDARD
341

371
   -2
372
   -2
  0
ENDTAB
  0
TABLE
  2
BLOCK_RECORD
  5
1
330
0
100
AcDbSymbolTable
 70
    2
  0
BLOCK_RECORD
  5
1F
330
1
100
AcDbSymbolTableRecord
100
AcDbBlockTableRecord
  2
*Model_Space
 70
    0
280
    1
281
    0
  0
BLOCK_RECORD
  5
1E
330
1
100
AcDbSymbolTableRecord
100
AcDbBlockTableRecord
  2
*Paper_Space
 70
    0
280
    1
281
    0
  0
BLOCK_RECORD
  5
54
330
1
100
AcDbSymbolTableRecord
100
AcDbBlockTableRecord
  2
MEGA2560r3 Block
 70
    0
280
    1
281
    0
  0
BLOCK_RECORD
  5
57
330
1
100
AcDbSymbolTableRecord
100
AcDbBlockTableRecord
  2
PSU Block
 70
    0
280
    1
281
    0
  0
BLOCK_RECORD
  5
5A
330
1
100
AcDbSymbolTableRecord
100
AcDbBlockTableRecord
  2
VOLT SELECTOR Block
 70
    0
280
    1
281
    0
  0
BLOCK_RECORD
  5
5D
330
1
100
AcDbSymbolTableRecord
100
AcDbBlockTableRecord
  2
CDB block
 70
    0
280
    1
281
    0
  0
BLOCK_RECORD
  5
60
330
1
100
AcDbSymbolTableRecord
100
AcDbBlockTableRecord
  2
Sensor Array block
 70
    0
280
    1
281
    0
  0
BLOCK_RECORD
  5
63
330
1
100
AcDbSymbolTableRecord
100
AcDbBlockTableRecord
  2
Resistor
 70
    0
280
    1
281
    0
  0
BLOCK_RECORD
  5
66
330
1
100
AcDbSymbolTableRecord
100
AcDbBlockTableRecord
  2
Hall Sensor
 70
    0
280
    1
281
    0
  0
BLOCK_RECORD
  5
69
330
1
100
AcDbSymbolTableRecord
100
AcDbBlockTableRecord
  2
Hall Sensor-0
 70
    0
280
    1
281
    0
  0
BLOCK_RECORD
  5
6C
330
1
100
AcDbSymbolTableRecord
100
AcDbBlockTableRecord
  2
Hall Sensor-1
 70
    0
280
    1
281
    0
  0
BLOCK_RECORD
  5
6F
330
1
100
AcDbSymbolTableRecord
100
AcDbBlockTableRecord
  2
Hall Sensor-2
 70
    0
280
    1
281
    0
  0
BLOCK_RECORD
  5
72
330
1
100
AcDbSymbolTableRecord
100
AcDbBlockTableRecord
  2
Hall Sensor-3
 70
    0
280
    1
281
    0
  0
BLOCK_RECORD
  5
75
330
1
100
AcDbSymbolTableRecord
100
AcDbBlockTableRecord
  2
Hall Sensor-4
 70
    0
280
    1
281
    0
  0
BLOCK_RECORD
  5
78
330
1
100
AcDbSymbolTableRecord
100
AcDbBlockTableRecord
  2
Hall Sensor-5
 70
    0
280
    1
281
    0
  0
BLOCK_RECORD
  5
7B
330
1
100
AcDbSymbolTableRecord
100
AcDbBlockTableRecord
  2
Hall Sensor-6
 70
    0
280
    1
281
    0
  0
BLOCK_RECORD
  5
7E
330
1
100
AcDbSymbolTableRecord
100
AcDbBlockTableRecord
  2
Hall Sensor-7
 70
    0
280
    1
281
    0
  0
BLOCK_RECORD
  5
81
330
1
100
AcDbSymbolTableRecord
100
AcDbBlockTableRecord
  2
Hall Sensor-8
 70
    0
280
    1
281
    0
  0
BLOCK_RECORD
  5
84
330
1
100
AcDbSymbolTableRecord
100
AcDbBlockTableRecord
  2
Hall Sensor-9
 70
    0
280
    1
281
    0
  0
BLOCK_RECORD
  5
87
330
1
100
AcDbSymbolTableRecord
100
AcDbBlockTableRecord
  2
Hall Sensor-10
 70
    0
280
    1
281
    0
  0
BLOCK_RECORD
  5
8A
330
1
100
AcDbSymbolTableRecord
100
AcDbBlockTableRecord
  2
Hall Sensor-11
 70
    0
280
    1
281
    0
  0
BLOCK_RECORD
  5
8D
330
1
100
AcDbSymbolTableRecord
100
AcDbBlockTableRecord
  2
Hall Sensor-12
 70
    0
280
    1
281
    0
  0
BLOCK_RECORD
  5
90
330
1
100
AcDbSymbolTableRecord
100
AcDbBlockTableRecord
  2
Hall Sensor-13
 70
    0
280
    1
281
    0
  0
BLOCK_RECORD
  5
93
330
1
100
AcDbSymbolTableRecord
100
AcDbBlockTableRecord
  2
Hall Sensor-14
 70
    0
280
    1
281
    0
  0
BLOCK_RECORD
  5
96
330
1
100
AcDbSymbolTableRecord
100
AcDbBlockTableRecord
  2
Hall Sensor-15
 70
    0
280
    1
281
    0
  0
BLOCK_RECORD
  5
99
330
1
100
AcDbSymbolTableRecord
100
AcDbBlockTableRecord
  2
Connector 16pin
 70
    0
280
    1
281
    0
  0
BLOCK_RECORD
  5
9C
330
1
100
AcDbSymbolTableRecord
100
AcDbBlockTableRecord
  2
Connector 16pin-0
 70
    0
280
    1
281
    0
  0
BLOCK_RECORD
  5
9F
330
1
100
AcDbSymbolTableRecord
100
AcDbBlockTableRecord
  2
c1
 70
    0
280
    1
281
    0
  0
BLOCK_RECORD
  5
A2
330
1
100
AcDbSymbolTableRecord
100
AcDbBlockTableRecord
  2
c1-0
 70
    0
280
    1
281
    0
  0
BLOCK_RECORD
  5
A5
330
1
100
AcDbSymbolTableRecord
100
AcDbBlockTableRecord
  2
Resistor-0
 70
    0
280
    1
281
    0
  0
BLOCK_RECORD
  5
A8
330
1
100
AcDbSymbolTableRecord
100
AcDbBlockTableRecord
  2
Resistor-1
 70
    0
280
    1
281
    0
  0
BLOCK_RECORD
  5
AB
330
1
100
AcDbSymbolTableRecord
100
AcDbBlockTableRecord
  2
Resistor-2
 70
    0
280
    1
281
    0
  0
BLOCK_RECORD
  5
AE
330
1
100
AcDbSymbolTableRecord
100
AcDbBlockTableRecord
  2
Resistor-3
 70
    0
280
    1
281
    0
  0
BLOCK_RECORD
  5
B1
330
1
100
AcDbSymbolTableRecord
100
AcDbBlockTableRecord
  2
Resistor-4
 70
    0
280
    1
281
    0
  0
BLOCK_RECORD
  5
B4
330
1
100
AcDbSymbolTableRecord
100
AcDbBlockTableRecord
  2
Resistor-5
 70
    0
280
    1
281
    0
  0
BLOCK_RECORD
  5
B7
330
1
100
AcDbSymbolTableRecord
100
AcDbBlockTableRecord
  2
Resistor-6
 70
    0
280
    1
281
    0
  0
BLOCK_RECORD
  5
BA
330
1
100
AcDbSymbolTableRecord
100
AcDbBlockTableRecord
  2
Resistor-7
 70
    0
280
    1
281
    0
  0
BLOCK_RECORD
  5
BD
330
1
100
AcDbSymbolTableRecord
100
AcDbBlockTableRecord
  2
Resistor-8
 70
    0
280
    1
281
    0
  0
BLOCK_RECORD
  5
C0
330
1
100
AcDbSymbolTableRecord
100
AcDbBlockTableRecord
  2
Resistor-9
 70
    0
280
    1
281
    0
  0
BLOCK_RECORD
  5
C3
330
1
100
AcDbSymbolTableRecord
100
AcDbBlockTableRecord
  2
Resistor-10
 70
    0
280
    1
281
    0
  0
ENDTAB
  0
ENDSEC
  0
SECTION
  2
BLOCKS
  0
BLOCK
  5
20
330
1F
100
AcDbEntity
  8
0
100
AcDbBlockBegin
  2
*Model_Space
 70
    0
 10
0
 20
0
 30
0
  3
*Model_Space
  1

  0
ENDBLK
  5
21
330
1F
100
AcDbEntity
  8
0
100
AcDbBlockEnd
  0
BLOCK
  5
1C
330
1B
100
AcDbEntity
  8
0
100
AcDbBlockBegin
  2
*Paper_Space
 70
    0
 10
0
 20
0
 30
0
  3
*Paper_Space
  1

  0
ENDBLK
  5
1D
330
1F
100
AcDbEntity
  8
0
100
AcDbBlockEnd
  0
BLOCK
  5
55
330
54
100
AcDbEntity
  8
0
100
AcDbBlockBegin
  2
MEGA2560r3 Block
 70
    0
 10
0
 20
0
  3
MEGA2560r3 Block
  1

  0
ENDBLK
  5
56
330
54
100
AcDbEntity
  8
0
100
AcDbBlockEnd
  0
BLOCK
  5
58
330
57
100
AcDbEntity
  8
0
100
AcDbBlockBegin
  2
PSU Block
 70
    0
 10
0
 20
0
  3
PSU Block
  1

  0
ENDBLK
  5
59
330
57
100
AcDbEntity
  8
0
100
AcDbBlockEnd
  0
BLOCK
  5
5B
330
5A
100
AcDbEntity
  8
0
100
AcDbBlockBegin
  2
VOLT SELECTOR Block
 70
    0
 10
0
 20
0
  3
VOLT SELECTOR Block
  1

  0
ENDBLK
  5
5C
330
5A
100
AcDbEntity
  8
0
100
AcDbBlockEnd
  0
BLOCK
  5
5E
330
5D
100
AcDbEntity
  8
0
100
AcDbBlockBegin
  2
CDB block
 70
    0
 10
0
 20
0
  3
CDB block
  1

  0
ENDBLK
  5
5F
330
5D
100
AcDbEntity
  8
0
100
AcDbBlockEnd
  0
BLOCK
  5
61
330
60
100
AcDbEntity
  8
0
100
AcDbBlockBegin
  2
Sensor Array block
 70
    0
 10
0
 20
0
  3
Sensor Array block
  1

  0
ENDBLK
  5
62
330
60
100
AcDbEntity
  8
0
100
AcDbBlockEnd
  0
BLOCK
  5
64
330
63
100
AcDbEntity
  8
0
100
AcDbBlockBegin
  2
Resistor
 70
    0
 10
0
 20
0
  3
Resistor
  1

  0
LINE
  5
C6
100
AcDbEntity
  8
Component
  6
ByLayer
 62
  256
370
   -1
100
AcDbLine
 10
0
 20
0
 11
2.5
 21
0
  0
LINE
  5
C7
100
AcDbEntity
  8
Component
  6
ByLayer
 62
  256
370
   -1
100
AcDbLine
 10
2.5
 20
1
 11
2.5
 21
-1
  0
LINE
  5
C8
100
AcDbEntity
  8
Component
  6
ByLayer
 62
  256
370
   -1
100
AcDbLine
 10
7.5
 20
1
 11
7.5
 21
-1
  0
LINE
  5
C9
100
AcDbEntity
  8
Component
  6
ByLayer
 62
  256
370
   -1
100
AcDbLine
 10
2.5
 20
-1
 11
7.5
 21
-1
  0
LINE
  5
CA
100
AcDbEntity
  8
Component
  6
ByLayer
 62
  256
370
   -1
100
AcDbLine
 10
2.5
 20
1
 11
7.5
 21
1
  0
LINE
  5
CB
100
AcDbEntity
  8
Component
  6
ByLayer
 62
  256
370
   -1
100
AcDbLine
 10
7.5
 20
0
 11
10
 21
0
  0
ENDBLK
  5
65
330
63
100
AcDbEntity
  8
0
100
AcDbBlockEnd
  0
BLOCK
  5
67
330
66
100
AcDbEntity
  8
0
100
AcDbBlockBegin
  2
Hall Sensor
 70
    0
 10
0
 20
0
  3
Hall Sensor
  1

  0
LINE
  5
CC
100
AcDbEntity
  8
Component
  6
ByLayer
 62
  256
370
   -1
100
AcDbLine
 10
15
 20
-5
 11
5
 21
-5
  0
LINE
  5
CD
100
AcDbEntity
  8
Component
  6
ByLayer
 62
  256
370
   -1
100
AcDbLine
 10
5
 20
-5
 11
5
 21
5
  0
LINE
  5
CE
100
AcDbEntity
  8
Component
  6
ByLayer
 62
  256
370
   -1
100
AcDbLine
 10
5
 20
5
 11
15
 21
5
  0
LINE
  5
CF
100
AcDbEntity
  8
Component
  6
ByLayer
 62
  256
370
   -1
100
AcDbLine
 10
15
 20
5
 11
15
 21
-5
  0
LINE
  5
D0
100
AcDbEntity
  8
Component
  6
ByLayer
 62
  256
370
   -1
100
AcDbLine
 10
5
 20
0
 11
0
 21
0
  0
LINE
  5
D1
100
AcDbEntity
  8
Component
  6
ByLayer
 62
  256
370
   -1
100
AcDbLine
 10
15
 20
0
 11
20
 21
0
  0
LINE
  5
D2
100
AcDbEntity
  8
Component
  6
ByLayer
 62
  256
370
   -1
100
AcDbLine
 10
13
 20
-3
 11
7
 21
3
  0
LINE
  5
D3
100
AcDbEntity
  8
Component
  6
ByLayer
 62
  256
370
   -1
100
AcDbLine
 10
7
 20
-3
 11
13
 21
3
  0
ENDBLK
  5
68
330
66
100
AcDbEntity
  8
0
100
AcDbBlockEnd
  0
BLOCK
  5
6A
330
69
100
AcDbEntity
  8
0
100
AcDbBlockBegin
  2
Hall Sensor-0
 70
    0
 10
0
 20
0
  3
Hall Sensor-0
  1

  0
LINE
  5
D4
100
AcDbEntity
  8
Component
  6
ByLayer
 62
  256
370
   -1
100
AcDbLine
 10
15
 20
-5
 11
5
 21
-5
  0
LINE
  5
D5
100
AcDbEntity
  8
Component
  6
ByLayer
 62
  256
370
   -1
100
AcDbLine
 10
5
 20
-5
 11
5
 21
5
  0
LINE
  5
D6
100
AcDbEntity
  8
Component
  6
ByLayer
 62
  256
370
   -1
100
AcDbLine
 10
5
 20
5
 11
15
 21
5
  0
LINE
  5
D7
100
AcDbEntity
  8
Component
  6
ByLayer
 62
  256
370
   -1
100
AcDbLine
 10
15
 20
5
 11
15
 21
-5
  0
LINE
  5
D8
100
AcDbEntity
  8
Component
  6
ByLayer
 62
  256
370
   -1
100
AcDbLine
 10
5
 20
0
 11
0
 21
0
  0
LINE
  5
D9
100
AcDbEntity
  8
Component
  6
ByLayer
 62
  256
370
   -1
100
AcDbLine
 10
15
 20
0
 11
20
 21
0
  0
LINE
  5
DA
100
AcDbEntity
  8
Component
  6
ByLayer
 62
  256
370
   -1
100
AcDbLine
 10
13
 20
-3
 11
7
 21
3
  0
LINE
  5
DB
100
AcDbEntity
  8
Component
  6
ByLayer
 62
  256
370
   -1
100
AcDbLine
 10
7
 20
-3
 11
13
 21
3
  0
ENDBLK
  5
6B
330
69
100
AcDbEntity
  8
0
100
AcDbBlockEnd
  0
BLOCK
  5
6D
330
6C
100
AcDbEntity
  8
0
100
AcDbBlockBegin
  2
Hall Sensor-1
 70
    0
 10
0
 20
0
  3
Hall Sensor-1
  1

  0
LINE
  5
DC
100
AcDbEntity
  8
Component
  6
ByLayer
 62
  256
370
   -1
100
AcDbLine
 10
15
 20
-5
 11
5
 21
-5
  0
LINE
  5
DD
100
AcDbEntity
  8
Component
  6
ByLayer
 62
  256
370
   -1
100
AcDbLine
 10
5
 20
-5
 11
5
 21
5
  0
LINE
  5
DE
100
AcDbEntity
  8
Component
  6
ByLayer
 62
  256
370
   -1
100
AcDbLine
 10
5
 20
5
 11
15
 21
5
  0
LINE
  5
DF
100
AcDbEntity
  8
Component
  6
ByLayer
 62
  256
370
   -1
100
AcDbLine
 10
15
 20
5
 11
15
 21
-5
  0
LINE
  5
E0
100
AcDbEntity
  8
Component
  6
ByLayer
 62
  256
370
   -1
100
AcDbLine
 10
5
 20
0
 11
0
 21
0
  0
LINE
  5
E1
100
AcDbEntity
  8
Component
  6
ByLayer
 62
  256
370
   -1
100
AcDbLine
 10
15
 20
0
 11
20
 21
0
  0
LINE
  5
E2
100
AcDbEntity
  8
Component
  6
ByLayer
 62
  256
370
   -1
100
AcDbLine
 10
13
 20
-3
 11
7
 21
3
  0
LINE
  5
E3
100
AcDbEntity
  8
Component
  6
ByLayer
 62
  256
370
   -1
100
AcDbLine
 10
7
 20
-3
 11
13
 21
3
  0
ENDBLK
  5
6E
330
6C
100
AcDbEntity
  8
0
100
AcDbBlockEnd
  0
BLOCK
  5
70
330
6F
100
AcDbEntity
  8
0
100
AcDbBlockBegin
  2
Hall Sensor-2
 70
    0
 10
0
 20
0
  3
Hall Sensor-2
  1

  0
LINE
  5
E4
100
AcDbEntity
  8
Component
  6
ByLayer
 62
  256
370
   -1
100
AcDbLine
 10
15
 20
-5
 11
5
 21
-5
  0
LINE
  5
E5
100
AcDbEntity
  8
Component
  6
ByLayer
 62
  256
370
   -1
100
AcDbLine
 10
5
 20
-5
 11
5
 21
5
  0
LINE
  5
E6
100
AcDbEntity
  8
Component
  6
ByLayer
 62
  256
370
   -1
100
AcDbLine
 10
5
 20
5
 11
15
 21
5
  0
LINE
  5
E7
100
AcDbEntity
  8
Component
  6
ByLayer
 62
  256
370
   -1
100
AcDbLine
 10
15
 20
5
 11
15
 21
-5
  0
LINE
  5
E8
100
AcDbEntity
  8
Component
  6
ByLayer
 62
  256
370
   -1
100
AcDbLine
 10
5
 20
0
 11
0
 21
0
  0
LINE
  5
E9
100
AcDbEntity
  8
Component
  6
ByLayer
 62
  256
370
   -1
100
AcDbLine
 10
15
 20
0
 11
20
 21
0
  0
LINE
  5
EA
100
AcDbEntity
  8
Component
  6
ByLayer
 62
  256
370
   -1
100
AcDbLine
 10
13
 20
-3
 11
7
 21
3
  0
LINE
  5
EB
100
AcDbEntity
  8
Component
  6
ByLayer
 62
  256
370
   -1
100
AcDbLine
 10
7
 20
-3
 11
13
 21
3
  0
ENDBLK
  5
71
330
6F
100
AcDbEntity
  8
0
100
AcDbBlockEnd
  0
BLOCK
  5
73
330
72
100
AcDbEntity
  8
0
100
AcDbBlockBegin
  2
Hall Sensor-3
 70
    0
 10
0
 20
0
  3
Hall Sensor-3
  1

  0
LINE
  5
EC
100
AcDbEntity
  8
Component
  6
ByLayer
 62
  256
370
   -1
100
AcDbLine
 10
15
 20
-5
 11
5
 21
-5
  0
LINE
  5
ED
100
AcDbEntity
  8
Component
  6
ByLayer
 62
  256
370
   -1
100
AcDbLine
 10
5
 20
-5
 11
5
 21
5
  0
LINE
  5
EE
100
AcDbEntity
  8
Component
  6
ByLayer
 62
  256
370
   -1
100
AcDbLine
 10
5
 20
5
 11
15
 21
5
  0
LINE
  5
EF
100
AcDbEntity
  8
Component
  6
ByLayer
 62
  256
370
   -1
100
AcDbLine
 10
15
 20
5
 11
15
 21
-5
  0
LINE
  5
F0
100
AcDbEntity
  8
Component
  6
ByLayer
 62
  256
370
   -1
100
AcDbLine
 10
5
 20
0
 11
0
 21
0
  0
LINE
  5
F1
100
AcDbEntity
  8
Component
  6
ByLayer
 62
  256
370
   -1
100
AcDbLine
 10
15
 20
0
 11
20
 21
0
  0
LINE
  5
F2
100
AcDbEntity
  8
Component
  6
ByLayer
 62
  256
370
   -1
100
AcDbLine
 10
13
 20
-3
 11
7
 21
3
  0
LINE
  5
F3
100
AcDbEntity
  8
Component
  6
ByLayer
 62
  256
370
   -1
100
AcDbLine
 10
7
 20
-3
 11
13
 21
3
  0
ENDBLK
  5
74
330
72
100
AcDbEntity
  8
0
100
AcDbBlockEnd
  0
BLOCK
  5
76
330
75
100
AcDbEntity
  8
0
100
AcDbBlockBegin
  2
Hall Sensor-4
 70
    0
 10
0
 20
0
  3
Hall Sensor-4
  1

  0
LINE
  5
F4
100
AcDbEntity
  8
Component
  6
ByLayer
 62
  256
370
   -1
100
AcDbLine
 10
15
 20
-5
 11
5
 21
-5
  0
LINE
  5
F5
100
AcDbEntity
  8
Component
  6
ByLayer
 62
  256
370
   -1
100
AcDbLine
 10
5
 20
-5
 11
5
 21
5
  0
LINE
  5
F6
100
AcDbEntity
  8
Component
  6
ByLayer
 62
  256
370
   -1
100
AcDbLine
 10
5
 20
5
 11
15
 21
5
  0
LINE
  5
F7
100
AcDbEntity
  8
Component
  6
ByLayer
 62
  256
370
   -1
100
AcDbLine
 10
15
 20
5
 11
15
 21
-5
  0
LINE
  5
F8
100
AcDbEntity
  8
Component
  6
ByLayer
 62
  256
370
   -1
100
AcDbLine
 10
5
 20
0
 11
0
 21
0
  0
LINE
  5
F9
100
AcDbEntity
  8
Component
  6
ByLayer
 62
  256
370
   -1
100
AcDbLine
 10
15
 20
0
 11
20
 21
0
  0
LINE
  5
FA
100
AcDbEntity
  8
Component
  6
ByLayer
 62
  256
370
   -1
100
AcDbLine
 10
13
 20
-3
 11
7
 21
3
  0
LINE
  5
FB
100
AcDbEntity
  8
Component
  6
ByLayer
 62
  256
370
   -1
100
AcDbLine
 10
7
 20
-3
 11
13
 21
3
  0
ENDBLK
  5
77
330
75
100
AcDbEntity
  8
0
100
AcDbBlockEnd
  0
BLOCK
  5
79
330
78
100
AcDbEntity
  8
0
100
AcDbBlockBegin
  2
Hall Sensor-5
 70
    0
 10
0
 20
0
  3
Hall Sensor-5
  1

  0
LINE
  5
FC
100
AcDbEntity
  8
Component
  6
ByLayer
 62
  256
370
   -1
100
AcDbLine
 10
15
 20
-5
 11
5
 21
-5
  0
LINE
  5
FD
100
AcDbEntity
  8
Component
  6
ByLayer
 62
  256
370
   -1
100
AcDbLine
 10
5
 20
-5
 11
5
 21
5
  0
LINE
  5
FE
100
AcDbEntity
  8
Component
  6
ByLayer
 62
  256
370
   -1
100
AcDbLine
 10
5
 20
5
 11
15
 21
5
  0
LINE
  5
FF
100
AcDbEntity
  8
Component
  6
ByLayer
 62
  256
370
   -1
100
AcDbLine
 10
15
 20
5
 11
15
 21
-5
  0
LINE
  5
100
100
AcDbEntity
  8
Component
  6
ByLayer
 62
  256
370
   -1
100
AcDbLine
 10
5
 20
0
 11
0
 21
0
  0
LINE
  5
101
100
AcDbEntity
  8
Component
  6
ByLayer
 62
  256
370
   -1
100
AcDbLine
 10
15
 20
0
 11
20
 21
0
  0
LINE
  5
102
100
AcDbEntity
  8
Component
  6
ByLayer
 62
  256
370
   -1
100
AcDbLine
 10
13
 20
-3
 11
7
 21
3
  0
LINE
  5
103
100
AcDbEntity
  8
Component
  6
ByLayer
 62
  256
370
   -1
100
AcDbLine
 10
7
 20
-3
 11
13
 21
3
  0
ENDBLK
  5
7A
330
78
100
AcDbEntity
  8
0
100
AcDbBlockEnd
  0
BLOCK
  5
7C
330
7B
100
AcDbEntity
  8
0
100
AcDbBlockBegin
  2
Hall Sensor-6
 70
    0
 10
0
 20
0
  3
Hall Sensor-6
  1

  0
LINE
  5
104
100
AcDbEntity
  8
Component
  6
ByLayer
 62
  256
370
   -1
100
AcDbLine
 10
15
 20
-5
 11
5
 21
-5
  0
LINE
  5
105
100
AcDbEntity
  8
Component
  6
ByLayer
 62
  256
370
   -1
100
AcDbLine
 10
5
 20
-5
 11
5
 21
5
  0
LINE
  5
106
100
AcDbEntity
  8
Component
  6
ByLayer
 62
  256
370
   -1
100
AcDbLine
 10
5
 20
5
 11
15
 21
5
  0
LINE
  5
107
100
AcDbEntity
  8
Component
  6
ByLayer
 62
  256
370
   -1
100
AcDbLine
 10
15
 20
5
 11
15
 21
-5
  0
LINE
  5
108
100
AcDbEntity
  8
Component
  6
ByLayer
 62
  256
370
   -1
100
AcDbLine
 10
5
 20
0
 11
0
 21
0
  0
LINE
  5
109
100
AcDbEntity
  8
Component
  6
ByLayer
 62
  256
370
   -1
100
AcDbLine
 10
15
 20
0
 11
20
 21
0
  0
LINE
  5
10A
100
AcDbEntity
  8
Component
  6
ByLayer
 62
  256
370
   -1
100
AcDbLine
 10
13
 20
-3
 11
7
 21
3
  0
LINE
  5
10B
100
AcDbEntity
  8
Component
  6
ByLayer
 62
  256
370
   -1
100
AcDbLine
 10
7
 20
-3
 11
13
 21
3
  0
LINE
  5
10C
100
AcDbEntity
  8
0
  6
ByLayer
 62
  256
370
   -1
100
AcDbLine
 10
10
 20
-5
 11
10
 21
-10
  0
MTEXT
  5
10D
100
AcDbEntity
  8
0
  6
ByLayer
 62
  256
370
   -1
100
AcDbMText
 10
2
 20
1
 30
0
 40
1
 41
2
 71
    4
 72
    1
  1
Vcc
  7
STANDARD
210
0
220
0
230
1
 50
0
 73
    2
 44
1
  0
MTEXT
  5
10E
100
AcDbEntity
  8
0
  6
ByLayer
 62
  256
370
   -1
100
AcDbMText
 10
11
 20
-8
 30
0
 40
1
 41
2
 71
    4
 72
    1
  1
Out
  7
STANDARD
210
0
220
0
230
1
 50
0
 73
    2
 44
1
  0
MTEXT
  5
10F
100
AcDbEntity
  8
0
  6
ByLayer
 62
  256
370
   -1
100
AcDbMText
 10
16
 20
1
 30
0
 40
1
 41
2.11111111111122
 71
    4
 72
    1
  1
Gnd
  7
STANDARD
210
0
220
0
230
1
 50
0
 73
    2
 44
1
  0
ENDBLK
  5
7D
330
7B
100
AcDbEntity
  8
0
100
AcDbBlockEnd
  0
BLOCK
  5
7F
330
7E
100
AcDbEntity
  8
0
100
AcDbBlockBegin
  2
Hall Sensor-7
 70
    0
 10
0
 20
0
  3
Hall Sensor-7
  1

  0
LINE
  5
110
100
AcDbEntity
  8
Component
  6
ByLayer
 62
  256
370
   -1
100
AcDbLine
 10
15
 20
-5
 11
5
 21
-5
  0
LINE
  5
111
100
AcDbEntity
  8
Component
  6
ByLayer
 62
  256
370
   -1
100
AcDbLine
 10
5
 20
-5
 11
5
 21
5
  0
LINE
  5
112
100
AcDbEntity
  8
Component
  6
ByLayer
 62
  256
370
   -1
100
AcDbLine
 10
5
 20
5
 11
15
 21
5
  0
LINE
  5
113
100
AcDbEntity
  8
Component
  6
ByLayer
 62
  256
370
   -1
100
AcDbLine
 10
15
 20
5
 11
15
 21
-5
  0
LINE
  5
114
100
AcDbEntity
  8
Component
  6
ByLayer
 62
  256
370
   -1
100
AcDbLine
 10
5
 20
0
 11
0
 21
0
  0
LINE
  5
115
100
AcDbEntity
  8
Component
  6
ByLayer
 62
  256
370
   -1
100
AcDbLine
 10
15
 20
0
 11
20
 21
0
  0
LINE
  5
116
100
AcDbEntity
  8
Component
  6
ByLayer
 62
  256
370
   -1
100
AcDbLine
 10
13
 20
-3
 11
7
 21
3
  0
LINE
  5
117
100
AcDbEntity
  8
Component
  6
ByLayer
 62
  256
370
   -1
100
AcDbLine
 10
7
 20
-3
 11
13
 21
3
  0
LINE
  5
118
100
AcDbEntity
  8
0
  6
ByLayer
 62
  256
370
   -1
100
AcDbLine
 10
10
 20
-5
 11
10
 21
-10
  0
MTEXT
  5
119
100
AcDbEntity
  8
0
  6
ByLayer
 62
  256
370
   -1
100
AcDbMText
 10
2
 20
1
 30
0
 40
1
 41
2
 71
    4
 72
    1
  1
Vcc
  7
STANDARD
210
0
220
0
230
1
 50
0
 73
    2
 44
1
  0
MTEXT
  5
11A
100
AcDbEntity
  8
0
  6
ByLayer
 62
  256
370
   -1
100
AcDbMText
 10
11
 20
-8
 30
0
 40
1
 41
2
 71
    4
 72
    1
  1
Out
  7
STANDARD
210
0
220
0
230
1
 50
0
 73
    2
 44
1
  0
MTEXT
  5
11B
100
AcDbEntity
  8
0
  6
ByLayer
 62
  256
370
   -1
100
AcDbMText
 10
16
 20
1
 30
0
 40
1
 41
2.11111111111122
 71
    4
 72
    1
  1
Gnd
  7
STANDARD
210
0
220
0
230
1
 50
0
 73
    2
 44
1
  0
ENDBLK
  5
80
330
7E
100
AcDbEntity
  8
0
100
AcDbBlockEnd
  0
BLOCK
  5
82
330
81
100
AcDbEntity
  8
0
100
AcDbBlockBegin
  2
Hall Sensor-8
 70
    0
 10
0
 20
0
  3
Hall Sensor-8
  1

  0
LINE
  5
11C
100
AcDbEntity
  8
Component
  6
ByLayer
 62
  256
370
   -1
100
AcDbLine
 10
15
 20
-5
 11
5
 21
-5
  0
LINE
  5
11D
100
AcDbEntity
  8
Component
  6
ByLayer
 62
  256
370
   -1
100
AcDbLine
 10
5
 20
-5
 11
5
 21
5
  0
LINE
  5
11E
100
AcDbEntity
  8
Component
  6
ByLayer
 62
  256
370
   -1
100
AcDbLine
 10
5
 20
5
 11
15
 21
5
  0
LINE
  5
11F
100
AcDbEntity
  8
Component
  6
ByLayer
 62
  256
370
   -1
100
AcDbLine
 10
15
 20
5
 11
15
 21
-5
  0
LINE
  5
120
100
AcDbEntity
  8
Component
  6
ByLayer
 62
  256
370
   -1
100
AcDbLine
 10
5
 20
0
 11
0
 21
0
  0
LINE
  5
121
100
AcDbEntity
  8
Component
  6
ByLayer
 62
  256
370
   -1
100
AcDbLine
 10
15
 20
0
 11
20
 21
0
  0
LINE
  5
122
100
AcDbEntity
  8
Component
  6
ByLayer
 62
  256
370
   -1
100
AcDbLine
 10
13
 20
-3
 11
7
 21
3
  0
LINE
  5
123
100
AcDbEntity
  8
Component
  6
ByLayer
 62
  256
370
   -1
100
AcDbLine
 10
7
 20
-3
 11
13
 21
3
  0
LINE
  5
124
100
AcDbEntity
  8
0
  6
ByLayer
 62
  256
370
   -1
100
AcDbLine
 10
10
 20
-5
 11
10
 21
-10
  0
MTEXT
  5
125
100
AcDbEntity
  8
0
  6
ByLayer
 62
  256
370
   -1
100
AcDbMText
 10
2
 20
1
 30
0
 40
1
 41
2
 71
    4
 72
    1
  1
Vcc
  7
STANDARD
210
0
220
0
230
1
 50
0
 73
    2
 44
1
  0
MTEXT
  5
126
100
AcDbEntity
  8
0
  6
ByLayer
 62
  256
370
   -1
100
AcDbMText
 10
11
 20
-8
 30
0
 40
1
 41
2
 71
    4
 72
    1
  1
Out
  7
STANDARD
210
0
220
0
230
1
 50
0
 73
    2
 44
1
  0
MTEXT
  5
127
100
AcDbEntity
  8
0
  6
ByLayer
 62
  256
370
   -1
100
AcDbMText
 10
16
 20
1
 30
0
 40
1
 41
2.11111111111122
 71
    4
 72
    1
  1
Gnd
  7
STANDARD
210
0
220
0
230
1
 50
0
 73
    2
 44
1
  0
ENDBLK
  5
83
330
81
100
AcDbEntity
  8
0
100
AcDbBlockEnd
  0
BLOCK
  5
85
330
84
100
AcDbEntity
  8
0
100
AcDbBlockBegin
  2
Hall Sensor-9
 70
    0
 10
0
 20
0
  3
Hall Sensor-9
  1

  0
LINE
  5
128
100
AcDbEntity
  8
Component
  6
ByLayer
 62
  256
370
   -1
100
AcDbLine
 10
15
 20
-5
 11
5
 21
-5
  0
LINE
  5
129
100
AcDbEntity
  8
Component
  6
ByLayer
 62
  256
370
   -1
100
AcDbLine
 10
5
 20
-5
 11
5
 21
5
  0
LINE
  5
12A
100
AcDbEntity
  8
Component
  6
ByLayer
 62
  256
370
   -1
100
AcDbLine
 10
5
 20
5
 11
15
 21
5
  0
LINE
  5
12B
100
AcDbEntity
  8
Component
  6
ByLayer
 62
  256
370
   -1
100
AcDbLine
 10
15
 20
5
 11
15
 21
-5
  0
LINE
  5
12C
100
AcDbEntity
  8
Component
  6
ByLayer
 62
  256
370
   -1
100
AcDbLine
 10
5
 20
0
 11
0
 21
0
  0
LINE
  5
12D
100
AcDbEntity
  8
Component
  6
ByLayer
 62
  256
370
   -1
100
AcDbLine
 10
15
 20
0
 11
20
 21
0
  0
LINE
  5
12E
100
AcDbEntity
  8
Component
  6
ByLayer
 62
  256
370
   -1
100
AcDbLine
 10
13
 20
-3
 11
7
 21
3
  0
LINE
  5
12F
100
AcDbEntity
  8
Component
  6
ByLayer
 62
  256
370
   -1
100
AcDbLine
 10
7
 20
-3
 11
13
 21
3
  0
LINE
  5
130
100
AcDbEntity
  8
0
  6
ByLayer
 62
  256
370
   -1
100
AcDbLine
 10
10
 20
-5
 11
10
 21
-10
  0
MTEXT
  5
131
100
AcDbEntity
  8
0
  6
ByLayer
 62
  256
370
   -1
100
AcDbMText
 10
2
 20
1
 30
0
 40
1
 41
2
 71
    4
 72
    1
  1
Vcc
  7
STANDARD
210
0
220
0
230
1
 50
0
 73
    2
 44
1
  0
MTEXT
  5
132
100
AcDbEntity
  8
0
  6
ByLayer
 62
  256
370
   -1
100
AcDbMText
 10
11
 20
-8
 30
0
 40
1
 41
2
 71
    4
 72
    1
  1
Out
  7
STANDARD
210
0
220
0
230
1
 50
0
 73
    2
 44
1
  0
MTEXT
  5
133
100
AcDbEntity
  8
0
  6
ByLayer
 62
  256
370
   -1
100
AcDbMText
 10
16
 20
1
 30
0
 40
1
 41
2.11111111111122
 71
    4
 72
    1
  1
Gnd
  7
STANDARD
210
0
220
0
230
1
 50
0
 73
    2
 44
1
  0
ENDBLK
  5
86
330
84
100
AcDbEntity
  8
0
100
AcDbBlockEnd
  0
BLOCK
  5
88
330
87
100
AcDbEntity
  8
0
100
AcDbBlockBegin
  2
Hall Sensor-10
 70
    0
 10
0
 20
0
  3
Hall Sensor-10
  1

  0
LINE
  5
134
100
AcDbEntity
  8
Component
  6
ByLayer
 62
  256
370
   -1
100
AcDbLine
 10
15
 20
-5
 11
5
 21
-5
  0
LINE
  5
135
100
AcDbEntity
  8
Component
  6
ByLayer
 62
  256
370
   -1
100
AcDbLine
 10
5
 20
-5
 11
5
 21
5
  0
LINE
  5
136
100
AcDbEntity
  8
Component
  6
ByLayer
 62
  256
370
   -1
100
AcDbLine
 10
5
 20
5
 11
15
 21
5
  0
LINE
  5
137
100
AcDbEntity
  8
Component
  6
ByLayer
 62
  256
370
   -1
100
AcDbLine
 10
15
 20
5
 11
15
 21
-5
  0
LINE
  5
138
100
AcDbEntity
  8
Component
  6
ByLayer
 62
  256
370
   -1
100
AcDbLine
 10
5
 20
0
 11
0
 21
0
  0
LINE
  5
139
100
AcDbEntity
  8
Component
  6
ByLayer
 62
  256
370
   -1
100
AcDbLine
 10
15
 20
0
 11
20
 21
0
  0
LINE
  5
13A
100
AcDbEntity
  8
Component
  6
ByLayer
 62
  256
370
   -1
100
AcDbLine
 10
13
 20
-3
 11
7
 21
3
  0
LINE
  5
13B
100
AcDbEntity
  8
Component
  6
ByLayer
 62
  256
370
   -1
100
AcDbLine
 10
7
 20
-3
 11
13
 21
3
  0
LINE
  5
13C
100
AcDbEntity
  8
0
  6
ByLayer
 62
  256
370
   -1
100
AcDbLine
 10
10
 20
-5
 11
10
 21
-10
  0
MTEXT
  5
13D
100
AcDbEntity
  8
0
  6
ByLayer
 62
  256
370
   -1
100
AcDbMText
 10
2
 20
1
 30
0
 40
1
 41
2
 71
    4
 72
    1
  1
Vcc
  7
STANDARD
210
0
220
0
230
1
 50
0
 73
    2
 44
1
  0
MTEXT
  5
13E
100
AcDbEntity
  8
0
  6
ByLayer
 62
  256
370
   -1
100
AcDbMText
 10
11
 20
-8
 30
0
 40
1
 41
2
 71
    4
 72
    1
  1
Out
  7
STANDARD
210
0
220
0
230
1
 50
0
 73
    2
 44
1
  0
MTEXT
  5
13F
100
AcDbEntity
  8
0
  6
ByLayer
 62
  256
370
   -1
100
AcDbMText
 10
16
 20
1
 30
0
 40
1
 41
2.11111111111122
 71
    4
 72
    1
  1
Gnd
  7
STANDARD
210
0
220
0
230
1
 50
0
 73
    2
 44
1
  0
ENDBLK
  5
89
330
87
100
AcDbEntity
  8
0
100
AcDbBlockEnd
  0
BLOCK
  5
8B
330
8A
100
AcDbEntity
  8
0
100
AcDbBlockBegin
  2
Hall Sensor-11
 70
    0
 10
0
 20
0
  3
Hall Sensor-11
  1

  0
LINE
  5
140
100
AcDbEntity
  8
Component
  6
ByLayer
 62
  256
370
   -1
100
AcDbLine
 10
15
 20
-5
 11
5
 21
-5
  0
LINE
  5
141
100
AcDbEntity
  8
Component
  6
ByLayer
 62
  256
370
   -1
100
AcDbLine
 10
5
 20
-5
 11
5
 21
5
  0
LINE
  5
142
100
AcDbEntity
  8
Component
  6
ByLayer
 62
  256
370
   -1
100
AcDbLine
 10
5
 20
5
 11
15
 21
5
  0
LINE
  5
143
100
AcDbEntity
  8
Component
  6
ByLayer
 62
  256
370
   -1
100
AcDbLine
 10
15
 20
5
 11
15
 21
-5
  0
LINE
  5
144
100
AcDbEntity
  8
Component
  6
ByLayer
 62
  256
370
   -1
100
AcDbLine
 10
5
 20
0
 11
0
 21
0
  0
LINE
  5
145
100
AcDbEntity
  8
Component
  6
ByLayer
 62
  256
370
   -1
100
AcDbLine
 10
15
 20
0
 11
20
 21
0
  0
LINE
  5
146
100
AcDbEntity
  8
Component
  6
ByLayer
 62
  256
370
   -1
100
AcDbLine
 10
13
 20
-3
 11
7
 21
3
  0
LINE
  5
147
100
AcDbEntity
  8
Component
  6
ByLayer
 62
  256
370
   -1
100
AcDbLine
 10
7
 20
-3
 11
13
 21
3
  0
LINE
  5
148
100
AcDbEntity
  8
0
  6
ByLayer
 62
  256
370
   -1
100
AcDbLine
 10
10
 20
-5
 11
10
 21
-10
  0
MTEXT
  5
149
100
AcDbEntity
  8
0
  6
ByLayer
 62
  256
370
   -1
100
AcDbMText
 10
2
 20
1
 30
0
 40
1
 41
2
 71
    4
 72
    1
  1
Vcc
  7
STANDARD
210
0
220
0
230
1
 50
0
 73
    2
 44
1
  0
MTEXT
  5
14A
100
AcDbEntity
  8
0
  6
ByLayer
 62
  256
370
   -1
100
AcDbMText
 10
11
 20
-8
 30
0
 40
1
 41
2
 71
    4
 72
    1
  1
Out
  7
STANDARD
210
0
220
0
230
1
 50
0
 73
    2
 44
1
  0
MTEXT
  5
14B
100
AcDbEntity
  8
0
  6
ByLayer
 62
  256
370
   -1
100
AcDbMText
 10
16
 20
1
 30
0
 40
1
 41
2.11111111111122
 71
    4
 72
    1
  1
Gnd
  7
STANDARD
210
0
220
0
230
1
 50
0
 73
    2
 44
1
  0
ENDBLK
  5
8C
330
8A
100
AcDbEntity
  8
0
100
AcDbBlockEnd
  0
BLOCK
  5
8E
330
8D
100
AcDbEntity
  8
0
100
AcDbBlockBegin
  2
Hall Sensor-12
 70
    0
 10
0
 20
0
  3
Hall Sensor-12
  1

  0
LINE
  5
14C
100
AcDbEntity
  8
Component
  6
ByLayer
 62
  256
370
   -1
100
AcDbLine
 10
15
 20
-5
 11
5
 21
-5
  0
LINE
  5
14D
100
AcDbEntity
  8
Component
  6
ByLayer
 62
  256
370
   -1
100
AcDbLine
 10
5
 20
-5
 11
5
 21
5
  0
LINE
  5
14E
100
AcDbEntity
  8
Component
  6
ByLayer
 62
  256
370
   -1
100
AcDbLine
 10
5
 20
5
 11
15
 21
5
  0
LINE
  5
14F
100
AcDbEntity
  8
Component
  6
ByLayer
 62
  256
370
   -1
100
AcDbLine
 10
15
 20
5
 11
15
 21
-5
  0
LINE
  5
150
100
AcDbEntity
  8
Component
  6
ByLayer
 62
  256
370
   -1
100
AcDbLine
 10
5
 20
0
 11
0
 21
0
  0
LINE
  5
151
100
AcDbEntity
  8
Component
  6
ByLayer
 62
  256
370
   -1
100
AcDbLine
 10
15
 20
0
 11
20
 21
0
  0
LINE
  5
152
100
AcDbEntity
  8
Component
  6
ByLayer
 62
  256
370
   -1
100
AcDbLine
 10
13
 20
-3
 11
7
 21
3
  0
LINE
  5
153
100
AcDbEntity
  8
Component
  6
ByLayer
 62
  256
370
   -1
100
AcDbLine
 10
7
 20
-3
 11
13
 21
3
  0
LINE
  5
154
100
AcDbEntity
  8
0
  6
ByLayer
 62
  256
370
   -1
100
AcDbLine
 10
10
 20
-5
 11
10
 21
-10
  0
MTEXT
  5
155
100
AcDbEntity
  8
0
  6
ByLayer
 62
  256
370
   -1
100
AcDbMText
 10
2
 20
1
 30
0
 40
1
 41
2
 71
    4
 72
    1
  1
Vcc
  7
STANDARD
210
0
220
0
230
1
 50
0
 73
    2
 44
1
  0
MTEXT
  5
156
100
AcDbEntity
  8
0
  6
ByLayer
 62
  256
370
   -1
100
AcDbMText
 10
11
 20
-8
 30
0
 40
1
 41
2
 71
    4
 72
    1
  1
Out
  7
STANDARD
210
0
220
0
230
1
 50
0
 73
    2
 44
1
  0
MTEXT
  5
157
100
AcDbEntity
  8
0
  6
ByLayer
 62
  256
370
   -1
100
AcDbMText
 10
16
 20
1
 30
0
 40
1
 41
2.11111111111122
 71
    4
 72
    1
  1
Gnd
  7
STANDARD
210
0
220
0
230
1
 50
0
 73
    2
 44
1
  0
ENDBLK
  5
8F
330
8D
100
AcDbEntity
  8
0
100
AcDbBlockEnd
  0
BLOCK
  5
91
330
90
100
AcDbEntity
  8
0
100
AcDbBlockBegin
  2
Hall Sensor-13
 70
    0
 10
0
 20
0
  3
Hall Sensor-13
  1

  0
LINE
  5
158
100
AcDbEntity
  8
Component
  6
ByLayer
 62
  256
370
   -1
100
AcDbLine
 10
15
 20
-5
 11
5
 21
-5
  0
LINE
  5
159
100
AcDbEntity
  8
Component
  6
ByLayer
 62
  256
370
   -1
100
AcDbLine
 10
5
 20
-5
 11
5
 21
5
  0
LINE
  5
15A
100
AcDbEntity
  8
Component
  6
ByLayer
 62
  256
370
   -1
100
AcDbLine
 10
5
 20
5
 11
15
 21
5
  0
LINE
  5
15B
100
AcDbEntity
  8
Component
  6
ByLayer
 62
  256
370
   -1
100
AcDbLine
 10
15
 20
5
 11
15
 21
-5
  0
LINE
  5
15C
100
AcDbEntity
  8
Component
  6
ByLayer
 62
  256
370
   -1
100
AcDbLine
 10
5
 20
0
 11
0
 21
0
  0
LINE
  5
15D
100
AcDbEntity
  8
Component
  6
ByLayer
 62
  256
370
   -1
100
AcDbLine
 10
15
 20
0
 11
20
 21
0
  0
LINE
  5
15E
100
AcDbEntity
  8
Component
  6
ByLayer
 62
  256
370
   -1
100
AcDbLine
 10
13
 20
-3
 11
7
 21
3
  0
LINE
  5
15F
100
AcDbEntity
  8
Component
  6
ByLayer
 62
  256
370
   -1
100
AcDbLine
 10
7
 20
-3
 11
13
 21
3
  0
LINE
  5
160
100
AcDbEntity
  8
0
  6
ByLayer
 62
  256
370
   -1
100
AcDbLine
 10
10
 20
-5
 11
10
 21
-10
  0
MTEXT
  5
161
100
AcDbEntity
  8
0
  6
ByLayer
 62
  256
370
   -1
100
AcDbMText
 10
2
 20
1
 30
0
 40
1
 41
2
 71
    4
 72
    1
  1
Vcc
  7
STANDARD
210
0
220
0
230
1
 50
0
 73
    2
 44
1
  0
MTEXT
  5
162
100
AcDbEntity
  8
0
  6
ByLayer
 62
  256
370
   -1
100
AcDbMText
 10
11
 20
-8
 30
0
 40
1
 41
2
 71
    4
 72
    1
  1
Out
  7
STANDARD
210
0
220
0
230
1
 50
0
 73
    2
 44
1
  0
MTEXT
  5
163
100
AcDbEntity
  8
0
  6
ByLayer
 62
  256
370
   -1
100
AcDbMText
 10
16
 20
1
 30
0
 40
1
 41
2.11111111111122
 71
    4
 72
    1
  1
Gnd
  7
STANDARD
210
0
220
0
230
1
 50
0
 73
    2
 44
1
  0
ENDBLK
  5
92
330
90
100
AcDbEntity
  8
0
100
AcDbBlockEnd
  0
BLOCK
  5
94
330
93
100
AcDbEntity
  8
0
100
AcDbBlockBegin
  2
Hall Sensor-14
 70
    0
 10
0
 20
0
  3
Hall Sensor-14
  1

  0
LINE
  5
164
100
AcDbEntity
  8
Component
  6
ByLayer
 62
  256
370
   -1
100
AcDbLine
 10
15
 20
-5
 11
5
 21
-5
  0
LINE
  5
165
100
AcDbEntity
  8
Component
  6
ByLayer
 62
  256
370
   -1
100
AcDbLine
 10
5
 20
-5
 11
5
 21
5
  0
LINE
  5
166
100
AcDbEntity
  8
Component
  6
ByLayer
 62
  256
370
   -1
100
AcDbLine
 10
5
 20
5
 11
15
 21
5
  0
LINE
  5
167
100
AcDbEntity
  8
Component
  6
ByLayer
 62
  256
370
   -1
100
AcDbLine
 10
15
 20
5
 11
15
 21
-5
  0
LINE
  5
168
100
AcDbEntity
  8
Component
  6
ByLayer
 62
  256
370
   -1
100
AcDbLine
 10
5
 20
0
 11
0
 21
0
  0
LINE
  5
169
100
AcDbEntity
  8
Component
  6
ByLayer
 62
  256
370
   -1
100
AcDbLine
 10
15
 20
0
 11
20
 21
0
  0
LINE
  5
16A
100
AcDbEntity
  8
Component
  6
ByLayer
 62
  256
370
   -1
100
AcDbLine
 10
13
 20
-3
 11
7
 21
3
  0
LINE
  5
16B
100
AcDbEntity
  8
Component
  6
ByLayer
 62
  256
370
   -1
100
AcDbLine
 10
7
 20
-3
 11
13
 21
3
  0
LINE
  5
16C
100
AcDbEntity
  8
0
  6
ByLayer
 62
  256
370
   -1
100
AcDbLine
 10
10
 20
-5
 11
10
 21
-10
  0
MTEXT
  5
16D
100
AcDbEntity
  8
0
  6
ByLayer
 62
  256
370
   -1
100
AcDbMText
 10
2
 20
1
 30
0
 40
1
 41
2
 71
    4
 72
    1
  1
Vcc
  7
STANDARD
210
0
220
0
230
1
 50
0
 73
    2
 44
1
  0
MTEXT
  5
16E
100
AcDbEntity
  8
0
  6
ByLayer
 62
  256
370
   -1
100
AcDbMText
 10
11
 20
-8
 30
0
 40
1
 41
2
 71
    4
 72
    1
  1
Out
  7
STANDARD
210
0
220
0
230
1
 50
0
 73
    2
 44
1
  0
MTEXT
  5
16F
100
AcDbEntity
  8
0
  6
ByLayer
 62
  256
370
   -1
100
AcDbMText
 10
16
 20
1
 30
0
 40
1
 41
2.11111111111122
 71
    4
 72
    1
  1
Gnd
  7
STANDARD
210
0
220
0
230
1
 50
0
 73
    2
 44
1
  0
ENDBLK
  5
95
330
93
100
AcDbEntity
  8
0
100
AcDbBlockEnd
  0
BLOCK
  5
97
330
96
100
AcDbEntity
  8
0
100
AcDbBlockBegin
  2
Hall Sensor-15
 70
    0
 10
0
 20
0
  3
Hall Sensor-15
  1

  0
LINE
  5
170
100
AcDbEntity
  8
Component
  6
ByLayer
 62
  256
370
   -1
100
AcDbLine
 10
15
 20
-5
 11
5
 21
-5
  0
LINE
  5
171
100
AcDbEntity
  8
Component
  6
ByLayer
 62
  256
370
   -1
100
AcDbLine
 10
5
 20
-5
 11
5
 21
5
  0
LINE
  5
172
100
AcDbEntity
  8
Component
  6
ByLayer
 62
  256
370
   -1
100
AcDbLine
 10
5
 20
5
 11
15
 21
5
  0
LINE
  5
173
100
AcDbEntity
  8
Component
  6
ByLayer
 62
  256
370
   -1
100
AcDbLine
 10
15
 20
5
 11
15
 21
-5
  0
LINE
  5
174
100
AcDbEntity
  8
Component
  6
ByLayer
 62
  256
370
   -1
100
AcDbLine
 10
5
 20
0
 11
0
 21
0
  0
LINE
  5
175
100
AcDbEntity
  8
Component
  6
ByLayer
 62
  256
370
   -1
100
AcDbLine
 10
15
 20
0
 11
20
 21
0
  0
LINE
  5
176
100
AcDbEntity
  8
Component
  6
ByLayer
 62
  256
370
   -1
100
AcDbLine
 10
13
 20
-3
 11
7
 21
3
  0
LINE
  5
177
100
AcDbEntity
  8
Component
  6
ByLayer
 62
  256
370
   -1
100
AcDbLine
 10
7
 20
-3
 11
13
 21
3
  0
LINE
  5
178
100
AcDbEntity
  8
0
  6
ByLayer
 62
  256
370
   -1
100
AcDbLine
 10
10
 20
-5
 11
10
 21
-10
  0
MTEXT
  5
179
100
AcDbEntity
  8
0
  6
ByLayer
 62
  256
370
   -1
100
AcDbMText
 10
2
 20
1
 30
0
 40
1
 41
2
 71
    4
 72
    1
  1
Vcc
  7
STANDARD
210
0
220
0
230
1
 50
0
 73
    2
 44
1
  0
MTEXT
  5
17A
100
AcDbEntity
  8
0
  6
ByLayer
 62
  256
370
   -1
100
AcDbMText
 10
11
 20
-8
 30
0
 40
1
 41
2
 71
    4
 72
    1
  1
Out
  7
STANDARD
210
0
220
0
230
1
 50
0
 73
    2
 44
1
  0
MTEXT
  5
17B
100
AcDbEntity
  8
0
  6
ByLayer
 62
  256
370
   -1
100
AcDbMText
 10
16
 20
1
 30
0
 40
1
 41
2.11111111111122
 71
    4
 72
    1
  1
Gnd
  7
STANDARD
210
0
220
0
230
1
 50
0
 73
    2
 44
1
  0
ENDBLK
  5
98
330
96
100
AcDbEntity
  8
0
100
AcDbBlockEnd
  0
BLOCK
  5
9A
330
99
100
AcDbEntity
  8
0
100
AcDbBlockBegin
  2
Connector 16pin
 70
    0
 10
0
 20
0
  3
Connector 16pin
  1

  0
LINE
  5
17C
100
AcDbEntity
  8
0
  6
ByLayer
 62
  256
370
   -1
100
AcDbLine
 10
-10
 20
-67.5
 11
-5
 21
-67.5
  0
LINE
  5
17D
100
AcDbEntity
  8
0
  6
ByLayer
 62
  256
370
   -1
100
AcDbLine
 10
-5
 20
-67.5
 11
-5
 21
-72.5
  0
LINE
  5
17E
100
AcDbEntity
  8
0
  6
ByLayer
 62
  256
370
   -1
100
AcDbLine
 10
-5
 20
-72.5
 11
-10
 21
-72.5
  0
LINE
  5
17F
100
AcDbEntity
  8
0
  6
ByLayer
 62
  256
370
   -1
100
AcDbLine
 10
-10
 20
-72.5
 11
-10
 21
-67.5
  0
LINE
  5
180
100
AcDbEntity
  8
0
  6
ByLayer
 62
  256
370
   -1
100
AcDbLine
 10
-10
 20
-72.5
 11
-5
 21
-72.5
  0
LINE
  5
181
100
AcDbEntity
  8
0
  6
ByLayer
 62
  256
370
   -1
100
AcDbLine
 10
-5
 20
-72.5
 11
-5
 21
-77.5
  0
LINE
  5
182
100
AcDbEntity
  8
0
  6
ByLayer
 62
  256
370
   -1
100
AcDbLine
 10
-5
 20
-77.5
 11
-10
 21
-77.5
  0
LINE
  5
183
100
AcDbEntity
  8
0
  6
ByLayer
 62
  256
370
   -1
100
AcDbLine
 10
-10
 20
-77.5
 11
-10
 21
-72.5
  0
LINE
  5
184
100
AcDbEntity
  8
0
  6
ByLayer
 62
  256
370
   -1
100
AcDbLine
 10
-10
 20
-57.5
 11
-5
 21
-57.5
  0
LINE
  5
185
100
AcDbEntity
  8
0
  6
ByLayer
 62
  256
370
   -1
100
AcDbLine
 10
-5
 20
-57.5
 11
-5
 21
-62.5
  0
LINE
  5
186
100
AcDbEntity
  8
0
  6
ByLayer
 62
  256
370
   -1
100
AcDbLine
 10
-5
 20
-62.5
 11
-10
 21
-62.5
  0
LINE
  5
187
100
AcDbEntity
  8
0
  6
ByLayer
 62
  256
370
   -1
100
AcDbLine
 10
-10
 20
-62.5
 11
-10
 21
-57.5
  0
LINE
  5
188
100
AcDbEntity
  8
0
  6
ByLayer
 62
  256
370
   -1
100
AcDbLine
 10
-10
 20
-62.5
 11
-5
 21
-62.5
  0
LINE
  5
189
100
AcDbEntity
  8
0
  6
ByLayer
 62
  256
370
   -1
100
AcDbLine
 10
-5
 20
-62.5
 11
-5
 21
-67.5
  0
LINE
  5
18A
100
AcDbEntity
  8
0
  6
ByLayer
 62
  256
370
   -1
100
AcDbLine
 10
-5
 20
-67.5
 11
-10
 21
-67.5
  0
LINE
  5
18B
100
AcDbEntity
  8
0
  6
ByLayer
 62
  256
370
   -1
100
AcDbLine
 10
-10
 20
-67.5
 11
-10
 21
-62.5
  0
LINE
  5
18C
100
AcDbEntity
  8
0
  6
ByLayer
 62
  256
370
   -1
100
AcDbLine
 10
-10
 20
2.5
 11
-5
 21
2.5
  0
LINE
  5
18D
100
AcDbEntity
  8
0
  6
ByLayer
 62
  256
370
   -1
100
AcDbLine
 10
-5
 20
2.5
 11
-5
 21
-2.5
  0
LINE
  5
18E
100
AcDbEntity
  8
0
  6
ByLayer
 62
  256
370
   -1
100
AcDbLine
 10
-5
 20
-2.5
 11
-10
 21
-2.5
  0
LINE
  5
18F
100
AcDbEntity
  8
0
  6
ByLayer
 62
  256
370
   -1
100
AcDbLine
 10
-10
 20
-2.5
 11
-10
 21
2.5
  0
LINE
  5
190
100
AcDbEntity
  8
0
  6
ByLayer
 62
  256
370
   -1
100
AcDbLine
 10
-10
 20
-2.5
 11
-5
 21
-2.5
  0
LINE
  5
191
100
AcDbEntity
  8
0
  6
ByLayer
 62
  256
370
   -1
100
AcDbLine
 10
-5
 20
-2.5
 11
-5
 21
-7.5
  0
LINE
  5
192
100
AcDbEntity
  8
0
  6
ByLayer
 62
  256
370
   -1
100
AcDbLine
 10
-5
 20
-7.5
 11
-10
 21
-7.5
  0
LINE
  5
193
100
AcDbEntity
  8
0
  6
ByLayer
 62
  256
370
   -1
100
AcDbLine
 10
-10
 20
-7.5
 11
-10
 21
-2.5
  0
LINE
  5
194
100
AcDbEntity
  8
0
  6
ByLayer
 62
  256
370
   -1
100
AcDbLine
 10
-10
 20
-7.5
 11
-5
 21
-7.5
  0
LINE
  5
195
100
AcDbEntity
  8
0
  6
ByLayer
 62
  256
370
   -1
100
AcDbLine
 10
-5
 20
-7.5
 11
-5
 21
-12.5
  0
LINE
  5
196
100
AcDbEntity
  8
0
  6
ByLayer
 62
  256
370
   -1
100
AcDbLine
 10
-5
 20
-12.5
 11
-10
 21
-12.5
  0
LINE
  5
197
100
AcDbEntity
  8
0
  6
ByLayer
 62
  256
370
   -1
100
AcDbLine
 10
-10
 20
-12.5
 11
-10
 21
-7.5
  0
LINE
  5
198
100
AcDbEntity
  8
0
  6
ByLayer
 62
  256
370
   -1
100
AcDbLine
 10
-10
 20
-12.5
 11
-5
 21
-12.5
  0
LINE
  5
199
100
AcDbEntity
  8
0
  6
ByLayer
 62
  256
370
   -1
100
AcDbLine
 10
-5
 20
-12.5
 11
-5
 21
-17.5
  0
LINE
  5
19A
100
AcDbEntity
  8
0
  6
ByLayer
 62
  256
370
   -1
100
AcDbLine
 10
-5
 20
-17.5
 11
-10
 21
-17.5
  0
LINE
  5
19B
100
AcDbEntity
  8
0
  6
ByLayer
 62
  256
370
   -1
100
AcDbLine
 10
-10
 20
-17.5
 11
-10
 21
-12.5
  0
LINE
  5
19C
100
AcDbEntity
  8
0
  6
ByLayer
 62
  256
370
   -1
100
AcDbLine
 10
-10
 20
-17.5
 11
-5
 21
-17.5
  0
LINE
  5
19D
100
AcDbEntity
  8
0
  6
ByLayer
 62
  256
370
   -1
100
AcDbLine
 10
-5
 20
-17.5
 11
-5
 21
-22.5
  0
LINE
  5
19E
100
AcDbEntity
  8
0
  6
ByLayer
 62
  256
370
   -1
100
AcDbLine
 10
-5
 20
-22.5
 11
-10
 21
-22.5
  0
LINE
  5
19F
100
AcDbEntity
  8
0
  6
ByLayer
 62
  256
370
   -1
100
AcDbLine
 10
-10
 20
-22.5
 11
-10
 21
-17.5
  0
LINE
  5
1A0
100
AcDbEntity
  8
0
  6
ByLayer
 62
  256
370
   -1
100
AcDbLine
 10
-10
 20
-22.5
 11
-5
 21
-22.5
  0
LINE
  5
1A1
100
AcDbEntity
  8
0
  6
ByLayer
 62
  256
370
   -1
100
AcDbLine
 10
-5
 20
-22.5
 11
-5
 21
-27.5
  0
LINE
  5
1A2
100
AcDbEntity
  8
0
  6
ByLayer
 62
  256
370
   -1
100
AcDbLine
 10
-5
 20
-27.5
 11
-10
 21
-27.5
  0
LINE
  5
1A3
100
AcDbEntity
  8
0
  6
ByLayer
 62
  256
370
   -1
100
AcDbLine
 10
-10
 20
-27.5
 11
-10
 21
-22.5
  0
LINE
  5
1A4
100
AcDbEntity
  8
0
  6
ByLayer
 62
  256
370
   -1
100
AcDbLine
 10
-10
 20
-27.5
 11
-5
 21
-27.5
  0
LINE
  5
1A5
100
AcDbEntity
  8
0
  6
ByLayer
 62
  256
370
   -1
100
AcDbLine
 10
-5
 20
-27.5
 11
-5
 21
-32.5
  0
LINE
  5
1A6
100
AcDbEntity
  8
0
  6
ByLayer
 62
  256
370
   -1
100
AcDbLine
 10
-5
 20
-32.5
 11
-10
 21
-32.5
  0
LINE
  5
1A7
100
AcDbEntity
  8
0
  6
ByLayer
 62
  256
370
   -1
100
AcDbLine
 10
-10
 20
-32.5
 11
-10
 21
-27.5
  0
LINE
  5
1A8
100
AcDbEntity
  8
0
  6
ByLayer
 62
  256
370
   -1
100
AcDbLine
 10
-10
 20
-32.5
 11
-5
 21
-32.5
  0
LINE
  5
1A9
100
AcDbEntity
  8
0
  6
ByLayer
 62
  256
370
   -1
100
AcDbLine
 10
-5
 20
-32.5
 11
-5
 21
-37.5
  0
LINE
  5
1AA
100
AcDbEntity
  8
0
  6
ByLayer
 62
  256
370
   -1
100
AcDbLine
 10
-5
 20
-37.5
 11
-10
 21
-37.5
  0
LINE
  5
1AB
100
AcDbEntity
  8
0
  6
ByLayer
 62
  256
370
   -1
100
AcDbLine
 10
-10
 20
-37.5
 11
-10
 21
-32.5
  0
LINE
  5
1AC
100
AcDbEntity
  8
0
  6
ByLayer
 62
  256
370
   -1
100
AcDbLine
 10
-10
 20
-37.5
 11
-5
 21
-37.5
  0
LINE
  5
1AD
100
AcDbEntity
  8
0
  6
ByLayer
 62
  256
370
   -1
100
AcDbLine
 10
-5
 20
-37.5
 11
-5
 21
-42.5
  0
LINE
  5
1AE
100
AcDbEntity
  8
0
  6
ByLayer
 62
  256
370
   -1
100
AcDbLine
 10
-5
 20
-42.5
 11
-10
 21
-42.5
  0
LINE
  5
1AF
100
AcDbEntity
  8
0
  6
ByLayer
 62
  256
370
   -1
100
AcDbLine
 10
-10
 20
-42.5
 11
-10
 21
-37.5
  0
LINE
  5
1B0
100
AcDbEntity
  8
0
  6
ByLayer
 62
  256
370
   -1
100
AcDbLine
 10
-10
 20
-42.5
 11
-5
 21
-42.5
  0
LINE
  5
1B1
100
AcDbEntity
  8
0
  6
ByLayer
 62
  256
370
   -1
100
AcDbLine
 10
-5
 20
-42.5
 11
-5
 21
-47.5
  0
LINE
  5
1B2
100
AcDbEntity
  8
0
  6
ByLayer
 62
  256
370
   -1
100
AcDbLine
 10
-5
 20
-47.5
 11
-10
 21
-47.5
  0
LINE
  5
1B3
100
AcDbEntity
  8
0
  6
ByLayer
 62
  256
370
   -1
100
AcDbLine
 10
-10
 20
-47.5
 11
-10
 21
-42.5
  0
LINE
  5
1B4
100
AcDbEntity
  8
0
  6
ByLayer
 62
  256
370
   -1
100
AcDbLine
 10
-10
 20
-47.5
 11
-5
 21
-47.5
  0
LINE
  5
1B5
100
AcDbEntity
  8
0
  6
ByLayer
 62
  256
370
   -1
100
AcDbLine
 10
-5
 20
-47.5
 11
-5
 21
-52.5
  0
LINE
  5
1B6
100
AcDbEntity
  8
0
  6
ByLayer
 62
  256
370
   -1
100
AcDbLine
 10
-5
 20
-52.5
 11
-10
 21
-52.5
  0
LINE
  5
1B7
100
AcDbEntity
  8
0
  6
ByLayer
 62
  256
370
   -1
100
AcDbLine
 10
-10
 20
-52.5
 11
-10
 21
-47.5
  0
LINE
  5
1B8
100
AcDbEntity
  8
0
  6
ByLayer
 62
  256
370
   -1
100
AcDbLine
 10
-10
 20
-52.5
 11
-5
 21
-52.5
  0
LINE
  5
1B9
100
AcDbEntity
  8
0
  6
ByLayer
 62
  256
370
   -1
100
AcDbLine
 10
-5
 20
-52.5
 11
-5
 21
-57.5
  0
LINE
  5
1BA
100
AcDbEntity
  8
0
  6
ByLayer
 62
  256
370
   -1
100
AcDbLine
 10
-5
 20
-57.5
 11
-10
 21
-57.5
  0
LINE
  5
1BB
100
AcDbEntity
  8
0
  6
ByLayer
 62
  256
370
   -1
100
AcDbLine
 10
-10
 20
-57.5
 11
-10
 21
-52.5
  0
MTEXT
  5
1BC
100
AcDbEntity
  8
0
  6
ByLayer
 62
  256
370
   -1
100
AcDbMText
 10
-8
 20
1
 30
0
 40
2.4
 41
1.333333333333333
 71
    1
 72
    1
  1
1\P2\P3\P4\P5\P6\P7\P8\P9\P
  7
standard
210
0
220
0
230
1
 50
0
 73
    2
 44
1.25
  0
MTEXT
  5
1BD
100
AcDbEntity
  8
0
  6
ByLayer
 62
  256
370
   -1
100
AcDbMText
 10
-9
 20
-44
 30
0
 40
2.4
 41
2.666666666666667
 71
    1
 72
    1
  1
10\P11\P12\P13\P14
  7
standard
210
0
220
0
230
1
 50
0
 73
    2
 44
1.25
  0
MTEXT
  5
1BE
100
AcDbEntity
  8
0
  6
ByLayer
 62
  256
370
   -1
100
AcDbMText
 10
-9
 20
-69
 30
0
 40
2.4
 41
2.400000000000149
 71
    1
 72
    1
  1
15\P16
  7
standard
210
0
220
0
230
1
 50
0
 73
    2
 44
1.25
  0
LINE
  5
1BF
100
AcDbEntity
  8
0
  6
ByLayer
 62
  256
370
   -1
100
AcDbLine
 10
-10
 20
2.5
 11
-10
 21
5
  0
LINE
  5
1C0
100
AcDbEntity
  8
0
  6
ByLayer
 62
  256
370
   -1
100
AcDbLine
 10
-10
 20
5
 11
-5
 21
5
  0
LINE
  5
1C1
100
AcDbEntity
  8
0
  6
ByLayer
 62
  256
370
   -1
100
AcDbLine
 10
-5
 20
5
 11
-5
 21
2.5
  0
LINE
  5
1C2
100
AcDbEntity
  8
0
  6
ByLayer
 62
  256
370
   -1
100
AcDbLine
 10
-5
 20
-77.5
 11
-5
 21
-80
  0
LINE
  5
1C3
100
AcDbEntity
  8
0
  6
ByLayer
 62
  256
370
   -1
100
AcDbLine
 10
-5
 20
-80
 11
-10
 21
-80
  0
LINE
  5
1C4
100
AcDbEntity
  8
0
  6
ByLayer
 62
  256
370
   -1
100
AcDbLine
 10
-10
 20
-80
 11
-10
 21
-77.5
  0
LINE
  5
1C5
100
AcDbEntity
  8
0
  6
ByLayer
 62
  256
370
   -1
100
AcDbLine
 10
-5
 20
0
 11
0
 21
0
  0
LINE
  5
1C6
100
AcDbEntity
  8
0
  6
ByLayer
 62
  256
370
   -1
100
AcDbLine
 10
-5
 20
-5
 11
0
 21
-5
  0
LINE
  5
1C7
100
AcDbEntity
  8
0
  6
ByLayer
 62
  256
370
   -1
100
AcDbLine
 10
-5
 20
-10
 11
0
 21
-10
  0
LINE
  5
1C8
100
AcDbEntity
  8
0
  6
ByLayer
 62
  256
370
   -1
100
AcDbLine
 10
-5
 20
-15
 11
0
 21
-15
  0
LINE
  5
1C9
100
AcDbEntity
  8
0
  6
ByLayer
 62
  256
370
   -1
100
AcDbLine
 10
-5
 20
-20
 11
0
 21
-20
  0
LINE
  5
1CA
100
AcDbEntity
  8
0
  6
ByLayer
 62
  256
370
   -1
100
AcDbLine
 10
-5
 20
-25
 11
0
 21
-25
  0
LINE
  5
1CB
100
AcDbEntity
  8
0
  6
ByLayer
 62
  256
370
   -1
100
AcDbLine
 10
-5
 20
-30
 11
0
 21
-30
  0
LINE
  5
1CC
100
AcDbEntity
  8
0
  6
ByLayer
 62
  256
370
   -1
100
AcDbLine
 10
-5
 20
-35
 11
0
 21
-35
  0
LINE
  5
1CD
100
AcDbEntity
  8
0
  6
ByLayer
 62
  256
370
   -1
100
AcDbLine
 10
-5
 20
-40
 11
0
 21
-40
  0
LINE
  5
1CE
100
AcDbEntity
  8
0
  6
ByLayer
 62
  256
370
   -1
100
AcDbLine
 10
-5
 20
-55
 11
0
 21
-55
  0
LINE
  5
1CF
100
AcDbEntity
  8
0
  6
ByLayer
 62
  256
370
   -1
100
AcDbLine
 10
-5
 20
-50
 11
0
 21
-50
  0
LINE
  5
1D0
100
AcDbEntity
  8
0
  6
ByLayer
 62
  256
370
   -1
100
AcDbLine
 10
-5
 20
-45
 11
0
 21
-45
  0
LINE
  5
1D1
100
AcDbEntity
  8
0
  6
ByLayer
 62
  256
370
   -1
100
AcDbLine
 10
-5
 20
0
 11
0
 21
0
  0
LINE
  5
1D2
100
AcDbEntity
  8
0
  6
ByLayer
 62
  256
370
   -1
100
AcDbLine
 10
-5
 20
-5
 11
0
 21
-5
  0
LINE
  5
1D3
100
AcDbEntity
  8
0
  6
ByLayer
 62
  256
370
   -1
100
AcDbLine
 10
-5
 20
-10
 11
0
 21
-10
  0
LINE
  5
1D4
100
AcDbEntity
  8
0
  6
ByLayer
 62
  256
370
   -1
100
AcDbLine
 10
-5
 20
-15
 11
0
 21
-15
  0
LINE
  5
1D5
100
AcDbEntity
  8
0
  6
ByLayer
 62
  256
370
   -1
100
AcDbLine
 10
-5
 20
-20
 11
0
 21
-20
  0
LINE
  5
1D6
100
AcDbEntity
  8
0
  6
ByLayer
 62
  256
370
   -1
100
AcDbLine
 10
-5
 20
-25
 11
0
 21
-25
  0
LINE
  5
1D7
100
AcDbEntity
  8
0
  6
ByLayer
 62
  256
370
   -1
100
AcDbLine
 10
-5
 20
-30
 11
0
 21
-30
  0
LINE
  5
1D8
100
AcDbEntity
  8
0
  6
ByLayer
 62
  256
370
   -1
100
AcDbLine
 10
-5
 20
-35
 11
0
 21
-35
  0
LINE
  5
1D9
100
AcDbEntity
  8
0
  6
ByLayer
 62
  256
370
   -1
100
AcDbLine
 10
-5
 20
-40
 11
0
 21
-40
  0
LINE
  5
1DA
100
AcDbEntity
  8
0
  6
ByLayer
 62
  256
370
   -1
100
AcDbLine
 10
-5
 20
-55
 11
0
 21
-55
  0
LINE
  5
1DB
100
AcDbEntity
  8
0
  6
ByLayer
 62
  256
370
   -1
100
AcDbLine
 10
-5
 20
-50
 11
0
 21
-50
  0
LINE
  5
1DC
100
AcDbEntity
  8
0
  6
ByLayer
 62
  256
370
   -1
100
AcDbLine
 10
-5
 20
-45
 11
0
 21
-45
  0
LINE
  5
1DD
100
AcDbEntity
  8
0
  6
ByLayer
 62
  256
370
   -1
100
AcDbLine
 10
-5
 20
-60
 11
0
 21
-60
  0
LINE
  5
1DE
100
AcDbEntity
  8
0
  6
ByLayer
 62
  256
370
   -1
100
AcDbLine
 10
-5
 20
-65
 11
0
 21
-65
  0
LINE
  5
1DF
100
AcDbEntity
  8
0
  6
ByLayer
 62
  256
370
   -1
100
AcDbLine
 10
-5
 20
-70
 11
0
 21
-70
  0
LINE
  5
1E0
100
AcDbEntity
  8
0
  6
ByLayer
 62
  256
370
   -1
100
AcDbLine
 10
-5
 20
-75
 11
0
 21
-75
  0
ENDBLK
  5
9B
330
99
100
AcDbEntity
  8
0
100
AcDbBlockEnd
  0
BLOCK
  5
9D
330
9C
100
AcDbEntity
  8
0
100
AcDbBlockBegin
  2
Connector 16pin-0
 70
    0
 10
0
 20
0
  3
Connector 16pin-0
  1

  0
LINE
  5
1E1
100
AcDbEntity
  8
0
  6
ByLayer
 62
  256
370
   -1
100
AcDbLine
 10
-10
 20
-67.5
 11
-5
 21
-67.5
  0
LINE
  5
1E2
100
AcDbEntity
  8
0
  6
ByLayer
 62
  256
370
   -1
100
AcDbLine
 10
-5
 20
-67.5
 11
-5
 21
-72.5
  0
LINE
  5
1E3
100
AcDbEntity
  8
0
  6
ByLayer
 62
  256
370
   -1
100
AcDbLine
 10
-5
 20
-72.5
 11
-10
 21
-72.5
  0
LINE
  5
1E4
100
AcDbEntity
  8
0
  6
ByLayer
 62
  256
370
   -1
100
AcDbLine
 10
-10
 20
-72.5
 11
-10
 21
-67.5
  0
LINE
  5
1E5
100
AcDbEntity
  8
0
  6
ByLayer
 62
  256
370
   -1
100
AcDbLine
 10
-10
 20
-72.5
 11
-5
 21
-72.5
  0
LINE
  5
1E6
100
AcDbEntity
  8
0
  6
ByLayer
 62
  256
370
   -1
100
AcDbLine
 10
-5
 20
-72.5
 11
-5
 21
-77.5
  0
LINE
  5
1E7
100
AcDbEntity
  8
0
  6
ByLayer
 62
  256
370
   -1
100
AcDbLine
 10
-5
 20
-77.5
 11
-10
 21
-77.5
  0
LINE
  5
1E8
100
AcDbEntity
  8
0
  6
ByLayer
 62
  256
370
   -1
100
AcDbLine
 10
-10
 20
-77.5
 11
-10
 21
-72.5
  0
LINE
  5
1E9
100
AcDbEntity
  8
0
  6
ByLayer
 62
  256
370
   -1
100
AcDbLine
 10
-10
 20
-57.5
 11
-5
 21
-57.5
  0
LINE
  5
1EA
100
AcDbEntity
  8
0
  6
ByLayer
 62
  256
370
   -1
100
AcDbLine
 10
-5
 20
-57.5
 11
-5
 21
-62.5
  0
LINE
  5
1EB
100
AcDbEntity
  8
0
  6
ByLayer
 62
  256
370
   -1
100
AcDbLine
 10
-5
 20
-62.5
 11
-10
 21
-62.5
  0
LINE
  5
1EC
100
AcDbEntity
  8
0
  6
ByLayer
 62
  256
370
   -1
100
AcDbLine
 10
-10
 20
-62.5
 11
-10
 21
-57.5
  0
LINE
  5
1ED
100
AcDbEntity
  8
0
  6
ByLayer
 62
  256
370
   -1
100
AcDbLine
 10
-10
 20
-62.5
 11
-5
 21
-62.5
  0
LINE
  5
1EE
100
AcDbEntity
  8
0
  6
ByLayer
 62
  256
370
   -1
100
AcDbLine
 10
-5
 20
-62.5
 11
-5
 21
-67.5
  0
LINE
  5
1EF
100
AcDbEntity
  8
0
  6
ByLayer
 62
  256
370
   -1
100
AcDbLine
 10
-5
 20
-67.5
 11
-10
 21
-67.5
  0
LINE
  5
1F0
100
AcDbEntity
  8
0
  6
ByLayer
 62
  256
370
   -1
100
AcDbLine
 10
-10
 20
-67.5
 11
-10
 21
-62.5
  0
LINE
  5
1F1
100
AcDbEntity
  8
0
  6
ByLayer
 62
  256
370
   -1
100
AcDbLine
 10
-10
 20
2.5
 11
-5
 21
2.5
  0
LINE
  5
1F2
100
AcDbEntity
  8
0
  6
ByLayer
 62
  256
370
   -1
100
AcDbLine
 10
-5
 20
2.5
 11
-5
 21
-2.5
  0
LINE
  5
1F3
100
AcDbEntity
  8
0
  6
ByLayer
 62
  256
370
   -1
100
AcDbLine
 10
-5
 20
-2.5
 11
-10
 21
-2.5
  0
LINE
  5
1F4
100
AcDbEntity
  8
0
  6
ByLayer
 62
  256
370
   -1
100
AcDbLine
 10
-10
 20
-2.5
 11
-10
 21
2.5
  0
LINE
  5
1F5
100
AcDbEntity
  8
0
  6
ByLayer
 62
  256
370
   -1
100
AcDbLine
 10
-10
 20
-2.5
 11
-5
 21
-2.5
  0
LINE
  5
1F6
100
AcDbEntity
  8
0
  6
ByLayer
 62
  256
370
   -1
100
AcDbLine
 10
-5
 20
-2.5
 11
-5
 21
-7.5
  0
LINE
  5
1F7
100
AcDbEntity
  8
0
  6
ByLayer
 62
  256
370
   -1
100
AcDbLine
 10
-5
 20
-7.5
 11
-10
 21
-7.5
  0
LINE
  5
1F8
100
AcDbEntity
  8
0
  6
ByLayer
 62
  256
370
   -1
100
AcDbLine
 10
-10
 20
-7.5
 11
-10
 21
-2.5
  0
LINE
  5
1F9
100
AcDbEntity
  8
0
  6
ByLayer
 62
  256
370
   -1
100
AcDbLine
 10
-10
 20
-7.5
 11
-5
 21
-7.5
  0
LINE
  5
1FA
100
AcDbEntity
  8
0
  6
ByLayer
 62
  256
370
   -1
100
AcDbLine
 10
-5
 20
-7.5
 11
-5
 21
-12.5
  0
LINE
  5
1FB
100
AcDbEntity
  8
0
  6
ByLayer
 62
  256
370
   -1
100
AcDbLine
 10
-5
 20
-12.5
 11
-10
 21
-12.5
  0
LINE
  5
1FC
100
AcDbEntity
  8
0
  6
ByLayer
 62
  256
370
   -1
100
AcDbLine
 10
-10
 20
-12.5
 11
-10
 21
-7.5
  0
LINE
  5
1FD
100
AcDbEntity
  8
0
  6
ByLayer
 62
  256
370
   -1
100
AcDbLine
 10
-10
 20
-12.5
 11
-5
 21
-12.5
  0
LINE
  5
1FE
100
AcDbEntity
  8
0
  6
ByLayer
 62
  256
370
   -1
100
AcDbLine
 10
-5
 20
-12.5
 11
-5
 21
-17.5
  0
LINE
  5
1FF
100
AcDbEntity
  8
0
  6
ByLayer
 62
  256
370
   -1
100
AcDbLine
 10
-5
 20
-17.5
 11
-10
 21
-17.5
  0
LINE
  5
200
100
AcDbEntity
  8
0
  6
ByLayer
 62
  256
370
   -1
100
AcDbLine
 10
-10
 20
-17.5
 11
-10
 21
-12.5
  0
LINE
  5
201
100
AcDbEntity
  8
0
  6
ByLayer
 62
  256
370
   -1
100
AcDbLine
 10
-10
 20
-17.5
 11
-5
 21
-17.5
  0
LINE
  5
202
100
AcDbEntity
  8
0
  6
ByLayer
 62
  256
370
   -1
100
AcDbLine
 10
-5
 20
-17.5
 11
-5
 21
-22.5
  0
LINE
  5
203
100
AcDbEntity
  8
0
  6
ByLayer
 62
  256
370
   -1
100
AcDbLine
 10
-5
 20
-22.5
 11
-10
 21
-22.5
  0
LINE
  5
204
100
AcDbEntity
  8
0
  6
ByLayer
 62
  256
370
   -1
100
AcDbLine
 10
-10
 20
-22.5
 11
-10
 21
-17.5
  0
LINE
  5
205
100
AcDbEntity
  8
0
  6
ByLayer
 62
  256
370
   -1
100
AcDbLine
 10
-10
 20
-22.5
 11
-5
 21
-22.5
  0
LINE
  5
206
100
AcDbEntity
  8
0
  6
ByLayer
 62
  256
370
   -1
100
AcDbLine
 10
-5
 20
-22.5
 11
-5
 21
-27.5
  0
LINE
  5
207
100
AcDbEntity
  8
0
  6
ByLayer
 62
  256
370
   -1
100
AcDbLine
 10
-5
 20
-27.5
 11
-10
 21
-27.5
  0
LINE
  5
208
100
AcDbEntity
  8
0
  6
ByLayer
 62
  256
370
   -1
100
AcDbLine
 10
-10
 20
-27.5
 11
-10
 21
-22.5
  0
LINE
  5
209
100
AcDbEntity
  8
0
  6
ByLayer
 62
  256
370
   -1
100
AcDbLine
 10
-10
 20
-27.5
 11
-5
 21
-27.5
  0
LINE
  5
20A
100
AcDbEntity
  8
0
  6
ByLayer
 62
  256
370
   -1
100
AcDbLine
 10
-5
 20
-27.5
 11
-5
 21
-32.5
  0
LINE
  5
20B
100
AcDbEntity
  8
0
  6
ByLayer
 62
  256
370
   -1
100
AcDbLine
 10
-5
 20
-32.5
 11
-10
 21
-32.5
  0
LINE
  5
20C
100
AcDbEntity
  8
0
  6
ByLayer
 62
  256
370
   -1
100
AcDbLine
 10
-10
 20
-32.5
 11
-10
 21
-27.5
  0
LINE
  5
20D
100
AcDbEntity
  8
0
  6
ByLayer
 62
  256
370
   -1
100
AcDbLine
 10
-10
 20
-32.5
 11
-5
 21
-32.5
  0
LINE
  5
20E
100
AcDbEntity
  8
0
  6
ByLayer
 62
  256
370
   -1
100
AcDbLine
 10
-5
 20
-32.5
 11
-5
 21
-37.5
  0
LINE
  5
20F
100
AcDbEntity
  8
0
  6
ByLayer
 62
  256
370
   -1
100
AcDbLine
 10
-5
 20
-37.5
 11
-10
 21
-37.5
  0
LINE
  5
210
100
AcDbEntity
  8
0
  6
ByLayer
 62
  256
370
   -1
100
AcDbLine
 10
-10
 20
-37.5
 11
-10
 21
-32.5
  0
LINE
  5
211
100
AcDbEntity
  8
0
  6
ByLayer
 62
  256
370
   -1
100
AcDbLine
 10
-10
 20
-37.5
 11
-5
 21
-37.5
  0
LINE
  5
212
100
AcDbEntity
  8
0
  6
ByLayer
 62
  256
370
   -1
100
AcDbLine
 10
-5
 20
-37.5
 11
-5
 21
-42.5
  0
LINE
  5
213
100
AcDbEntity
  8
0
  6
ByLayer
 62
  256
370
   -1
100
AcDbLine
 10
-5
 20
-42.5
 11
-10
 21
-42.5
  0
LINE
  5
214
100
AcDbEntity
  8
0
  6
ByLayer
 62
  256
370
   -1
100
AcDbLine
 10
-10
 20
-42.5
 11
-10
 21
-37.5
  0
LINE
  5
215
100
AcDbEntity
  8
0
  6
ByLayer
 62
  256
370
   -1
100
AcDbLine
 10
-10
 20
-42.5
 11
-5
 21
-42.5
  0
LINE
  5
216
100
AcDbEntity
  8
0
  6
ByLayer
 62
  256
370
   -1
100
AcDbLine
 10
-5
 20
-42.5
 11
-5
 21
-47.5
  0
LINE
  5
217
100
AcDbEntity
  8
0
  6
ByLayer
 62
  256
370
   -1
100
AcDbLine
 10
-5
 20
-47.5
 11
-10
 21
-47.5
  0
LINE
  5
218
100
AcDbEntity
  8
0
  6
ByLayer
 62
  256
370
   -1
100
AcDbLine
 10
-10
 20
-47.5
 11
-10
 21
-42.5
  0
LINE
  5
219
100
AcDbEntity
  8
0
  6
ByLayer
 62
  256
370
   -1
100
AcDbLine
 10
-10
 20
-47.5
 11
-5
 21
-47.5
  0
LINE
  5
21A
100
AcDbEntity
  8
0
  6
ByLayer
 62
  256
370
   -1
100
AcDbLine
 10
-5
 20
-47.5
 11
-5
 21
-52.5
  0
LINE
  5
21B
100
AcDbEntity
  8
0
  6
ByLayer
 62
  256
370
   -1
100
AcDbLine
 10
-5
 20
-52.5
 11
-10
 21
-52.5
  0
LINE
  5
21C
100
AcDbEntity
  8
0
  6
ByLayer
 62
  256
370
   -1
100
AcDbLine
 10
-10
 20
-52.5
 11
-10
 21
-47.5
  0
LINE
  5
21D
100
AcDbEntity
  8
0
  6
ByLayer
 62
  256
370
   -1
100
AcDbLine
 10
-10
 20
-52.5
 11
-5
 21
-52.5
  0
LINE
  5
21E
100
AcDbEntity
  8
0
  6
ByLayer
 62
  256
370
   -1
100
AcDbLine
 10
-5
 20
-52.5
 11
-5
 21
-57.5
  0
LINE
  5
21F
100
AcDbEntity
  8
0
  6
ByLayer
 62
  256
370
   -1
100
AcDbLine
 10
-5
 20
-57.5
 11
-10
 21
-57.5
  0
LINE
  5
220
100
AcDbEntity
  8
0
  6
ByLayer
 62
  256
370
   -1
100
AcDbLine
 10
-10
 20
-57.5
 11
-10
 21
-52.5
  0
MTEXT
  5
221
100
AcDbEntity
  8
0
  6
ByLayer
 62
  256
370
   -1
100
AcDbMText
 10
-8
 20
1
 30
0
 40
2.4
 41
1.333333333333333
 71
    1
 72
    1
  1
1\P2\P3\P4\P5\P6\P7\P8\P9\P
  7
standard
210
0
220
0
230
1
 50
0
 73
    2
 44
1.25
  0
MTEXT
  5
222
100
AcDbEntity
  8
0
  6
ByLayer
 62
  256
370
   -1
100
AcDbMText
 10
-9
 20
-44
 30
0
 40
2.4
 41
2.666666666666667
 71
    1
 72
    1
  1
10\P11\P12\P13\P14
  7
standard
210
0
220
0
230
1
 50
0
 73
    2
 44
1.25
  0
MTEXT
  5
223
100
AcDbEntity
  8
0
  6
ByLayer
 62
  256
370
   -1
100
AcDbMText
 10
-9
 20
-69
 30
0
 40
2.4
 41
2.400000000000149
 71
    1
 72
    1
  1
15\P16
  7
standard
210
0
220
0
230
1
 50
0
 73
    2
 44
1.25
  0
LINE
  5
224
100
AcDbEntity
  8
0
  6
ByLayer
 62
  256
370
   -1
100
AcDbLine
 10
-10
 20
2.5
 11
-10
 21
5
  0
LINE
  5
225
100
AcDbEntity
  8
0
  6
ByLayer
 62
  256
370
   -1
100
AcDbLine
 10
-10
 20
5
 11
-5
 21
5
  0
LINE
  5
226
100
AcDbEntity
  8
0
  6
ByLayer
 62
  256
370
   -1
100
AcDbLine
 10
-5
 20
5
 11
-5
 21
2.5
  0
LINE
  5
227
100
AcDbEntity
  8
0
  6
ByLayer
 62
  256
370
   -1
100
AcDbLine
 10
-5
 20
-77.5
 11
-5
 21
-80
  0
LINE
  5
228
100
AcDbEntity
  8
0
  6
ByLayer
 62
  256
370
   -1
100
AcDbLine
 10
-5
 20
-80
 11
-10
 21
-80
  0
LINE
  5
229
100
AcDbEntity
  8
0
  6
ByLayer
 62
  256
370
   -1
100
AcDbLine
 10
-10
 20
-80
 11
-10
 21
-77.5
  0
LINE
  5
22A
100
AcDbEntity
  8
0
  6
ByLayer
 62
  256
370
   -1
100
AcDbLine
 10
-5
 20
0
 11
0
 21
0
  0
LINE
  5
22B
100
AcDbEntity
  8
0
  6
ByLayer
 62
  256
370
   -1
100
AcDbLine
 10
-5
 20
-5
 11
0
 21
-5
  0
LINE
  5
22C
100
AcDbEntity
  8
0
  6
ByLayer
 62
  256
370
   -1
100
AcDbLine
 10
-5
 20
-10
 11
0
 21
-10
  0
LINE
  5
22D
100
AcDbEntity
  8
0
  6
ByLayer
 62
  256
370
   -1
100
AcDbLine
 10
-5
 20
-15
 11
0
 21
-15
  0
LINE
  5
22E
100
AcDbEntity
  8
0
  6
ByLayer
 62
  256
370
   -1
100
AcDbLine
 10
-5
 20
-20
 11
0
 21
-20
  0
LINE
  5
22F
100
AcDbEntity
  8
0
  6
ByLayer
 62
  256
370
   -1
100
AcDbLine
 10
-5
 20
-25
 11
0
 21
-25
  0
LINE
  5
230
100
AcDbEntity
  8
0
  6
ByLayer
 62
  256
370
   -1
100
AcDbLine
 10
-5
 20
-30
 11
0
 21
-30
  0
LINE
  5
231
100
AcDbEntity
  8
0
  6
ByLayer
 62
  256
370
   -1
100
AcDbLine
 10
-5
 20
-35
 11
0
 21
-35
  0
LINE
  5
232
100
AcDbEntity
  8
0
  6
ByLayer
 62
  256
370
   -1
100
AcDbLine
 10
-5
 20
-40
 11
0
 21
-40
  0
LINE
  5
233
100
AcDbEntity
  8
0
  6
ByLayer
 62
  256
370
   -1
100
AcDbLine
 10
-5
 20
-55
 11
0
 21
-55
  0
LINE
  5
234
100
AcDbEntity
  8
0
  6
ByLayer
 62
  256
370
   -1
100
AcDbLine
 10
-5
 20
-50
 11
0
 21
-50
  0
LINE
  5
235
100
AcDbEntity
  8
0
  6
ByLayer
 62
  256
370
   -1
100
AcDbLine
 10
-5
 20
-45
 11
0
 21
-45
  0
LINE
  5
236
100
AcDbEntity
  8
0
  6
ByLayer
 62
  256
370
   -1
100
AcDbLine
 10
-5
 20
0
 11
0
 21
0
  0
LINE
  5
237
100
AcDbEntity
  8
0
  6
ByLayer
 62
  256
370
   -1
100
AcDbLine
 10
-5
 20
-5
 11
0
 21
-5
  0
LINE
  5
238
100
AcDbEntity
  8
0
  6
ByLayer
 62
  256
370
   -1
100
AcDbLine
 10
-5
 20
-10
 11
0
 21
-10
  0
LINE
  5
239
100
AcDbEntity
  8
0
  6
ByLayer
 62
  256
370
   -1
100
AcDbLine
 10
-5
 20
-15
 11
0
 21
-15
  0
LINE
  5
23A
100
AcDbEntity
  8
0
  6
ByLayer
 62
  256
370
   -1
100
AcDbLine
 10
-5
 20
-20
 11
0
 21
-20
  0
LINE
  5
23B
100
AcDbEntity
  8
0
  6
ByLayer
 62
  256
370
   -1
100
AcDbLine
 10
-5
 20
-25
 11
0
 21
-25
  0
LINE
  5
23C
100
AcDbEntity
  8
0
  6
ByLayer
 62
  256
370
   -1
100
AcDbLine
 10
-5
 20
-30
 11
0
 21
-30
  0
LINE
  5
23D
100
AcDbEntity
  8
0
  6
ByLayer
 62
  256
370
   -1
100
AcDbLine
 10
-5
 20
-35
 11
0
 21
-35
  0
LINE
  5
23E
100
AcDbEntity
  8
0
  6
ByLayer
 62
  256
370
   -1
100
AcDbLine
 10
-5
 20
-40
 11
0
 21
-40
  0
LINE
  5
23F
100
AcDbEntity
  8
0
  6
ByLayer
 62
  256
370
   -1
100
AcDbLine
 10
-5
 20
-55
 11
0
 21
-55
  0
LINE
  5
240
100
AcDbEntity
  8
0
  6
ByLayer
 62
  256
370
   -1
100
AcDbLine
 10
-5
 20
-50
 11
0
 21
-50
  0
LINE
  5
241
100
AcDbEntity
  8
0
  6
ByLayer
 62
  256
370
   -1
100
AcDbLine
 10
-5
 20
-45
 11
0
 21
-45
  0
LINE
  5
242
100
AcDbEntity
  8
0
  6
ByLayer
 62
  256
370
   -1
100
AcDbLine
 10
-5
 20
-60
 11
0
 21
-60
  0
LINE
  5
243
100
AcDbEntity
  8
0
  6
ByLayer
 62
  256
370
   -1
100
AcDbLine
 10
-5
 20
-65
 11
0
 21
-65
  0
LINE
  5
244
100
AcDbEntity
  8
0
  6
ByLayer
 62
  256
370
   -1
100
AcDbLine
 10
-5
 20
-70
 11
0
 21
-70
  0
LINE
  5
245
100
AcDbEntity
  8
0
  6
ByLayer
 62
  256
370
   -1
100
AcDbLine
 10
-5
 20
-75
 11
0
 21
-75
  0
ENDBLK
  5
9E
330
9C
100
AcDbEntity
  8
0
100
AcDbBlockEnd
  0
BLOCK
  5
A0
330
9F
100
AcDbEntity
  8
0
100
AcDbBlockBegin
  2
c1
 70
    0
 10
0
 20
0
  3
c1
  1

  0
LINE
  5
246
100
AcDbEntity
  8
0
  6
CONTINUOUS
 62
    7
370
   70
100
AcDbLine
 10
0
 20
0
 11
10
 21
0
  0
LINE
  5
247
100
AcDbEntity
  8
0
  6
CONTINUOUS
 62
    7
370
   70
100
AcDbLine
 10
8
 20
2
 11
10
 21
0
  0
LINE
  5
248
100
AcDbEntity
  8
0
  6
CONTINUOUS
 62
    7
370
   70
100
AcDbLine
 10
10
 20
0
 11
8
 21
-2
  0
ENDBLK
  5
A1
330
9F
100
AcDbEntity
  8
0
100
AcDbBlockEnd
  0
BLOCK
  5
A3
330
A2
100
AcDbEntity
  8
0
100
AcDbBlockBegin
  2
c1-0
 70
    0
 10
0
 20
0
  3
c1-0
  1

  0
LINE
  5
249
100
AcDbEntity
  8
0
  6
CONTINUOUS
 62
    7
370
   70
100
AcDbLine
 10
0
 20
0
 11
10
 21
0
  0
LINE
  5
24A
100
AcDbEntity
  8
0
  6
CONTINUOUS
 62
    7
370
   70
100
AcDbLine
 10
8
 20
2
 11
10
 21
0
  0
LINE
  5
24B
100
AcDbEntity
  8
0
  6
CONTINUOUS
 62
    7
370
   70
100
AcDbLine
 10
10
 20
0
 11
8
 21
-2
  0
ENDBLK
  5
A4
330
A2
100
AcDbEntity
  8
0
100
AcDbBlockEnd
  0
BLOCK
  5
A6
330
A5
100
AcDbEntity
  8
0
100
AcDbBlockBegin
  2
Resistor-0
 70
    0
 10
0
 20
0
  3
Resistor-0
  1

  0
LINE
  5
24C
100
AcDbEntity
  8
Component
  6
ByLayer
 62
  256
370
   -1
100
AcDbLine
 10
0
 20
0
 11
2.5
 21
0
  0
LINE
  5
24D
100
AcDbEntity
  8
Component
  6
ByLayer
 62
  256
370
   -1
100
AcDbLine
 10
2.5
 20
1
 11
2.5
 21
-1
  0
LINE
  5
24E
100
AcDbEntity
  8
Component
  6
ByLayer
 62
  256
370
   -1
100
AcDbLine
 10
7.5
 20
1
 11
7.5
 21
-1
  0
LINE
  5
24F
100
AcDbEntity
  8
Component
  6
ByLayer
 62
  256
370
   -1
100
AcDbLine
 10
2.5
 20
-1
 11
7.5
 21
-1
  0
LINE
  5
250
100
AcDbEntity
  8
Component
  6
ByLayer
 62
  256
370
   -1
100
AcDbLine
 10
2.5
 20
1
 11
7.5
 21
1
  0
LINE
  5
251
100
AcDbEntity
  8
Component
  6
ByLayer
 62
  256
370
   -1
100
AcDbLine
 10
7.5
 20
0
 11
10
 21
0
  0
ENDBLK
  5
A7
330
A5
100
AcDbEntity
  8
0
100
AcDbBlockEnd
  0
BLOCK
  5
A9
330
A8
100
AcDbEntity
  8
0
100
AcDbBlockBegin
  2
Resistor-1
 70
    0
 10
0
 20
0
  3
Resistor-1
  1

  0
LINE
  5
252
100
AcDbEntity
  8
Component
  6
ByLayer
 62
  256
370
   -1
100
AcDbLine
 10
0
 20
0
 11
2.5
 21
0
  0
LINE
  5
253
100
AcDbEntity
  8
Component
  6
ByLayer
 62
  256
370
   -1
100
AcDbLine
 10
2.5
 20
1
 11
2.5
 21
-1
  0
LINE
  5
254
100
AcDbEntity
  8
Component
  6
ByLayer
 62
  256
370
   -1
100
AcDbLine
 10
7.5
 20
1
 11
7.5
 21
-1
  0
LINE
  5
255
100
AcDbEntity
  8
Component
  6
ByLayer
 62
  256
370
   -1
100
AcDbLine
 10
2.5
 20
-1
 11
7.5
 21
-1
  0
LINE
  5
256
100
AcDbEntity
  8
Component
  6
ByLayer
 62
  256
370
   -1
100
AcDbLine
 10
2.5
 20
1
 11
7.5
 21
1
  0
LINE
  5
257
100
AcDbEntity
  8
Component
  6
ByLayer
 62
  256
370
   -1
100
AcDbLine
 10
7.5
 20
0
 11
10
 21
0
  0
ENDBLK
  5
AA
330
A8
100
AcDbEntity
  8
0
100
AcDbBlockEnd
  0
BLOCK
  5
AC
330
AB
100
AcDbEntity
  8
0
100
AcDbBlockBegin
  2
Resistor-2
 70
    0
 10
0
 20
0
  3
Resistor-2
  1

  0
LINE
  5
258
100
AcDbEntity
  8
Component
  6
ByLayer
 62
  256
370
   -1
100
AcDbLine
 10
0
 20
0
 11
2.5
 21
0
  0
LINE
  5
259
100
AcDbEntity
  8
Component
  6
ByLayer
 62
  256
370
   -1
100
AcDbLine
 10
2.5
 20
1
 11
2.5
 21
-1
  0
LINE
  5
25A
100
AcDbEntity
  8
Component
  6
ByLayer
 62
  256
370
   -1
100
AcDbLine
 10
7.5
 20
1
 11
7.5
 21
-1
  0
LINE
  5
25B
100
AcDbEntity
  8
Component
  6
ByLayer
 62
  256
370
   -1
100
AcDbLine
 10
2.5
 20
-1
 11
7.5
 21
-1
  0
LINE
  5
25C
100
AcDbEntity
  8
Component
  6
ByLayer
 62
  256
370
   -1
100
AcDbLine
 10
2.5
 20
1
 11
7.5
 21
1
  0
LINE
  5
25D
100
AcDbEntity
  8
Component
  6
ByLayer
 62
  256
370
   -1
100
AcDbLine
 10
7.5
 20
0
 11
10
 21
0
  0
ENDBLK
  5
AD
330
AB
100
AcDbEntity
  8
0
100
AcDbBlockEnd
  0
BLOCK
  5
AF
330
AE
100
AcDbEntity
  8
0
100
AcDbBlockBegin
  2
Resistor-3
 70
    0
 10
0
 20
0
  3
Resistor-3
  1

  0
LINE
  5
25E
100
AcDbEntity
  8
Component
  6
ByLayer
 62
  256
370
   -1
100
AcDbLine
 10
0
 20
0
 11
2.5
 21
0
  0
LINE
  5
25F
100
AcDbEntity
  8
Component
  6
ByLayer
 62
  256
370
   -1
100
AcDbLine
 10
2.5
 20
1
 11
2.5
 21
-1
  0
LINE
  5
260
100
AcDbEntity
  8
Component
  6
ByLayer
 62
  256
370
   -1
100
AcDbLine
 10
7.5
 20
1
 11
7.5
 21
-1
  0
LINE
  5
261
100
AcDbEntity
  8
Component
  6
ByLayer
 62
  256
370
   -1
100
AcDbLine
 10
2.5
 20
-1
 11
7.5
 21
-1
  0
LINE
  5
262
100
AcDbEntity
  8
Component
  6
ByLayer
 62
  256
370
   -1
100
AcDbLine
 10
2.5
 20
1
 11
7.5
 21
1
  0
LINE
  5
263
100
AcDbEntity
  8
Component
  6
ByLayer
 62
  256
370
   -1
100
AcDbLine
 10
7.5
 20
0
 11
10
 21
0
  0
ENDBLK
  5
B0
330
AE
100
AcDbEntity
  8
0
100
AcDbBlockEnd
  0
BLOCK
  5
B2
330
B1
100
AcDbEntity
  8
0
100
AcDbBlockBegin
  2
Resistor-4
 70
    0
 10
0
 20
0
  3
Resistor-4
  1

  0
LINE
  5
264
100
AcDbEntity
  8
Component
  6
ByLayer
 62
  256
370
   -1
100
AcDbLine
 10
0
 20
0
 11
2.5
 21
0
  0
LINE
  5
265
100
AcDbEntity
  8
Component
  6
ByLayer
 62
  256
370
   -1
100
AcDbLine
 10
2.5
 20
1
 11
2.5
 21
-1
  0
LINE
  5
266
100
AcDbEntity
  8
Component
  6
ByLayer
 62
  256
370
   -1
100
AcDbLine
 10
7.5
 20
1
 11
7.5
 21
-1
  0
LINE
  5
267
100
AcDbEntity
  8
Component
  6
ByLayer
 62
  256
370
   -1
100
AcDbLine
 10
2.5
 20
-1
 11
7.5
 21
-1
  0
LINE
  5
268
100
AcDbEntity
  8
Component
  6
ByLayer
 62
  256
370
   -1
100
AcDbLine
 10
2.5
 20
1
 11
7.5
 21
1
  0
LINE
  5
269
100
AcDbEntity
  8
Component
  6
ByLayer
 62
  256
370
   -1
100
AcDbLine
 10
7.5
 20
0
 11
10
 21
0
  0
ENDBLK
  5
B3
330
B1
100
AcDbEntity
  8
0
100
AcDbBlockEnd
  0
BLOCK
  5
B5
330
B4
100
AcDbEntity
  8
0
100
AcDbBlockBegin
  2
Resistor-5
 70
    0
 10
0
 20
0
  3
Resistor-5
  1

  0
LINE
  5
26A
100
AcDbEntity
  8
Component
  6
ByLayer
 62
  256
370
   -1
100
AcDbLine
 10
0
 20
0
 11
2.5
 21
0
  0
LINE
  5
26B
100
AcDbEntity
  8
Component
  6
ByLayer
 62
  256
370
   -1
100
AcDbLine
 10
2.5
 20
1
 11
2.5
 21
-1
  0
LINE
  5
26C
100
AcDbEntity
  8
Component
  6
ByLayer
 62
  256
370
   -1
100
AcDbLine
 10
7.5
 20
1
 11
7.5
 21
-1
  0
LINE
  5
26D
100
AcDbEntity
  8
Component
  6
ByLayer
 62
  256
370
   -1
100
AcDbLine
 10
2.5
 20
-1
 11
7.5
 21
-1
  0
LINE
  5
26E
100
AcDbEntity
  8
Component
  6
ByLayer
 62
  256
370
   -1
100
AcDbLine
 10
2.5
 20
1
 11
7.5
 21
1
  0
LINE
  5
26F
100
AcDbEntity
  8
Component
  6
ByLayer
 62
  256
370
   -1
100
AcDbLine
 10
7.5
 20
0
 11
10
 21
0
  0
ENDBLK
  5
B6
330
B4
100
AcDbEntity
  8
0
100
AcDbBlockEnd
  0
BLOCK
  5
B8
330
B7
100
AcDbEntity
  8
0
100
AcDbBlockBegin
  2
Resistor-6
 70
    0
 10
0
 20
0
  3
Resistor-6
  1

  0
LINE
  5
270
100
AcDbEntity
  8
Component
  6
ByLayer
 62
  256
370
   -1
100
AcDbLine
 10
0
 20
0
 11
2.5
 21
0
  0
LINE
  5
271
100
AcDbEntity
  8
Component
  6
ByLayer
 62
  256
370
   -1
100
AcDbLine
 10
2.5
 20
1
 11
2.5
 21
-1
  0
LINE
  5
272
100
AcDbEntity
  8
Component
  6
ByLayer
 62
  256
370
   -1
100
AcDbLine
 10
7.5
 20
1
 11
7.5
 21
-1
  0
LINE
  5
273
100
AcDbEntity
  8
Component
  6
ByLayer
 62
  256
370
   -1
100
AcDbLine
 10
2.5
 20
-1
 11
7.5
 21
-1
  0
LINE
  5
274
100
AcDbEntity
  8
Component
  6
ByLayer
 62
  256
370
   -1
100
AcDbLine
 10
2.5
 20
1
 11
7.5
 21
1
  0
LINE
  5
275
100
AcDbEntity
  8
Component
  6
ByLayer
 62
  256
370
   -1
100
AcDbLine
 10
7.5
 20
0
 11
10
 21
0
  0
ENDBLK
  5
B9
330
B7
100
AcDbEntity
  8
0
100
AcDbBlockEnd
  0
BLOCK
  5
BB
330
BA
100
AcDbEntity
  8
0
100
AcDbBlockBegin
  2
Resistor-7
 70
    0
 10
0
 20
0
  3
Resistor-7
  1

  0
LINE
  5
276
100
AcDbEntity
  8
Component
  6
ByLayer
 62
  256
370
   -1
100
AcDbLine
 10
0
 20
0
 11
2.5
 21
0
  0
LINE
  5
277
100
AcDbEntity
  8
Component
  6
ByLayer
 62
  256
370
   -1
100
AcDbLine
 10
2.5
 20
1
 11
2.5
 21
-1
  0
LINE
  5
278
100
AcDbEntity
  8
Component
  6
ByLayer
 62
  256
370
   -1
100
AcDbLine
 10
7.5
 20
1
 11
7.5
 21
-1
  0
LINE
  5
279
100
AcDbEntity
  8
Component
  6
ByLayer
 62
  256
370
   -1
100
AcDbLine
 10
2.5
 20
-1
 11
7.5
 21
-1
  0
LINE
  5
27A
100
AcDbEntity
  8
Component
  6
ByLayer
 62
  256
370
   -1
100
AcDbLine
 10
2.5
 20
1
 11
7.5
 21
1
  0
LINE
  5
27B
100
AcDbEntity
  8
Component
  6
ByLayer
 62
  256
370
   -1
100
AcDbLine
 10
7.5
 20
0
 11
10
 21
0
  0
ENDBLK
  5
BC
330
BA
100
AcDbEntity
  8
0
100
AcDbBlockEnd
  0
BLOCK
  5
BE
330
BD
100
AcDbEntity
  8
0
100
AcDbBlockBegin
  2
Resistor-8
 70
    0
 10
0
 20
0
  3
Resistor-8
  1

  0
LINE
  5
27C
100
AcDbEntity
  8
Component
  6
ByLayer
 62
  256
370
   -1
100
AcDbLine
 10
0
 20
0
 11
2.5
 21
0
  0
LINE
  5
27D
100
AcDbEntity
  8
Component
  6
ByLayer
 62
  256
370
   -1
100
AcDbLine
 10
2.5
 20
1
 11
2.5
 21
-1
  0
LINE
  5
27E
100
AcDbEntity
  8
Component
  6
ByLayer
 62
  256
370
   -1
100
AcDbLine
 10
7.5
 20
1
 11
7.5
 21
-1
  0
LINE
  5
27F
100
AcDbEntity
  8
Component
  6
ByLayer
 62
  256
370
   -1
100
AcDbLine
 10
2.5
 20
-1
 11
7.5
 21
-1
  0
LINE
  5
280
100
AcDbEntity
  8
Component
  6
ByLayer
 62
  256
370
   -1
100
AcDbLine
 10
2.5
 20
1
 11
7.5
 21
1
  0
LINE
  5
281
100
AcDbEntity
  8
Component
  6
ByLayer
 62
  256
370
   -1
100
AcDbLine
 10
7.5
 20
0
 11
10
 21
0
  0
ENDBLK
  5
BF
330
BD
100
AcDbEntity
  8
0
100
AcDbBlockEnd
  0
BLOCK
  5
C1
330
C0
100
AcDbEntity
  8
0
100
AcDbBlockBegin
  2
Resistor-9
 70
    0
 10
0
 20
0
  3
Resistor-9
  1

  0
LINE
  5
282
100
AcDbEntity
  8
Component
  6
ByLayer
 62
  256
370
   -1
100
AcDbLine
 10
0
 20
0
 11
2.5
 21
0
  0
LINE
  5
283
100
AcDbEntity
  8
Component
  6
ByLayer
 62
  256
370
   -1
100
AcDbLine
 10
2.5
 20
1
 11
2.5
 21
-1
  0
LINE
  5
284
100
AcDbEntity
  8
Component
  6
ByLayer
 62
  256
370
   -1
100
AcDbLine
 10
7.5
 20
1
 11
7.5
 21
-1
  0
LINE
  5
285
100
AcDbEntity
  8
Component
  6
ByLayer
 62
  256
370
   -1
100
AcDbLine
 10
2.5
 20
-1
 11
7.5
 21
-1
  0
LINE
  5
286
100
AcDbEntity
  8
Component
  6
ByLayer
 62
  256
370
   -1
100
AcDbLine
 10
2.5
 20
1
 11
7.5
 21
1
  0
LINE
  5
287
100
AcDbEntity
  8
Component
  6
ByLayer
 62
  256
370
   -1
100
AcDbLine
 10
7.5
 20
0
 11
10
 21
0
  0
ENDBLK
  5
C2
330
C0
100
AcDbEntity
  8
0
100
AcDbBlockEnd
  0
BLOCK
  5
C4
330
C3
100
AcDbEntity
  8
0
100
AcDbBlockBegin
  2
Resistor-10
 70
    0
 10
0
 20
0
  3
Resistor-10
  1

  0
LINE
  5
288
100
AcDbEntity
  8
Component
  6
ByLayer
 62
  256
370
   -1
100
AcDbLine
 10
0
 20
0
 11
2.5
 21
0
  0
LINE
  5
289
100
AcDbEntity
  8
Component
  6
ByLayer
 62
  256
370
   -1
100
AcDbLine
 10
2.5
 20
1
 11
2.5
 21
-1
  0
LINE
  5
28A
100
AcDbEntity
  8
Component
  6
ByLayer
 62
  256
370
   -1
100
AcDbLine
 10
7.5
 20
1
 11
7.5
 21
-1
  0
LINE
  5
28B
100
AcDbEntity
  8
Component
  6
ByLayer
 62
  256
370
   -1
100
AcDbLine
 10
2.5
 20
-1
 11
7.5
 21
-1
  0
LINE
  5
28C
100
AcDbEntity
  8
Component
  6
ByLayer
 62
  256
370
   -1
100
AcDbLine
 10
2.5
 20
1
 11
7.5
 21
1
  0
LINE
  5
28D
100
AcDbEntity
  8
Component
  6
ByLayer
 62
  256
370
   -1
100
AcDbLine
 10
7.5
 20
0
 11
10
 21
0
  0
ENDBLK
  5
C5
330
C3
100
AcDbEntity
  8
0
100
AcDbBlockEnd
  0
ENDSEC
  0
SECTION
  2
ENTITIES
  0
IMAGE
  5
290
100
AcDbEntity
  8
0
  6
ByLayer
 62
  256
370
   -1
100
AcDbRasterImage
 10
803.8399999999999
 20
9.289999999999999
 30
0
 11
0.02870813397129187
 21
0
 31
0
 12
1.757866218871799e-18
 22
0.02870813397129187
 32
0
 13
1000
 23
418
340
28E
 70
    1
280
    0
281
   50
282
   50
283
    0
360
28F
  0
IMAGE
  5
292
100
AcDbEntity
  8
0
  6
ByLayer
 62
  256
370
   -1
100
AcDbRasterImage
 10
383.84
 20
9.289999999999999
 30
0
 11
0.02870813397129187
 21
0
 31
0
 12
1.757866218871799e-18
 22
0.02870813397129187
 32
0
 13
1000
 23
418
340
28E
 70
    1
280
    0
281
   50
282
   50
283
    0
360
291
  0
MTEXT
  5
293
100
AcDbEntity
  8
0
  6
ByLayer
 62
  256
370
   -1
100
AcDbMText
 10
185.906682076805
 20
25.5
 30
0
 40
2.5
 41
18.81944444444495
 71
    1
 72
    1
  1
Drawing Nr:
  7
standard
210
0
220
0
230
1
 50
0
 73
    2
 44
1
  0
MTEXT
  5
294
100
AcDbEntity
  8
0
  6
ByLayer
 62
  256
370
   -1
100
AcDbMText
 10
297.7006547337471
 20
25.5
 30
0
 40
2.5
 41
18.54166666666702
 71
    1
 72
    1
  1
Original By:
  7
standard
210
0
220
0
230
1
 50
0
 73
    2
 44
1
  0
MTEXT
  5
295
100
AcDbEntity
  8
0
  6
ByLayer
 62
  256
370
   -1
100
AcDbMText
 10
228.8096726390345
 20
25.4
 30
0
 40
2.5
 41
19.6527777777779
 71
    1
 72
    1
  1
Updated By:
  7
standard
210
0
220
0
230
1
 50
0
 73
    2
 44
1
  0
MTEXT
  5
296
100
AcDbEntity
  8
0
  6
ByLayer
 62
  256
370
   -1
100
AcDbMText
 10
104.5993080010511
 20
25.5
 30
0
 40
2.5
 41
23.54166666666741
 71
    1
 72
    1
  1
Drawing Name:
  7
standard
210
0
220
0
230
1
 50
0
 73
    2
 44
1
  0
MTEXT
  5
297
100
AcDbEntity
  8
0
  6
ByLayer
 62
  256
370
   -1
100
AcDbMText
 10
6.000000000000001
 20
25.5
 30
0
 40
2.5
 41
7.777777777778049
 71
    1
 72
    1
  1
Date:
  7
standard
210
0
220
0
230
1
 50
0
 73
    2
 44
1
  0
MTEXT
  5
298
100
AcDbEntity
  8
0
  6
ByLayer
 62
  256
370
   -1
100
AcDbMText
 10
41.5
 20
25.5
 30
0
 40
2.5
 41
6.111111111111112
 71
    1
 72
    1
  1
Ver:
  7
standard
210
0
220
0
230
1
 50
0
 73
    2
 44
1
  0
MTEXT
  5
299
100
AcDbEntity
  8
0
  6
ByLayer
 62
  256
370
   -1
100
AcDbMText
 10
54.55555555555556
 20
25.5
 30
0
 40
2.5
 41
5.555555555555555
 71
    1
 72
    1
  1
Ext:
  7
standard
210
0
220
0
230
1
 50
0
 73
    2
 44
1
  0
MTEXT
  5
29A
100
AcDbEntity
  8
0
  6
ByLayer
 62
  256
370
   -1
100
AcDbMText
 10
66.97777777777777
 20
25.5
 30
0
 40
2.5
 41
4.166666666666667
 71
    1
 72
    1
  1
By:
  7
standard
210
0
220
0
230
1
 50
0
 73
    2
 44
1
  0
LINE
  5
29B
100
AcDbEntity
  8
0
  6
ByLayer
 62
  256
370
   -3
100
AcDbLine
 10
144.75
 20
5
 11
144.75
 21
9.23
  0
LINE
  5
29C
100
AcDbEntity
  8
0
  6
ByLayer
 62
  256
370
   -1
100
AcDbLine
 10
297.2
 20
5
 11
297.2
 21
21.92
  0
LINE
  5
29D
100
AcDbEntity
  8
0
  6
ByLayer
 62
  256
370
   -1
100
AcDbLine
 10
297.2
 20
26.15
 11
297.2
 21
21.92
  0
LINE
  5
29E
100
AcDbEntity
  8
0
  6
ByLayer
 62
  256
370
   70
100
AcDbLine
 10
414
 20
5
 11
414
 21
292
  0
LINE
  5
29F
100
AcDbEntity
  8
0
  6
ByLayer
 62
  256
370
   70
100
AcDbLine
 10
5
 20
5
 11
414
 21
5
  0
LINE
  5
2A0
100
AcDbEntity
  8
0
  6
ByLayer
 62
  256
370
   70
100
AcDbLine
 10
5
 20
292
 11
5
 21
5
  0
LINE
  5
2A1
100
AcDbEntity
  8
0
  6
ByLayer
 62
  256
370
   70
100
AcDbLine
 10
414
 20
292
 11
5
 21
292
  0
LINE
  5
2A2
100
AcDbEntity
  8
0
  6
ByLayer
 62
  256
370
   70
100
AcDbLine
 10
5
 20
26.15
 11
414
 21
26.15
  0
LINE
  5
2A3
100
AcDbEntity
  8
0
  6
ByLayer
 62
  256
370
   -1
100
AcDbLine
 10
228.6
 20
26.15
 11
228.6
 21
21.92
  0
LINE
  5
2A4
100
AcDbEntity
  8
0
  6
ByLayer
 62
  256
370
   -1
100
AcDbLine
 10
228.6
 20
5
 11
228.6
 21
21.92
  0
LINE
  5
2A5
100
AcDbEntity
  8
0
  6
ByLayer
 62
  256
370
   -1
100
AcDbLine
 10
185.4
 20
21.92
 11
185.4
 21
5
  0
LINE
  5
2A6
100
AcDbEntity
  8
0
  6
ByLayer
 62
  256
370
   -1
100
AcDbLine
 10
185.4
 20
26.15
 11
185.4
 21
21.92
  0
LINE
  5
2A7
100
AcDbEntity
  8
0
  6
ByLayer
 62
  256
370
   -1
100
AcDbLine
 10
104.1
 20
26.15
 11
104.1
 21
5
  0
LINE
  5
2A8
100
AcDbEntity
  8
0
  6
ByLayer
 62
  256
370
   -1
100
AcDbLine
 10
5
 20
17.69
 11
104.1
 21
17.69
  0
LINE
  5
2A9
100
AcDbEntity
  8
0
  6
ByLayer
 62
  256
370
   -1
100
AcDbLine
 10
5
 20
13.46
 11
104.1
 21
13.46
  0
LINE
  5
2AA
100
AcDbEntity
  8
0
  6
ByLayer
 62
  256
370
   -1
100
AcDbLine
 10
5
 20
9.23
 11
104.1
 21
9.23
  0
LINE
  5
2AB
100
AcDbEntity
  8
0
  6
ByLayer
 62
  256
370
   -1
100
AcDbLine
 10
40.5
 20
26.15
 11
40.5
 21
5
  0
LINE
  5
2AC
100
AcDbEntity
  8
0
  6
ByLayer
 62
  256
370
   -1
100
AcDbLine
 10
53.5
 20
5
 11
53.5
 21
26.15
  0
LINE
  5
2AD
100
AcDbEntity
  8
0
  6
ByLayer
 62
  256
370
   -1
100
AcDbLine
 10
66
 20
5
 11
66
 21
26.15
  0
LINE
  5
2AE
100
AcDbEntity
  8
0
  6
ByLayer
 62
  256
370
   70
100
AcDbLine
 10
0
 20
200
 11
5
 21
200
  0
LINE
  5
2AF
100
AcDbEntity
  8
0
  6
ByLayer
 62
  256
370
   70
100
AcDbLine
 10
0
 20
100
 11
5
 21
100
  0
LINE
  5
2B0
100
AcDbEntity
  8
0
  6
ByLayer
 62
  256
370
   70
100
AcDbLine
 10
0
 20
150
 11
5
 21
150
  0
LINE
  5
2B1
100
AcDbEntity
  8
0
  6
ByLayer
 62
  256
370
   70
100
AcDbLine
 10
0
 20
250
 11
5
 21
250
  0
LINE
  5
2B2
100
AcDbEntity
  8
0
  6
ByLayer
 62
  256
370
   70
100
AcDbLine
 10
0
 20
50
 11
5
 21
50
  0
LINE
  5
2B3
100
AcDbEntity
  8
0
  6
ByLayer
 62
  256
370
   70
100
AcDbLine
 10
420
 20
100
 11
414
 21
100
  0
LINE
  5
2B4
100
AcDbEntity
  8
0
  6
ByLayer
 62
  256
370
   70
100
AcDbLine
 10
420
 20
50
 11
414
 21
50
  0
LINE
  5
2B5
100
AcDbEntity
  8
0
  6
ByLayer
 62
  256
370
   70
100
AcDbLine
 10
420
 20
150
 11
414
 21
150
  0
LINE
  5
2B6
100
AcDbEntity
  8
0
  6
ByLayer
 62
  256
370
   70
100
AcDbLine
 10
420
 20
200
 11
414
 21
200
  0
LINE
  5
2B7
100
AcDbEntity
  8
0
  6
ByLayer
 62
  256
370
   70
100
AcDbLine
 10
420
 20
250
 11
414
 21
250
  0
LINE
  5
2B8
100
AcDbEntity
  8
0
  6
ByLayer
 62
  256
370
   70
100
AcDbLine
 10
400
 20
0
 11
400
 21
5
  0
LINE
  5
2B9
100
AcDbEntity
  8
0
  6
ByLayer
 62
  256
370
   70
100
AcDbLine
 10
300
 20
0
 11
300
 21
5
  0
LINE
  5
2BA
100
AcDbEntity
  8
0
  6
ByLayer
 62
  256
370
   70
100
AcDbLine
 10
350
 20
0
 11
350
 21
5
  0
LINE
  5
2BB
100
AcDbEntity
  8
0
  6
ByLayer
 62
  256
370
   70
100
AcDbLine
 10
250
 20
0
 11
250
 21
5
  0
LINE
  5
2BC
100
AcDbEntity
  8
0
  6
ByLayer
 62
  256
370
   70
100
AcDbLine
 10
200
 20
0
 11
200
 21
5
  0
LINE
  5
2BD
100
AcDbEntity
  8
0
  6
ByLayer
 62
  256
370
   70
100
AcDbLine
 10
150
 20
0
 11
150
 21
5
  0
LINE
  5
2BE
100
AcDbEntity
  8
0
  6
ByLayer
 62
  256
370
   70
100
AcDbLine
 10
100
 20
0
 11
100
 21
5
  0
LINE
  5
2BF
100
AcDbEntity
  8
0
  6
ByLayer
 62
  256
370
   70
100
AcDbLine
 10
50
 20
0
 11
50
 21
5
  0
LINE
  5
2C0
100
AcDbEntity
  8
0
  6
ByLayer
 62
  256
370
   70
100
AcDbLine
 10
400
 20
300
 11
400
 21
292
  0
LINE
  5
2C1
100
AcDbEntity
  8
0
  6
ByLayer
 62
  256
370
   70
100
AcDbLine
 10
350
 20
300
 11
350
 21
292
  0
LINE
  5
2C2
100
AcDbEntity
  8
0
  6
ByLayer
 62
  256
370
   70
100
AcDbLine
 10
300
 20
300
 11
300
 21
292
  0
LINE
  5
2C3
100
AcDbEntity
  8
0
  6
ByLayer
 62
  256
370
   70
100
AcDbLine
 10
50
 20
300
 11
50
 21
292
  0
LINE
  5
2C4
100
AcDbEntity
  8
0
  6
ByLayer
 62
  256
370
   70
100
AcDbLine
 10
100
 20
300
 11
100
 21
292
  0
LINE
  5
2C5
100
AcDbEntity
  8
0
  6
ByLayer
 62
  256
370
   70
100
AcDbLine
 10
200
 20
300
 11
200
 21
292
  0
LINE
  5
2C6
100
AcDbEntity
  8
0
  6
ByLayer
 62
  256
370
   70
100
AcDbLine
 10
250
 20
300
 11
250
 21
292
  0
LINE
  5
2C7
100
AcDbEntity
  8
0
  6
ByLayer
 62
  256
370
   70
100
AcDbLine
 10
150
 20
300
 11
150
 21
292
  0
LINE
  5
2C8
100
AcDbEntity
  8
0
  6
ByLayer
 62
  256
370
   50
100
AcDbLine
 10
5
 20
21.92
 11
414
 21
21.92
  0
LINE
  5
2C9
100
AcDbEntity
  8
0
  6
ByLayer
 62
  256
370
   -1
100
AcDbLine
 10
104.1
 20
9.23
 11
414
 21
9.23
  0
LINE
  5
2CA
100
AcDbEntity
  8
0
  6
ByLayer
 62
  256
370
   -1
100
AcDbLine
 10
383.7
 20
26
 11
383.7
 21
5
  0
LINE
  5
2CB
100
AcDbEntity
  8
0
  6
ByLayer
 62
  256
370
   13
100
AcDbLine
 10
383.7
 20
9.300000000000001
 11
413.7
 21
9.300000000000001
  0
LINE
  5
2CC
100
AcDbEntity
  8
0
  6
ByLayer
 62
  256
370
   18
100
AcDbLine
 10
383.76
 20
9.300000000000001
 11
383.76
 21
21.7
  0
LINE
  5
2CD
100
AcDbEntity
  8
0
  6
ByLayer
 62
  256
370
   50
100
AcDbLine
 10
383.9
 20
21.5
 11
413.7
 21
21.5
  0
INSERT
  5
2CE
100
AcDbEntity
  8
Component
  6
ByLayer
 62
  256
370
   -1
100
AcDbBlockReference
  2
Hall Sensor-7
 10
200
 20
270
 30
0
 41
1
 42
1
 43
0
 50
0
 70
    1
 71
    1
 44
0
 45
0
  0
INSERT
  5
2CF
100
AcDbEntity
  8
Component
  6
ByLayer
 62
  256
370
   -1
100
AcDbBlockReference
  2
Hall Sensor-8
 10
250
 20
270
 30
0
 41
1
 42
1
 43
0
 50
0
 70
    1
 71
    1
 44
0
 45
0
  0
INSERT
  5
2D0
100
AcDbEntity
  8
Component
  6
ByLayer
 62
  256
370
   -1
100
AcDbBlockReference
  2
Hall Sensor-9
 10
300
 20
270
 30
0
 41
1
 42
1
 43
0
 50
0
 70
    1
 71
    1
 44
0
 45
0
  0
INSERT
  5
2D1
100
AcDbEntity
  8
Component
  6
ByLayer
 62
  256
370
   -1
100
AcDbBlockReference
  2
Hall Sensor-8
 10
350
 20
270
 30
0
 41
1
 42
1
 43
0
 50
0
 70
    1
 71
    1
 44
0
 45
0
  0
INSERT
  5
2D2
100
AcDbEntity
  8
Component
  6
ByLayer
 62
  256
370
   -1
100
AcDbBlockReference
  2
Hall Sensor-7
 10
300
 20
240
 30
0
 41
1
 42
1
 43
0
 50
0
 70
    1
 71
    1
 44
0
 45
0
  0
INSERT
  5
2D3
100
AcDbEntity
  8
Component
  6
ByLayer
 62
  256
370
   -1
100
AcDbBlockReference
  2
Hall Sensor-8
 10
350
 20
240
 30
0
 41
1
 42
1
 43
0
 50
0
 70
    1
 71
    1
 44
0
 45
0
  0
INSERT
  5
2D4
100
AcDbEntity
  8
Component
  6
ByLayer
 62
  256
370
   -1
100
AcDbBlockReference
  2
Hall Sensor-7
 10
200
 20
240
 30
0
 41
1
 42
1
 43
0
 50
0
 70
    1
 71
    1
 44
0
 45
0
  0
INSERT
  5
2D5
100
AcDbEntity
  8
Component
  6
ByLayer
 62
  256
370
   -1
100
AcDbBlockReference
  2
Hall Sensor-8
 10
250
 20
240
 30
0
 41
1
 42
1
 43
0
 50
0
 70
    1
 71
    1
 44
0
 45
0
  0
INSERT
  5
2D6
100
AcDbEntity
  8
Component
  6
ByLayer
 62
  256
370
   -1
100
AcDbBlockReference
  2
Hall Sensor-7
 10
200
 20
210
 30
0
 41
1
 42
1
 43
0
 50
0
 70
    1
 71
    1
 44
0
 45
0
  0
INSERT
  5
2D7
100
AcDbEntity
  8
Component
  6
ByLayer
 62
  256
370
   -1
100
AcDbBlockReference
  2
Hall Sensor-8
 10
250
 20
210
 30
0
 41
1
 42
1
 43
0
 50
0
 70
    1
 71
    1
 44
0
 45
0
  0
INSERT
  5
2D8
100
AcDbEntity
  8
Component
  6
ByLayer
 62
  256
370
   -1
100
AcDbBlockReference
  2
Hall Sensor-7
 10
200
 20
180
 30
0
 41
1
 42
1
 43
0
 50
0
 70
    1
 71
    1
 44
0
 45
0
  0
INSERT
  5
2D9
100
AcDbEntity
  8
Component
  6
ByLayer
 62
  256
370
   -1
100
AcDbBlockReference
  2
Hall Sensor-8
 10
250
 20
180
 30
0
 41
1
 42
1
 43
0
 50
0
 70
    1
 71
    1
 44
0
 45
0
  0
INSERT
  5
2DA
100
AcDbEntity
  8
Component
  6
ByLayer
 62
  256
370
   -1
100
AcDbBlockReference
  2
Hall Sensor-7
 10
300
 20
210
 30
0
 41
1
 42
1
 43
0
 50
0
 70
    1
 71
    1
 44
0
 45
0
  0
INSERT
  5
2DB
100
AcDbEntity
  8
Component
  6
ByLayer
 62
  256
370
   -1
100
AcDbBlockReference
  2
Hall Sensor-8
 10
350
 20
210
 30
0
 41
1
 42
1
 43
0
 50
0
 70
    1
 71
    1
 44
0
 45
0
  0
INSERT
  5
2DC
100
AcDbEntity
  8
Component
  6
ByLayer
 62
  256
370
   -1
100
AcDbBlockReference
  2
Hall Sensor-7
 10
300
 20
180
 30
0
 41
1
 42
1
 43
0
 50
0
 70
    1
 71
    1
 44
0
 45
0
  0
INSERT
  5
2DD
100
AcDbEntity
  8
Component
  6
ByLayer
 62
  256
370
   -1
100
AcDbBlockReference
  2
Hall Sensor-8
 10
350
 20
180
 30
0
 41
1
 42
1
 43
0
 50
0
 70
    1
 71
    1
 44
0
 45
0
  0
LINE
  5
2DE
100
AcDbEntity
  8
Ref
  6
ByLayer
 62
  256
370
   -1
100
AcDbLine
 10
375
 20
270
 11
370
 21
270
  0
LINE
  5
2DF
100
AcDbEntity
  8
Ref
  6
ByLayer
 62
  256
370
   -1
100
AcDbLine
 10
370
 20
180
 11
375
 21
180
  0
LINE
  5
2E0
100
AcDbEntity
  8
Ref
  6
ByLayer
 62
  256
370
   -1
100
AcDbLine
 10
370
 20
210
 11
375
 21
210
  0
LINE
  5
2E1
100
AcDbEntity
  8
Ref
  6
ByLayer
 62
  256
370
   -1
100
AcDbLine
 10
370
 20
240
 11
375
 21
240
  0
LINE
  5
2E2
100
AcDbEntity
  8
Ref
  6
ByLayer
 62
  256
370
   -1
100
AcDbLine
 10
325
 20
270
 11
320
 21
270
  0
LINE
  5
2E3
100
AcDbEntity
  8
Ref
  6
ByLayer
 62
  256
370
   -1
100
AcDbLine
 10
320
 20
180
 11
325
 21
180
  0
LINE
  5
2E4
100
AcDbEntity
  8
Ref
  6
ByLayer
 62
  256
370
   -1
100
AcDbLine
 10
320
 20
210
 11
325
 21
210
  0
LINE
  5
2E5
100
AcDbEntity
  8
Ref
  6
ByLayer
 62
  256
370
   -1
100
AcDbLine
 10
320
 20
240
 11
325
 21
240
  0
LINE
  5
2E6
100
AcDbEntity
  8
Ref
  6
ByLayer
 62
  256
370
   -1
100
AcDbLine
 10
275
 20
270
 11
270
 21
270
  0
LINE
  5
2E7
100
AcDbEntity
  8
Ref
  6
ByLayer
 62
  256
370
   -1
100
AcDbLine
 10
270
 20
180
 11
275
 21
180
  0
LINE
  5
2E8
100
AcDbEntity
  8
Ref
  6
ByLayer
 62
  256
370
   -1
100
AcDbLine
 10
270
 20
210
 11
275
 21
210
  0
LINE
  5
2E9
100
AcDbEntity
  8
Ref
  6
ByLayer
 62
  256
370
   -1
100
AcDbLine
 10
270
 20
240
 11
275
 21
240
  0
LINE
  5
2EA
100
AcDbEntity
  8
Ref
  6
ByLayer
 62
  256
370
   -1
100
AcDbLine
 10
225
 20
270
 11
220
 21
270
  0
LINE
  5
2EB
100
AcDbEntity
  8
Ref
  6
ByLayer
 62
  256
370
   -1
100
AcDbLine
 10
220
 20
180
 11
225
 21
180
  0
LINE
  5
2EC
100
AcDbEntity
  8
Ref
  6
ByLayer
 62
  256
370
   -1
100
AcDbLine
 10
220
 20
210
 11
225
 21
210
  0
LINE
  5
2ED
100
AcDbEntity
  8
Ref
  6
ByLayer
 62
  256
370
   -1
100
AcDbLine
 10
220
 20
240
 11
225
 21
240
  0
LINE
  5
2EE
100
AcDbEntity
  8
Signal
  6
ByLayer
 62
  256
370
   -1
100
AcDbLine
 10
308
 20
254
 11
310
 21
256
  0
LINE
  5
2EF
100
AcDbEntity
  8
Signal
  6
ByLayer
 62
  256
370
   -1
100
AcDbLine
 10
310
 20
256
 11
310
 21
260
  0
LINE
  5
2F0
100
AcDbEntity
  8
Signal
  6
ByLayer
 62
  256
370
   -1
100
AcDbLine
 10
260
 20
260
 11
260
 21
258
  0
LINE
  5
2F1
100
AcDbEntity
  8
Signal
  6
ByLayer
 62
  256
370
   -1
100
AcDbLine
 10
260
 20
258
 11
258
 21
256
  0
LINE
  5
2F2
100
AcDbEntity
  8
Signal
  6
ByLayer
 62
  256
370
   -1
100
AcDbLine
 10
208
 20
258
 11
210
 21
260
  0
LINE
  5
2F3
100
AcDbEntity
  8
Signal
  6
ByLayer
 62
  256
370
   -1
100
AcDbLine
 10
358
 20
252
 11
360
 21
254
  0
LINE
  5
2F4
100
AcDbEntity
  8
Signal
  6
ByLayer
 62
  256
370
   -1
100
AcDbLine
 10
360
 20
254
 11
360
 21
260
  0
LINE
  5
2F5
100
AcDbEntity
  8
Signal
  6
ByLayer
 62
  256
370
   -1
100
AcDbLine
 10
308
 20
224
 11
310
 21
226
  0
LINE
  5
2F6
100
AcDbEntity
  8
Signal
  6
ByLayer
 62
  256
370
   -1
100
AcDbLine
 10
310
 20
226
 11
310
 21
230
  0
LINE
  5
2F7
100
AcDbEntity
  8
Signal
  6
ByLayer
 62
  256
370
   -1
100
AcDbLine
 10
260
 20
230
 11
260
 21
228
  0
LINE
  5
2F8
100
AcDbEntity
  8
Signal
  6
ByLayer
 62
  256
370
   -1
100
AcDbLine
 10
260
 20
228
 11
258
 21
226
  0
LINE
  5
2F9
100
AcDbEntity
  8
Signal
  6
ByLayer
 62
  256
370
   -1
100
AcDbLine
 10
208
 20
228
 11
210
 21
230
  0
LINE
  5
2FA
100
AcDbEntity
  8
Signal
  6
ByLayer
 62
  256
370
   -1
100
AcDbLine
 10
358
 20
222
 11
360
 21
224
  0
LINE
  5
2FB
100
AcDbEntity
  8
Signal
  6
ByLayer
 62
  256
370
   -1
100
AcDbLine
 10
360
 20
224
 11
360
 21
230
  0
LINE
  5
2FC
100
AcDbEntity
  8
Signal
  6
ByLayer
 62
  256
370
   -1
100
AcDbLine
 10
308
 20
194
 11
310
 21
196
  0
LINE
  5
2FD
100
AcDbEntity
  8
Signal
  6
ByLayer
 62
  256
370
   -1
100
AcDbLine
 10
310
 20
196
 11
310
 21
200
  0
LINE
  5
2FE
100
AcDbEntity
  8
Signal
  6
ByLayer
 62
  256
370
   -1
100
AcDbLine
 10
260
 20
200
 11
260
 21
198
  0
LINE
  5
2FF
100
AcDbEntity
  8
Signal
  6
ByLayer
 62
  256
370
   -1
100
AcDbLine
 10
260
 20
198
 11
258
 21
196
  0
LINE
  5
300
100
AcDbEntity
  8
Signal
  6
ByLayer
 62
  256
370
   -1
100
AcDbLine
 10
208
 20
198
 11
210
 21
200
  0
LINE
  5
301
100
AcDbEntity
  8
Signal
  6
ByLayer
 62
  256
370
   -1
100
AcDbLine
 10
358
 20
192
 11
360
 21
194
  0
LINE
  5
302
100
AcDbEntity
  8
Signal
  6
ByLayer
 62
  256
370
   -1
100
AcDbLine
 10
360
 20
194
 11
360
 21
200
  0
LINE
  5
303
100
AcDbEntity
  8
Signal
  6
ByLayer
 62
  256
370
   -1
100
AcDbLine
 10
308
 20
164
 11
310
 21
166
  0
LINE
  5
304
100
AcDbEntity
  8
Signal
  6
ByLayer
 62
  256
370
   -1
100
AcDbLine
 10
310
 20
166
 11
310
 21
170
  0
LINE
  5
305
100
AcDbEntity
  8
Signal
  6
ByLayer
 62
  256
370
   -1
100
AcDbLine
 10
260
 20
170
 11
260
 21
168
  0
LINE
  5
306
100
AcDbEntity
  8
Signal
  6
ByLayer
 62
  256
370
   -1
100
AcDbLine
 10
260
 20
168
 11
258
 21
166
  0
LINE
  5
307
100
AcDbEntity
  8
Signal
  6
ByLayer
 62
  256
370
   -1
100
AcDbLine
 10
208
 20
168
 11
210
 21
170
  0
LINE
  5
308
100
AcDbEntity
  8
Signal
  6
ByLayer
 62
  256
370
   -1
100
AcDbLine
 10
358
 20
162
 11
360
 21
164
  0
LINE
  5
309
100
AcDbEntity
  8
Signal
  6
ByLayer
 62
  256
370
   -1
100
AcDbLine
 10
360
 20
164
 11
360
 21
170
  0
POINT
  5
30A
100
AcDbEntity
  8
Signal
  6
ByLayer
 62
  256
370
   -1
100
AcDbPoint
 10
160
 20
258
  0
POINT
  5
30B
100
AcDbEntity
  8
Signal
  6
ByLayer
 62
  256
370
   -1
100
AcDbPoint
 10
160
 20
256
  0
POINT
  5
30C
100
AcDbEntity
  8
Signal
  6
ByLayer
 62
  256
370
   -1
100
AcDbPoint
 10
160
 20
254
  0
POINT
  5
30D
100
AcDbEntity
  8
Signal
  6
ByLayer
 62
  256
370
   -1
100
AcDbPoint
 10
160
 20
252
  0
POINT
  5
30E
100
AcDbEntity
  8
Signal
  6
ByLayer
 62
  256
370
   -1
100
AcDbPoint
 10
160
 20
228
  0
POINT
  5
30F
100
AcDbEntity
  8
Signal
  6
ByLayer
 62
  256
370
   -1
100
AcDbPoint
 10
160
 20
226
  0
POINT
  5
310
100
AcDbEntity
  8
Signal
  6
ByLayer
 62
  256
370
   -1
100
AcDbPoint
 10
160
 20
224
  0
POINT
  5
311
100
AcDbEntity
  8
Signal
  6
ByLayer
 62
  256
370
   -1
100
AcDbPoint
 10
160
 20
222
  0
POINT
  5
312
100
AcDbEntity
  8
Signal
  6
ByLayer
 62
  256
370
   -1
100
AcDbPoint
 10
160
 20
198
  0
POINT
  5
313
100
AcDbEntity
  8
Signal
  6
ByLayer
 62
  256
370
   -1
100
AcDbPoint
 10
160
 20
196
  0
POINT
  5
314
100
AcDbEntity
  8
Signal
  6
ByLayer
 62
  256
370
   -1
100
AcDbPoint
 10
160
 20
194
  0
POINT
  5
315
100
AcDbEntity
  8
Signal
  6
ByLayer
 62
  256
370
   -1
100
AcDbPoint
 10
160
 20
192
  0
POINT
  5
316
100
AcDbEntity
  8
Signal
  6
ByLayer
 62
  256
370
   -1
100
AcDbPoint
 10
160
 20
168
  0
POINT
  5
317
100
AcDbEntity
  8
Signal
  6
ByLayer
 62
  256
370
   -1
100
AcDbPoint
 10
160
 20
166
  0
POINT
  5
318
100
AcDbEntity
  8
Signal
  6
ByLayer
 62
  256
370
   -1
100
AcDbPoint
 10
160
 20
164
  0
POINT
  5
319
100
AcDbEntity
  8
Signal
  6
ByLayer
 62
  256
370
   -1
100
AcDbPoint
 10
160
 20
162
  0
LINE
  5
31A
100
AcDbEntity
  8
Signal
  6
ByLayer
 62
  256
370
   -1
100
AcDbLine
 10
160
 20
254
 11
308
 21
254
  0
LINE
  5
31B
100
AcDbEntity
  8
Signal
  6
ByLayer
 62
  256
370
   -1
100
AcDbLine
 10
258
 20
256
 11
160
 21
256
  0
LINE
  5
31C
100
AcDbEntity
  8
Signal
  6
ByLayer
 62
  256
370
   -1
100
AcDbLine
 10
160
 20
258
 11
208
 21
258
  0
LINE
  5
31D
100
AcDbEntity
  8
Signal
  6
ByLayer
 62
  256
370
   -1
100
AcDbLine
 10
358
 20
252
 11
160
 21
252
  0
LINE
  5
31E
100
AcDbEntity
  8
Signal
  6
ByLayer
 62
  256
370
   -1
100
AcDbLine
 10
258
 20
226
 11
160
 21
226
  0
LINE
  5
31F
100
AcDbEntity
  8
Signal
  6
ByLayer
 62
  256
370
   -1
100
AcDbLine
 10
160
 20
228
 11
208
 21
228
  0
LINE
  5
320
100
AcDbEntity
  8
Signal
  6
ByLayer
 62
  256
370
   -1
100
AcDbLine
 10
160
 20
224
 11
308
 21
224
  0
LINE
  5
321
100
AcDbEntity
  8
Signal
  6
ByLayer
 62
  256
370
   -1
100
AcDbLine
 10
358
 20
222
 11
160
 21
222
  0
POINT
  5
322
100
AcDbEntity
  8
Signal
  6
ByLayer
 62
  256
370
   -1
100
AcDbPoint
 10
160
 20
198
  0
POINT
  5
323
100
AcDbEntity
  8
Signal
  6
ByLayer
 62
  256
370
   -1
100
AcDbPoint
 10
160
 20
196
  0
POINT
  5
324
100
AcDbEntity
  8
Signal
  6
ByLayer
 62
  256
370
   -1
100
AcDbPoint
 10
160
 20
194
  0
POINT
  5
325
100
AcDbEntity
  8
Signal
  6
ByLayer
 62
  256
370
   -1
100
AcDbPoint
 10
160
 20
192
  0
POINT
  5
326
100
AcDbEntity
  8
Signal
  6
ByLayer
 62
  256
370
   -1
100
AcDbPoint
 10
160
 20
168
  0
POINT
  5
327
100
AcDbEntity
  8
Signal
  6
ByLayer
 62
  256
370
   -1
100
AcDbPoint
 10
160
 20
166
  0
POINT
  5
328
100
AcDbEntity
  8
Signal
  6
ByLayer
 62
  256
370
   -1
100
AcDbPoint
 10
160
 20
164
  0
POINT
  5
329
100
AcDbEntity
  8
Signal
  6
ByLayer
 62
  256
370
   -1
100
AcDbPoint
 10
160
 20
162
  0
LINE
  5
32A
100
AcDbEntity
  8
Signal
  6
ByLayer
 62
  256
370
   -1
100
AcDbLine
 10
160
 20
194
 11
308
 21
194
  0
LINE
  5
32B
100
AcDbEntity
  8
Signal
  6
ByLayer
 62
  256
370
   -1
100
AcDbLine
 10
258
 20
196
 11
160
 21
196
  0
LINE
  5
32C
100
AcDbEntity
  8
Signal
  6
ByLayer
 62
  256
370
   -1
100
AcDbLine
 10
160
 20
198
 11
208
 21
198
  0
LINE
  5
32D
100
AcDbEntity
  8
Signal
  6
ByLayer
 62
  256
370
   -1
100
AcDbLine
 10
358
 20
192
 11
160
 21
192
  0
LINE
  5
32E
100
AcDbEntity
  8
Signal
  6
ByLayer
 62
  256
370
   -1
100
AcDbLine
 10
258
 20
166
 11
160
 21
166
  0
LINE
  5
32F
100
AcDbEntity
  8
Signal
  6
ByLayer
 62
  256
370
   -1
100
AcDbLine
 10
160
 20
168
 11
208
 21
168
  0
LINE
  5
330
100
AcDbEntity
  8
Signal
  6
ByLayer
 62
  256
370
   -1
100
AcDbLine
 10
160
 20
164
 11
308
 21
164
  0
LINE
  5
331
100
AcDbEntity
  8
Signal
  6
ByLayer
 62
  256
370
   -1
100
AcDbLine
 10
358
 20
162
 11
160
 21
162
  0
LINE
  5
332
100
AcDbEntity
  8
Signal
  6
ByLayer
 62
  256
370
   -1
100
AcDbLine
 10
160
 20
228
 11
152
 21
228
  0
LINE
  5
333
100
AcDbEntity
  8
Signal
  6
ByLayer
 62
  256
370
   -1
100
AcDbLine
 10
160
 20
226
 11
150
 21
226
  0
LINE
  5
334
100
AcDbEntity
  8
Signal
  6
ByLayer
 62
  256
370
   -1
100
AcDbLine
 10
160
 20
224
 11
148
 21
224
  0
LINE
  5
335
100
AcDbEntity
  8
Signal
  6
ByLayer
 62
  256
370
   -1
100
AcDbLine
 10
160
 20
222
 11
146
 21
222
  0
LINE
  5
336
100
AcDbEntity
  8
Signal
  6
ByLayer
 62
  256
370
   -1
100
AcDbLine
 10
160
 20
198
 11
144
 21
198
  0
LINE
  5
337
100
AcDbEntity
  8
Signal
  6
ByLayer
 62
  256
370
   -1
100
AcDbLine
 10
160
 20
196
 11
142
 21
196
  0
LINE
  5
338
100
AcDbEntity
  8
Signal
  6
ByLayer
 62
  256
370
   -1
100
AcDbLine
 10
160
 20
194
 11
140
 21
194
  0
LINE
  5
339
100
AcDbEntity
  8
Signal
  6
ByLayer
 62
  256
370
   -1
100
AcDbLine
 10
160
 20
192
 11
138
 21
192
  0
LINE
  5
33A
100
AcDbEntity
  8
Signal
  6
ByLayer
 62
  256
370
   -1
100
AcDbLine
 10
160
 20
168
 11
136
 21
168
  0
LINE
  5
33B
100
AcDbEntity
  8
Signal
  6
ByLayer
 62
  256
370
   -1
100
AcDbLine
 10
160
 20
166
 11
134
 21
166
  0
LINE
  5
33C
100
AcDbEntity
  8
Signal
  6
ByLayer
 62
  256
370
   -1
100
AcDbLine
 10
160
 20
164
 11
132
 21
164
  0
LINE
  5
33D
100
AcDbEntity
  8
Signal
  6
ByLayer
 62
  256
370
   -1
100
AcDbLine
 10
160
 20
162
 11
130
 21
162
  0
POINT
  5
33E
100
AcDbEntity
  8
Signal
  6
ByLayer
 62
  256
370
   -1
100
AcDbPoint
 10
146
 20
225
  0
INSERT
  5
33F
100
AcDbEntity
  8
Component
  6
ByLayer
 62
  256
370
   -1
100
AcDbBlockReference
  2
c1
 10
60
 20
160
 30
0
 41
1
 42
1
 43
0
 50
0
 70
    1
 71
    1
 44
0
 45
0
  0
INSERT
  5
340
100
AcDbEntity
  8
Component
  6
ByLayer
 62
  256
370
   -1
100
AcDbBlockReference
  2
c1-0
 10
60
 20
280
 30
0
 41
1
 42
1
 43
0
 50
0
 70
    1
 71
    1
 44
0
 45
0
  0
POINT
  5
341
100
AcDbEntity
  8
Signal
  6
ByLayer
 62
  256
370
   -1
100
AcDbPoint
 10
152
 20
228
  0
POINT
  5
342
100
AcDbEntity
  8
Signal
  6
ByLayer
 62
  256
370
   -1
100
AcDbPoint
 10
150
 20
226
  0
POINT
  5
343
100
AcDbEntity
  8
Signal
  6
ByLayer
 62
  256
370
   -1
100
AcDbPoint
 10
148
 20
224
  0
POINT
  5
344
100
AcDbEntity
  8
Signal
  6
ByLayer
 62
  256
370
   -1
100
AcDbPoint
 10
146
 20
222
  0
LINE
  5
345
100
AcDbEntity
  8
Power
  6
ByLayer
 62
  256
370
   -1
100
AcDbLine
 10
180
 20
270
 11
180
 21
275
  0
LINE
  5
346
100
AcDbEntity
  8
Power
  6
ByLayer
 62
  256
370
   -1
100
AcDbLine
 10
180
 20
275
 11
185
 21
280
  0
LINE
  5
347
100
AcDbEntity
  8
Power
  6
ByLayer
 62
  256
370
   -1
100
AcDbLine
 10
230
 20
270
 11
230
 21
275
  0
LINE
  5
348
100
AcDbEntity
  8
Power
  6
ByLayer
 62
  256
370
   -1
100
AcDbLine
 10
230
 20
275
 11
235
 21
280
  0
LINE
  5
349
100
AcDbEntity
  8
Power
  6
ByLayer
 62
  256
370
   -1
100
AcDbLine
 10
280
 20
270
 11
280
 21
275
  0
LINE
  5
34A
100
AcDbEntity
  8
Power
  6
ByLayer
 62
  256
370
   -1
100
AcDbLine
 10
280
 20
275
 11
285
 21
280
  0
LINE
  5
34B
100
AcDbEntity
  8
Power
  6
ByLayer
 62
  256
370
   -1
100
AcDbLine
 10
330
 20
270
 11
330
 21
275
  0
LINE
  5
34C
100
AcDbEntity
  8
Power
  6
ByLayer
 62
  256
370
   -1
100
AcDbLine
 10
330
 20
275
 11
325
 21
280
  0
LINE
  5
34D
100
AcDbEntity
  8
Power
  6
ByLayer
 62
  256
370
   -1
100
AcDbLine
 10
180
 20
240
 11
180
 21
245
  0
LINE
  5
34E
100
AcDbEntity
  8
Power
  6
ByLayer
 62
  256
370
   -1
100
AcDbLine
 10
180
 20
245
 11
185
 21
250
  0
LINE
  5
34F
100
AcDbEntity
  8
Power
  6
ByLayer
 62
  256
370
   -1
100
AcDbLine
 10
230
 20
240
 11
230
 21
245
  0
LINE
  5
350
100
AcDbEntity
  8
Power
  6
ByLayer
 62
  256
370
   -1
100
AcDbLine
 10
230
 20
245
 11
235
 21
250
  0
LINE
  5
351
100
AcDbEntity
  8
Power
  6
ByLayer
 62
  256
370
   -1
100
AcDbLine
 10
280
 20
240
 11
280
 21
245
  0
LINE
  5
352
100
AcDbEntity
  8
Power
  6
ByLayer
 62
  256
370
   -1
100
AcDbLine
 10
280
 20
245
 11
285
 21
250
  0
LINE
  5
353
100
AcDbEntity
  8
Power
  6
ByLayer
 62
  256
370
   -1
100
AcDbLine
 10
330
 20
240
 11
330
 21
245
  0
LINE
  5
354
100
AcDbEntity
  8
Power
  6
ByLayer
 62
  256
370
   -1
100
AcDbLine
 10
330
 20
245
 11
325
 21
250
  0
LINE
  5
355
100
AcDbEntity
  8
Power
  6
ByLayer
 62
  256
370
   -1
100
AcDbLine
 10
180
 20
210
 11
180
 21
215
  0
LINE
  5
356
100
AcDbEntity
  8
Power
  6
ByLayer
 62
  256
370
   -1
100
AcDbLine
 10
180
 20
215
 11
185
 21
220
  0
LINE
  5
357
100
AcDbEntity
  8
Power
  6
ByLayer
 62
  256
370
   -1
100
AcDbLine
 10
230
 20
210
 11
230
 21
215
  0
LINE
  5
358
100
AcDbEntity
  8
Power
  6
ByLayer
 62
  256
370
   -1
100
AcDbLine
 10
230
 20
215
 11
235
 21
220
  0
LINE
  5
359
100
AcDbEntity
  8
Power
  6
ByLayer
 62
  256
370
   -1
100
AcDbLine
 10
280
 20
210
 11
280
 21
215
  0
LINE
  5
35A
100
AcDbEntity
  8
Power
  6
ByLayer
 62
  256
370
   -1
100
AcDbLine
 10
280
 20
215
 11
285
 21
220
  0
LINE
  5
35B
100
AcDbEntity
  8
Power
  6
ByLayer
 62
  256
370
   -1
100
AcDbLine
 10
330
 20
210
 11
330
 21
215
  0
LINE
  5
35C
100
AcDbEntity
  8
Power
  6
ByLayer
 62
  256
370
   -1
100
AcDbLine
 10
330
 20
215
 11
325
 21
220
  0
LINE
  5
35D
100
AcDbEntity
  8
Power
  6
ByLayer
 62
  256
370
   -1
100
AcDbLine
 10
180
 20
180
 11
180
 21
185
  0
LINE
  5
35E
100
AcDbEntity
  8
Power
  6
ByLayer
 62
  256
370
   -1
100
AcDbLine
 10
180
 20
185
 11
185
 21
190
  0
LINE
  5
35F
100
AcDbEntity
  8
Power
  6
ByLayer
 62
  256
370
   -1
100
AcDbLine
 10
230
 20
180
 11
230
 21
185
  0
LINE
  5
360
100
AcDbEntity
  8
Power
  6
ByLayer
 62
  256
370
   -1
100
AcDbLine
 10
230
 20
185
 11
235
 21
190
  0
LINE
  5
361
100
AcDbEntity
  8
Power
  6
ByLayer
 62
  256
370
   -1
100
AcDbLine
 10
280
 20
180
 11
280
 21
185
  0
LINE
  5
362
100
AcDbEntity
  8
Power
  6
ByLayer
 62
  256
370
   -1
100
AcDbLine
 10
280
 20
185
 11
285
 21
190
  0
LINE
  5
363
100
AcDbEntity
  8
Power
  6
ByLayer
 62
  256
370
   -1
100
AcDbLine
 10
330
 20
180
 11
330
 21
185
  0
LINE
  5
364
100
AcDbEntity
  8
Power
  6
ByLayer
 62
  256
370
   -1
100
AcDbLine
 10
330
 20
185
 11
325
 21
190
  0
INSERT
  5
365
100
AcDbEntity
  8
Component
  6
ByLayer
 62
  256
370
   -1
100
AcDbBlockReference
  2
Resistor-1
 10
185
 20
270
 30
0
 41
1
 42
1
 43
0
 50
0
 70
    1
 71
    1
 44
0
 45
0
  0
LINE
  5
366
100
AcDbEntity
  8
Power
  6
ByLayer
 62
  256
370
   -1
100
AcDbLine
 10
180
 20
270
 11
185
 21
270
  0
LINE
  5
367
100
AcDbEntity
  8
Power
  6
ByLayer
 62
  256
370
   -1
100
AcDbLine
 10
195
 20
270
 11
200
 21
270
  0
INSERT
  5
368
100
AcDbEntity
  8
Component
  6
ByLayer
 62
  256
370
   -1
100
AcDbBlockReference
  2
Resistor-1
 10
235
 20
270
 30
0
 41
1
 42
1
 43
0
 50
0
 70
    1
 71
    1
 44
0
 45
0
  0
LINE
  5
369
100
AcDbEntity
  8
Power
  6
ByLayer
 62
  256
370
   -1
100
AcDbLine
 10
230
 20
270
 11
235
 21
270
  0
LINE
  5
36A
100
AcDbEntity
  8
Power
  6
ByLayer
 62
  256
370
   -1
100
AcDbLine
 10
245
 20
270
 11
250
 21
270
  0
INSERT
  5
36B
100
AcDbEntity
  8
Component
  6
ByLayer
 62
  256
370
   -1
100
AcDbBlockReference
  2
Resistor-1
 10
285
 20
270
 30
0
 41
1
 42
1
 43
0
 50
0
 70
    1
 71
    1
 44
0
 45
0
  0
LINE
  5
36C
100
AcDbEntity
  8
Power
  6
ByLayer
 62
  256
370
   -1
100
AcDbLine
 10
280
 20
270
 11
285
 21
270
  0
LINE
  5
36D
100
AcDbEntity
  8
Power
  6
ByLayer
 62
  256
370
   -1
100
AcDbLine
 10
295
 20
270
 11
300
 21
270
  0
INSERT
  5
36E
100
AcDbEntity
  8
Component
  6
ByLayer
 62
  256
370
   -1
100
AcDbBlockReference
  2
Resistor-1
 10
335
 20
270
 30
0
 41
1
 42
1
 43
0
 50
0
 70
    1
 71
    1
 44
0
 45
0
  0
LINE
  5
36F
100
AcDbEntity
  8
Power
  6
ByLayer
 62
  256
370
   -1
100
AcDbLine
 10
330
 20
270
 11
335
 21
270
  0
LINE
  5
370
100
AcDbEntity
  8
Power
  6
ByLayer
 62
  256
370
   -1
100
AcDbLine
 10
345
 20
270
 11
350
 21
270
  0
INSERT
  5
371
100
AcDbEntity
  8
Component
  6
ByLayer
 62
  256
370
   -1
100
AcDbBlockReference
  2
Resistor-8
 10
185
 20
240
 30
0
 41
1
 42
1
 43
0
 50
0
 70
    1
 71
    1
 44
0
 45
0
  0
LINE
  5
372
100
AcDbEntity
  8
Power
  6
ByLayer
 62
  256
370
   -1
100
AcDbLine
 10
180
 20
240
 11
185
 21
240
  0
LINE
  5
373
100
AcDbEntity
  8
Power
  6
ByLayer
 62
  256
370
   -1
100
AcDbLine
 10
195
 20
240
 11
200
 21
240
  0
INSERT
  5
374
100
AcDbEntity
  8
Component
  6
ByLayer
 62
  256
370
   -1
100
AcDbBlockReference
  2
Resistor-8
 10
235
 20
240
 30
0
 41
1
 42
1
 43
0
 50
0
 70
    1
 71
    1
 44
0
 45
0
  0
LINE
  5
375
100
AcDbEntity
  8
Power
  6
ByLayer
 62
  256
370
   -1
100
AcDbLine
 10
230
 20
240
 11
235
 21
240
  0
LINE
  5
376
100
AcDbEntity
  8
Power
  6
ByLayer
 62
  256
370
   -1
100
AcDbLine
 10
245
 20
240
 11
250
 21
240
  0
INSERT
  5
377
100
AcDbEntity
  8
Component
  6
ByLayer
 62
  256
370
   -1
100
AcDbBlockReference
  2
Resistor-8
 10
285
 20
240
 30
0
 41
1
 42
1
 43
0
 50
0
 70
    1
 71
    1
 44
0
 45
0
  0
LINE
  5
378
100
AcDbEntity
  8
Power
  6
ByLayer
 62
  256
370
   -1
100
AcDbLine
 10
280
 20
240
 11
285
 21
240
  0
LINE
  5
379
100
AcDbEntity
  8
Power
  6
ByLayer
 62
  256
370
   -1
100
AcDbLine
 10
295
 20
240
 11
300
 21
240
  0
INSERT
  5
37A
100
AcDbEntity
  8
Component
  6
ByLayer
 62
  256
370
   -1
100
AcDbBlockReference
  2
Resistor-8
 10
335
 20
240
 30
0
 41
1
 42
1
 43
0
 50
0
 70
    1
 71
    1
 44
0
 45
0
  0
LINE
  5
37B
100
AcDbEntity
  8
Power
  6
ByLayer
 62
  256
370
   -1
100
AcDbLine
 10
330
 20
240
 11
335
 21
240
  0
LINE
  5
37C
100
AcDbEntity
  8
Power
  6
ByLayer
 62
  256
370
   -1
100
AcDbLine
 10
345
 20
240
 11
350
 21
240
  0
INSERT
  5
37D
100
AcDbEntity
  8
Component
  6
ByLayer
 62
  256
370
   -1
100
AcDbBlockReference
  2
Resistor-1
 10
185
 20
210
 30
0
 41
1
 42
1
 43
0
 50
0
 70
    1
 71
    1
 44
0
 45
0
  0
LINE
  5
37E
100
AcDbEntity
  8
Power
  6
ByLayer
 62
  256
370
   -1
100
AcDbLine
 10
180
 20
210
 11
185
 21
210
  0
LINE
  5
37F
100
AcDbEntity
  8
Power
  6
ByLayer
 62
  256
370
   -1
100
AcDbLine
 10
195
 20
210
 11
200
 21
210
  0
INSERT
  5
380
100
AcDbEntity
  8
Component
  6
ByLayer
 62
  256
370
   -1
100
AcDbBlockReference
  2
Resistor-1
 10
235
 20
210
 30
0
 41
1
 42
1
 43
0
 50
0
 70
    1
 71
    1
 44
0
 45
0
  0
LINE
  5
381
100
AcDbEntity
  8
Power
  6
ByLayer
 62
  256
370
   -1
100
AcDbLine
 10
230
 20
210
 11
235
 21
210
  0
LINE
  5
382
100
AcDbEntity
  8
Power
  6
ByLayer
 62
  256
370
   -1
100
AcDbLine
 10
245
 20
210
 11
250
 21
210
  0
INSERT
  5
383
100
AcDbEntity
  8
Component
  6
ByLayer
 62
  256
370
   -1
100
AcDbBlockReference
  2
Resistor-1
 10
285
 20
210
 30
0
 41
1
 42
1
 43
0
 50
0
 70
    1
 71
    1
 44
0
 45
0
  0
LINE
  5
384
100
AcDbEntity
  8
Power
  6
ByLayer
 62
  256
370
   -1
100
AcDbLine
 10
280
 20
210
 11
285
 21
210
  0
LINE
  5
385
100
AcDbEntity
  8
Power
  6
ByLayer
 62
  256
370
   -1
100
AcDbLine
 10
295
 20
210
 11
300
 21
210
  0
INSERT
  5
386
100
AcDbEntity
  8
Component
  6
ByLayer
 62
  256
370
   -1
100
AcDbBlockReference
  2
Resistor-1
 10
335
 20
210
 30
0
 41
1
 42
1
 43
0
 50
0
 70
    1
 71
    1
 44
0
 45
0
  0
LINE
  5
387
100
AcDbEntity
  8
Power
  6
ByLayer
 62
  256
370
   -1
100
AcDbLine
 10
330
 20
210
 11
335
 21
210
  0
LINE
  5
388
100
AcDbEntity
  8
Power
  6
ByLayer
 62
  256
370
   -1
100
AcDbLine
 10
345
 20
210
 11
350
 21
210
  0
INSERT
  5
389
100
AcDbEntity
  8
Component
  6
ByLayer
 62
  256
370
   -1
100
AcDbBlockReference
  2
Resistor-1
 10
185
 20
180
 30
0
 41
1
 42
1
 43
0
 50
0
 70
    1
 71
    1
 44
0
 45
0
  0
LINE
  5
38A
100
AcDbEntity
  8
Power
  6
ByLayer
 62
  256
370
   -1
100
AcDbLine
 10
180
 20
180
 11
185
 21
180
  0
LINE
  5
38B
100
AcDbEntity
  8
Power
  6
ByLayer
 62
  256
370
   -1
100
AcDbLine
 10
195
 20
180
 11
200
 21
180
  0
INSERT
  5
38C
100
AcDbEntity
  8
Component
  6
ByLayer
 62
  256
370
   -1
100
AcDbBlockReference
  2
Resistor-1
 10
235
 20
180
 30
0
 41
1
 42
1
 43
0
 50
0
 70
    1
 71
    1
 44
0
 45
0
  0
LINE
  5
38D
100
AcDbEntity
  8
Power
  6
ByLayer
 62
  256
370
   -1
100
AcDbLine
 10
230
 20
180
 11
235
 21
180
  0
LINE
  5
38E
100
AcDbEntity
  8
Power
  6
ByLayer
 62
  256
370
   -1
100
AcDbLine
 10
245
 20
180
 11
250
 21
180
  0
INSERT
  5
38F
100
AcDbEntity
  8
Component
  6
ByLayer
 62
  256
370
   -1
100
AcDbBlockReference
  2
Resistor-1
 10
285
 20
180
 30
0
 41
1
 42
1
 43
0
 50
0
 70
    1
 71
    1
 44
0
 45
0
  0
LINE
  5
390
100
AcDbEntity
  8
Power
  6
ByLayer
 62
  256
370
   -1
100
AcDbLine
 10
280
 20
180
 11
285
 21
180
  0
LINE
  5
391
100
AcDbEntity
  8
Power
  6
ByLayer
 62
  256
370
   -1
100
AcDbLine
 10
295
 20
180
 11
300
 21
180
  0
INSERT
  5
392
100
AcDbEntity
  8
Component
  6
ByLayer
 62
  256
370
   -1
100
AcDbBlockReference
  2
Resistor-1
 10
335
 20
180
 30
0
 41
1
 42
1
 43
0
 50
0
 70
    1
 71
    1
 44
0
 45
0
  0
LINE
  5
393
100
AcDbEntity
  8
Power
  6
ByLayer
 62
  256
370
   -1
100
AcDbLine
 10
330
 20
180
 11
335
 21
180
  0
LINE
  5
394
100
AcDbEntity
  8
Power
  6
ByLayer
 62
  256
370
   -1
100
AcDbLine
 10
345
 20
180
 11
350
 21
180
  0
LINE
  5
395
100
AcDbEntity
  8
Ref
  6
ByLayer
 62
  256
370
   -1
100
AcDbLine
 10
370
 20
160
 11
375
 21
165
  0
LINE
  5
396
100
AcDbEntity
  8
Ref
  6
ByLayer
 62
  256
370
   -1
100
AcDbLine
 10
320
 20
160
 11
325
 21
165
  0
LINE
  5
397
100
AcDbEntity
  8
Ref
  6
ByLayer
 62
  256
370
   -1
100
AcDbLine
 10
270
 20
160
 11
275
 21
165
  0
LINE
  5
398
100
AcDbEntity
  8
Ref
  6
ByLayer
 62
  256
370
   -1
100
AcDbLine
 10
220
 20
160
 11
225
 21
165
  0
LINE
  5
399
100
AcDbEntity
  8
Ref
  6
ByLayer
 62
  256
370
   -1
100
AcDbLine
 10
225
 20
165
 11
225
 21
270
  0
LINE
  5
39A
100
AcDbEntity
  8
Ref
  6
ByLayer
 62
  256
370
   -1
100
AcDbLine
 10
275
 20
165
 11
275
 21
270
  0
LINE
  5
39B
100
AcDbEntity
  8
Ref
  6
ByLayer
 62
  256
370
   -1
100
AcDbLine
 10
325
 20
165
 11
325
 21
270
  0
LINE
  5
39C
100
AcDbEntity
  8
Ref
  6
ByLayer
 62
  256
370
   -1
100
AcDbLine
 10
375
 20
165
 11
375
 21
270
  0
LINE
  5
39D
100
AcDbEntity
  8
Ref
  6
ByLayer
 62
  256
370
   -1
100
AcDbLine
 10
70
 20
160
 11
370
 21
160
  0
POINT
  5
39E
100
AcDbEntity
  8
Ref
  6
ByLayer
 62
  256
370
   -1
100
AcDbPoint
 10
225
 20
240
  0
POINT
  5
39F
100
AcDbEntity
  8
Ref
  6
ByLayer
 62
  256
370
   -1
100
AcDbPoint
 10
225
 20
270
  0
POINT
  5
3A0
100
AcDbEntity
  8
Ref
  6
ByLayer
 62
  256
370
   -1
100
AcDbPoint
 10
225
 20
210
  0
POINT
  5
3A1
100
AcDbEntity
  8
Ref
  6
ByLayer
 62
  256
370
   -1
100
AcDbPoint
 10
225
 20
180
  0
POINT
  5
3A2
100
AcDbEntity
  8
Ref
  6
ByLayer
 62
  256
370
   -1
100
AcDbPoint
 10
275
 20
180
  0
POINT
  5
3A3
100
AcDbEntity
  8
Ref
  6
ByLayer
 62
  256
370
   -1
100
AcDbPoint
 10
275
 20
210
  0
POINT
  5
3A4
100
AcDbEntity
  8
Ref
  6
ByLayer
 62
  256
370
   -1
100
AcDbPoint
 10
275
 20
240
  0
POINT
  5
3A5
100
AcDbEntity
  8
Ref
  6
ByLayer
 62
  256
370
   -1
100
AcDbPoint
 10
275
 20
270
  0
POINT
  5
3A6
100
AcDbEntity
  8
Ref
  6
ByLayer
 62
  256
370
   -1
100
AcDbPoint
 10
325
 20
270
  0
POINT
  5
3A7
100
AcDbEntity
  8
Ref
  6
ByLayer
 62
  256
370
   -1
100
AcDbPoint
 10
325
 20
240
  0
POINT
  5
3A8
100
AcDbEntity
  8
Ref
  6
ByLayer
 62
  256
370
   -1
100
AcDbPoint
 10
325
 20
210
  0
POINT
  5
3A9
100
AcDbEntity
  8
Ref
  6
ByLayer
 62
  256
370
   -1
100
AcDbPoint
 10
325
 20
180
  0
POINT
  5
3AA
100
AcDbEntity
  8
Ref
  6
ByLayer
 62
  256
370
   -1
100
AcDbPoint
 10
375
 20
180
  0
POINT
  5
3AB
100
AcDbEntity
  8
Ref
  6
ByLayer
 62
  256
370
   -1
100
AcDbPoint
 10
375
 20
210
  0
POINT
  5
3AC
100
AcDbEntity
  8
Ref
  6
ByLayer
 62
  256
370
   -1
100
AcDbPoint
 10
375
 20
240
  0
POINT
  5
3AD
100
AcDbEntity
  8
Ref
  6
ByLayer
 62
  256
370
   -1
100
AcDbPoint
 10
375
 20
270
  0
POINT
  5
3AE
100
AcDbEntity
  8
Signal
  6
ByLayer
 62
  256
370
   -1
100
AcDbPoint
 10
120
 20
270
  0
INSERT
  5
3AF
100
AcDbEntity
  8
Component
  6
ByLayer
 62
  256
370
   -1
100
AcDbBlockReference
  2
Connector 16pin-0
 10
100
 20
270
 30
0
 41
1
 42
1
 43
0
 50
0
 70
    1
 71
    1
 44
0
 45
0
  0
POINT
  5
3B0
100
AcDbEntity
  8
Signal
  6
ByLayer
 62
  256
370
   -1
100
AcDbPoint
 10
120
 20
195
  0
LINE
  5
3B1
100
AcDbEntity
  8
Signal
  6
ByLayer
 62
  256
370
   -1
100
AcDbLine
 10
130
 20
195
 11
120
 21
195
  0
POINT
  5
3B2
100
AcDbEntity
  8
Signal
  6
ByLayer
 62
  256
370
   -1
100
AcDbPoint
 10
120
 20
200
  0
LINE
  5
3B3
100
AcDbEntity
  8
Signal
  6
ByLayer
 62
  256
370
   -1
100
AcDbLine
 10
132
 20
200
 11
120
 21
200
  0
POINT
  5
3B4
100
AcDbEntity
  8
Signal
  6
ByLayer
 62
  256
370
   -1
100
AcDbPoint
 10
120
 20
205
  0
LINE
  5
3B5
100
AcDbEntity
  8
Signal
  6
ByLayer
 62
  256
370
   -1
100
AcDbLine
 10
134
 20
205
 11
120
 21
205
  0
POINT
  5
3B6
100
AcDbEntity
  8
Signal
  6
ByLayer
 62
  256
370
   -1
100
AcDbPoint
 10
120
 20
210
  0
LINE
  5
3B7
100
AcDbEntity
  8
Signal
  6
ByLayer
 62
  256
370
   -1
100
AcDbLine
 10
136
 20
210
 11
120
 21
210
  0
POINT
  5
3B8
100
AcDbEntity
  8
Signal
  6
ByLayer
 62
  256
370
   -1
100
AcDbPoint
 10
120
 20
215
  0
LINE
  5
3B9
100
AcDbEntity
  8
Signal
  6
ByLayer
 62
  256
370
   -1
100
AcDbLine
 10
138
 20
215
 11
120
 21
215
  0
POINT
  5
3BA
100
AcDbEntity
  8
Signal
  6
ByLayer
 62
  256
370
   -1
100
AcDbPoint
 10
120
 20
220
  0
LINE
  5
3BB
100
AcDbEntity
  8
Signal
  6
ByLayer
 62
  256
370
   -1
100
AcDbLine
 10
140
 20
220
 11
120
 21
220
  0
POINT
  5
3BC
100
AcDbEntity
  8
Signal
  6
ByLayer
 62
  256
370
   -1
100
AcDbPoint
 10
120
 20
225
  0
LINE
  5
3BD
100
AcDbEntity
  8
Signal
  6
ByLayer
 62
  256
370
   -1
100
AcDbLine
 10
142
 20
225
 11
120
 21
225
  0
POINT
  5
3BE
100
AcDbEntity
  8
Signal
  6
ByLayer
 62
  256
370
   -1
100
AcDbPoint
 10
120
 20
230
  0
LINE
  5
3BF
100
AcDbEntity
  8
Signal
  6
ByLayer
 62
  256
370
   -1
100
AcDbLine
 10
144
 20
230
 11
120
 21
230
  0
POINT
  5
3C0
100
AcDbEntity
  8
Signal
  6
ByLayer
 62
  256
370
   -1
100
AcDbPoint
 10
120
 20
235
  0
LINE
  5
3C1
100
AcDbEntity
  8
Signal
  6
ByLayer
 62
  256
370
   -1
100
AcDbLine
 10
120
 20
235
 11
146
 21
235
  0
POINT
  5
3C2
100
AcDbEntity
  8
Signal
  6
ByLayer
 62
  256
370
   -1
100
AcDbPoint
 10
120
 20
240
  0
LINE
  5
3C3
100
AcDbEntity
  8
Signal
  6
ByLayer
 62
  256
370
   -1
100
AcDbLine
 10
148
 20
240
 11
120
 21
240
  0
POINT
  5
3C4
100
AcDbEntity
  8
Signal
  6
ByLayer
 62
  256
370
   -1
100
AcDbPoint
 10
120
 20
245
  0
LINE
  5
3C5
100
AcDbEntity
  8
Signal
  6
ByLayer
 62
  256
370
   -1
100
AcDbLine
 10
150
 20
245
 11
120
 21
245
  0
POINT
  5
3C6
100
AcDbEntity
  8
Signal
  6
ByLayer
 62
  256
370
   -1
100
AcDbPoint
 10
120
 20
250
  0
LINE
  5
3C7
100
AcDbEntity
  8
Signal
  6
ByLayer
 62
  256
370
   -1
100
AcDbLine
 10
120
 20
250
 11
152
 21
250
  0
POINT
  5
3C8
100
AcDbEntity
  8
Signal
  6
ByLayer
 62
  256
370
   -1
100
AcDbPoint
 10
120
 20
255
  0
POINT
  5
3C9
100
AcDbEntity
  8
Signal
  6
ByLayer
 62
  256
370
   -1
100
AcDbPoint
 10
120
 20
260
  0
POINT
  5
3CA
100
AcDbEntity
  8
Signal
  6
ByLayer
 62
  256
370
   -1
100
AcDbPoint
 10
120
 20
265
  0
LINE
  5
3CB
100
AcDbEntity
  8
Signal
  6
ByLayer
 62
  256
370
   -1
100
AcDbLine
 10
120
 20
270
 11
100
 21
270
  0
LINE
  5
3CC
100
AcDbEntity
  8
Signal
  6
ByLayer
 62
  256
370
   -1
100
AcDbLine
 10
120
 20
265
 11
100
 21
265
  0
LINE
  5
3CD
100
AcDbEntity
  8
Signal
  6
ByLayer
 62
  256
370
   -1
100
AcDbLine
 10
120
 20
260
 11
100
 21
260
  0
LINE
  5
3CE
100
AcDbEntity
  8
Signal
  6
ByLayer
 62
  256
370
   -1
100
AcDbLine
 10
120
 20
255
 11
100
 21
255
  0
LINE
  5
3CF
100
AcDbEntity
  8
Signal
  6
ByLayer
 62
  256
370
   -1
100
AcDbLine
 10
120
 20
250
 11
100
 21
250
  0
LINE
  5
3D0
100
AcDbEntity
  8
Signal
  6
ByLayer
 62
  256
370
   -1
100
AcDbLine
 10
120
 20
245
 11
100
 21
245
  0
LINE
  5
3D1
100
AcDbEntity
  8
Signal
  6
ByLayer
 62
  256
370
   -1
100
AcDbLine
 10
120
 20
240
 11
100
 21
240
  0
LINE
  5
3D2
100
AcDbEntity
  8
Signal
  6
ByLayer
 62
  256
370
   -1
100
AcDbLine
 10
120
 20
235
 11
100
 21
235
  0
LINE
  5
3D3
100
AcDbEntity
  8
Signal
  6
ByLayer
 62
  256
370
   -1
100
AcDbLine
 10
120
 20
230
 11
100
 21
230
  0
LINE
  5
3D4
100
AcDbEntity
  8
Signal
  6
ByLayer
 62
  256
370
   -1
100
AcDbLine
 10
120
 20
225
 11
100
 21
225
  0
LINE
  5
3D5
100
AcDbEntity
  8
Signal
  6
ByLayer
 62
  256
370
   -1
100
AcDbLine
 10
120
 20
220
 11
100
 21
220
  0
LINE
  5
3D6
100
AcDbEntity
  8
Signal
  6
ByLayer
 62
  256
370
   -1
100
AcDbLine
 10
120
 20
215
 11
100
 21
215
  0
LINE
  5
3D7
100
AcDbEntity
  8
Signal
  6
ByLayer
 62
  256
370
   -1
100
AcDbLine
 10
120
 20
210
 11
100
 21
210
  0
LINE
  5
3D8
100
AcDbEntity
  8
Signal
  6
ByLayer
 62
  256
370
   -1
100
AcDbLine
 10
120
 20
205
 11
100
 21
205
  0
LINE
  5
3D9
100
AcDbEntity
  8
Signal
  6
ByLayer
 62
  256
370
   -1
100
AcDbLine
 10
120
 20
200
 11
100
 21
200
  0
LINE
  5
3DA
100
AcDbEntity
  8
Signal
  6
ByLayer
 62
  256
370
   -1
100
AcDbLine
 10
120
 20
195
 11
100
 21
195
  0
LINE
  5
3DB
100
AcDbEntity
  8
Signal
  6
ByLayer
 62
  256
370
   -1
100
AcDbLine
 10
152
 20
228
 11
152
 21
250
  0
LINE
  5
3DC
100
AcDbEntity
  8
Power
  6
ByLayer
 62
  256
370
   -1
100
AcDbLine
 10
170
 20
190
 11
325
 21
190
  0
LINE
  5
3DD
100
AcDbEntity
  8
Power
  6
ByLayer
 62
  256
370
   -1
100
AcDbLine
 10
170
 20
220
 11
325
 21
220
  0
LINE
  5
3DE
100
AcDbEntity
  8
Power
  6
ByLayer
 62
  256
370
   -1
100
AcDbLine
 10
170
 20
250
 11
325
 21
250
  0
LINE
  5
3DF
100
AcDbEntity
  8
Power
  6
ByLayer
 62
  256
370
   -1
100
AcDbLine
 10
170
 20
250
 11
170
 21
275
  0
LINE
  5
3E0
100
AcDbEntity
  8
Power
  6
ByLayer
 62
  256
370
   -1
100
AcDbLine
 10
170
 20
275
 11
175
 21
280
  0
LINE
  5
3E1
100
AcDbEntity
  8
Power
  6
ByLayer
 62
  256
370
   -1
100
AcDbLine
 10
170
 20
220
 11
170
 21
245
  0
LINE
  5
3E2
100
AcDbEntity
  8
Power
  6
ByLayer
 62
  256
370
   -1
100
AcDbLine
 10
170
 20
245
 11
175
 21
250
  0
LINE
  5
3E3
100
AcDbEntity
  8
Power
  6
ByLayer
 62
  256
370
   -1
100
AcDbLine
 10
170
 20
190
 11
170
 21
215
  0
LINE
  5
3E4
100
AcDbEntity
  8
Power
  6
ByLayer
 62
  256
370
   -1
100
AcDbLine
 10
170
 20
215
 11
175
 21
220
  0
LINE
  5
3E5
100
AcDbEntity
  8
Signal
  6
ByLayer
 62
  256
370
   -1
100
AcDbLine
 10
160
 20
270
 11
120
 21
270
  0
LINE
  5
3E6
100
AcDbEntity
  8
Signal
  6
ByLayer
 62
  256
370
   -1
100
AcDbLine
 10
160
 20
258
 11
160
 21
270
  0
LINE
  5
3E7
100
AcDbEntity
  8
Signal
  6
ByLayer
 62
  256
370
   -1
100
AcDbLine
 10
160
 20
256
 11
158
 21
256
  0
LINE
  5
3E8
100
AcDbEntity
  8
Signal
  6
ByLayer
 62
  256
370
   -1
100
AcDbLine
 10
158
 20
265
 11
120
 21
265
  0
LINE
  5
3E9
100
AcDbEntity
  8
Signal
  6
ByLayer
 62
  256
370
   -1
100
AcDbLine
 10
158
 20
256
 11
158
 21
265
  0
LINE
  5
3EA
100
AcDbEntity
  8
Signal
  6
ByLayer
 62
  256
370
   -1
100
AcDbLine
 10
160
 20
254
 11
156
 21
254
  0
LINE
  5
3EB
100
AcDbEntity
  8
Signal
  6
ByLayer
 62
  256
370
   -1
100
AcDbLine
 10
120
 20
260
 11
156
 21
260
  0
LINE
  5
3EC
100
AcDbEntity
  8
Signal
  6
ByLayer
 62
  256
370
   -1
100
AcDbLine
 10
156
 20
254
 11
156
 21
260
  0
LINE
  5
3ED
100
AcDbEntity
  8
Signal
  6
ByLayer
 62
  256
370
   -1
100
AcDbLine
 10
160
 20
252
 11
154
 21
252
  0
LINE
  5
3EE
100
AcDbEntity
  8
Signal
  6
ByLayer
 62
  256
370
   -1
100
AcDbLine
 10
154
 20
255
 11
120
 21
255
  0
LINE
  5
3EF
100
AcDbEntity
  8
Signal
  6
ByLayer
 62
  256
370
   -1
100
AcDbLine
 10
154
 20
252
 11
154
 21
255
  0
LINE
  5
3F0
100
AcDbEntity
  8
Signal
  6
ByLayer
 62
  256
370
   -1
100
AcDbLine
 10
150
 20
226
 11
150
 21
245
  0
LINE
  5
3F1
100
AcDbEntity
  8
Signal
  6
ByLayer
 62
  256
370
   -1
100
AcDbLine
 10
148
 20
224
 11
148
 21
240
  0
LINE
  5
3F2
100
AcDbEntity
  8
Signal
  6
ByLayer
 62
  256
370
   -1
100
AcDbLine
 10
146
 20
222
 11
146
 21
235
  0
LINE
  5
3F3
100
AcDbEntity
  8
Signal
  6
ByLayer
 62
  256
370
   -1
100
AcDbLine
 10
142
 20
196
 11
142
 21
225
  0
LINE
  5
3F4
100
AcDbEntity
  8
Signal
  6
ByLayer
 62
  256
370
   -1
100
AcDbLine
 10
144
 20
198
 11
144
 21
230
  0
LINE
  5
3F5
100
AcDbEntity
  8
Signal
  6
ByLayer
 62
  256
370
   -1
100
AcDbLine
 10
140
 20
194
 11
140
 21
220
  0
LINE
  5
3F6
100
AcDbEntity
  8
Signal
  6
ByLayer
 62
  256
370
   -1
100
AcDbLine
 10
130
 20
162
 11
130
 21
195
  0
LINE
  5
3F7
100
AcDbEntity
  8
Signal
  6
ByLayer
 62
  256
370
   -1
100
AcDbLine
 10
132
 20
164
 11
132
 21
200
  0
LINE
  5
3F8
100
AcDbEntity
  8
Signal
  6
ByLayer
 62
  256
370
   -1
100
AcDbLine
 10
134
 20
166
 11
134
 21
205
  0
LINE
  5
3F9
100
AcDbEntity
  8
Signal
  6
ByLayer
 62
  256
370
   -1
100
AcDbLine
 10
136
 20
168
 11
136
 21
210
  0
LINE
  5
3FA
100
AcDbEntity
  8
Signal
  6
ByLayer
 62
  256
370
   -1
100
AcDbLine
 10
138
 20
192
 11
138
 21
215
  0
LINE
  5
3FB
100
AcDbEntity
  8
Power
  6
ByLayer
 62
  256
370
   -1
100
AcDbLine
 10
70
 20
280
 11
325
 21
280
  0
MTEXT
  5
3FC
100
AcDbEntity
  8
Component
  6
ByLayer
 62
  256
370
   -1
100
AcDbMText
 10
216
 20
186
 30
0
 40
4
 41
6.666666666666666
 71
    4
 72
    1
  1
U11
  7

210
0
220
0
230
1
 50
0
 73
    2
 44
1
  0
MTEXT
  5
3FD
100
AcDbEntity
  8
Component
  6
ByLayer
 62
  256
370
   -1
100
AcDbMText
 10
216
 20
246
 30
0
 40
4
 41
7.555555555555803
 71
    4
 72
    1
  1
U13
  7

210
0
220
0
230
1
 50
0
 73
    2
 44
1
  0
MTEXT
  5
3FE
100
AcDbEntity
  8
Component
  6
ByLayer
 62
  256
370
   -1
100
AcDbMText
 10
216
 20
216
 30
0
 40
4
 41
7.555555555555555
 71
    4
 72
    1
  1
U12
  7

210
0
220
0
230
1
 50
0
 73
    2
 44
1
  0
MTEXT
  5
3FF
100
AcDbEntity
  8
Component
  6
ByLayer
 62
  256
370
   -1
100
AcDbMText
 10
216
 20
276
 30
0
 40
4
 41
8
 71
    4
 72
    1
  1
U14
  7

210
0
220
0
230
1
 50
0
 73
    2
 44
1
  0
MTEXT
  5
400
100
AcDbEntity
  8
Component
  6
ByLayer
 62
  256
370
   -1
100
AcDbMText
 10
266
 20
186
 30
0
 40
4
 41
7.555555555555555
 71
    4
 72
    1
  1
U21
  7

210
0
220
0
230
1
 50
0
 73
    2
 44
1
  0
MTEXT
  5
401
100
AcDbEntity
  8
Component
  6
ByLayer
 62
  256
370
   -1
100
AcDbMText
 10
266
 20
216
 30
0
 40
4
 41
8.444444444444443
 71
    4
 72
    1
  1
U22
  7

210
0
220
0
230
1
 50
0
 73
    2
 44
1
  0
MTEXT
  5
402
100
AcDbEntity
  8
Component
  6
ByLayer
 62
  256
370
   -1
100
AcDbMText
 10
316
 20
246
 30
0
 40
4
 41
8.44444444444494
 71
    4
 72
    1
  1
U33
  7

210
0
220
0
230
1
 50
0
 73
    2
 44
1
  0
MTEXT
  5
403
100
AcDbEntity
  8
Component
  6
ByLayer
 62
  256
370
   -1
100
AcDbMText
 10
366
 20
276
 30
0
 40
4
 41
9.333333333333332
 71
    4
 72
    1
  1
U44
  7

210
0
220
0
230
1
 50
0
 73
    2
 44
1
  0
MTEXT
  5
404
100
AcDbEntity
  8
Component
  6
ByLayer
 62
  256
370
   -1
100
AcDbMText
 10
266
 20
246
 30
0
 40
4
 41
8.444444444444692
 71
    4
 72
    1
  1
U23
  7

210
0
220
0
230
1
 50
0
 73
    2
 44
1
  0
MTEXT
  5
405
100
AcDbEntity
  8
Component
  6
ByLayer
 62
  256
370
   -1
100
AcDbMText
 10
266
 20
276
 30
0
 40
4
 41
8.888888888888889
 71
    4
 72
    1
  1
U24
  7

210
0
220
0
230
1
 50
0
 73
    2
 44
1
  0
MTEXT
  5
406
100
AcDbEntity
  8
Component
  6
ByLayer
 62
  256
370
   -1
100
AcDbMText
 10
316
 20
186
 30
0
 40
4
 41
7.555555555555804
 71
    4
 72
    1
  1
U31
  7

210
0
220
0
230
1
 50
0
 73
    2
 44
1
  0
MTEXT
  5
407
100
AcDbEntity
  8
Component
  6
ByLayer
 62
  256
370
   -1
100
AcDbMText
 10
316
 20
216
 30
0
 40
4
 41
8.444444444444692
 71
    4
 72
    1
  1
U32
  7

210
0
220
0
230
1
 50
0
 73
    2
 44
1
  0
MTEXT
  5
408
100
AcDbEntity
  8
Component
  6
ByLayer
 62
  256
370
   -1
100
AcDbMText
 10
316
 20
276
 30
0
 40
4
 41
8.888888888889138
 71
    4
 72
    1
  1
U34
  7

210
0
220
0
230
1
 50
0
 73
    2
 44
1
  0
MTEXT
  5
409
100
AcDbEntity
  8
Component
  6
ByLayer
 62
  256
370
   -1
100
AcDbMText
 10
366
 20
186
 30
0
 40
4
 41
8
 71
    4
 72
    1
  1
U41
  7

210
0
220
0
230
1
 50
0
 73
    2
 44
1
  0
MTEXT
  5
40A
100
AcDbEntity
  8
Component
  6
ByLayer
 62
  256
370
   -1
100
AcDbMText
 10
366
 20
216
 30
0
 40
4
 41
8.888888888888889
 71
    4
 72
    1
  1
U42
  7

210
0
220
0
230
1
 50
0
 73
    2
 44
1
  0
MTEXT
  5
40B
100
AcDbEntity
  8
Component
  6
ByLayer
 62
  256
370
   -1
100
AcDbMText
 10
366
 20
246
 30
0
 40
4
 41
8.888888888889138
 71
    4
 72
    1
  1
U43
  7

210
0
220
0
230
1
 50
0
 73
    2
 44
1
  0
MTEXT
  5
40C
100
AcDbEntity
  8
Component
  6
ByLayer
 62
  256
370
   -1
100
AcDbMText
 10
188
 20
184
 30
0
 40
3
 41
5
 71
    4
 72
    1
  1
R11
  7

210
0
220
0
230
1
 50
0
 73
    2
 44
1
  0
MTEXT
  5
40D
100
AcDbEntity
  8
Component
  6
ByLayer
 62
  256
370
   -1
100
AcDbMText
 10
188
 20
214
 30
0
 40
3
 41
5.666666666666666
 71
    4
 72
    1
  1
R12
  7

210
0
220
0
230
1
 50
0
 73
    2
 44
1
  0
MTEXT
  5
40E
100
AcDbEntity
  8
Component
  6
ByLayer
 62
  256
370
   -1
100
AcDbMText
 10
188
 20
244
 30
0
 40
3
 41
5.666666666666853
 71
    4
 72
    1
  1
R13
  7

210
0
220
0
230
1
 50
0
 73
    2
 44
1
  0
MTEXT
  5
40F
100
AcDbEntity
  8
Component
  6
ByLayer
 62
  256
370
   -1
100
AcDbMText
 10
188
 20
274
 30
0
 40
3
 41
5.999999999999999
 71
    4
 72
    1
  1
R14
  7

210
0
220
0
230
1
 50
0
 73
    2
 44
1
  0
MTEXT
  5
410
100
AcDbEntity
  8
Component
  6
ByLayer
 62
  256
370
   -1
100
AcDbMText
 10
238
 20
184
 30
0
 40
3
 41
5.666666666666667
 71
    4
 72
    1
  1
R21
  7

210
0
220
0
230
1
 50
0
 73
    2
 44
1
  0
MTEXT
  5
411
100
AcDbEntity
  8
Component
  6
ByLayer
 62
  256
370
   -1
100
AcDbMText
 10
238
 20
214
 30
0
 40
3
 41
6.333333333333333
 71
    4
 72
    1
  1
R22
  7

210
0
220
0
230
1
 50
0
 73
    2
 44
1
  0
MTEXT
  5
412
100
AcDbEntity
  8
Component
  6
ByLayer
 62
  256
370
   -1
100
AcDbMText
 10
238
 20
244
 30
0
 40
3
 41
6.33333333333352
 71
    4
 72
    1
  1
R23
  7

210
0
220
0
230
1
 50
0
 73
    2
 44
1
  0
MTEXT
  5
413
100
AcDbEntity
  8
Component
  6
ByLayer
 62
  256
370
   -1
100
AcDbMText
 10
238
 20
274
 30
0
 40
3
 41
6.666666666666666
 71
    4
 72
    1
  1
R24
  7

210
0
220
0
230
1
 50
0
 73
    2
 44
1
  0
MTEXT
  5
414
100
AcDbEntity
  8
Component
  6
ByLayer
 62
  256
370
   -1
100
AcDbMText
 10
288
 20
184
 30
0
 40
3
 41
5.666666666666853
 71
    4
 72
    1
  1
R31
  7

210
0
220
0
230
1
 50
0
 73
    2
 44
1
  0
MTEXT
  5
415
100
AcDbEntity
  8
Component
  6
ByLayer
 62
  256
370
   -1
100
AcDbMText
 10
288
 20
214
 30
0
 40
3
 41
6.33333333333352
 71
    4
 72
    1
  1
R32
  7

210
0
220
0
230
1
 50
0
 73
    2
 44
1
  0
MTEXT
  5
416
100
AcDbEntity
  8
Component
  6
ByLayer
 62
  256
370
   -1
100
AcDbMText
 10
288
 20
244
 30
0
 40
3
 41
6.333333333333706
 71
    4
 72
    1
  1
R33
  7

210
0
220
0
230
1
 50
0
 73
    2
 44
1
  0
MTEXT
  5
417
100
AcDbEntity
  8
Component
  6
ByLayer
 62
  256
370
   -1
100
AcDbMText
 10
288
 20
274
 30
0
 40
3
 41
6.666666666666853
 71
    4
 72
    1
  1
R34
  7

210
0
220
0
230
1
 50
0
 73
    2
 44
1
  0
MTEXT
  5
418
100
AcDbEntity
  8
Component
  6
ByLayer
 62
  256
370
   -1
100
AcDbMText
 10
338
 20
184
 30
0
 40
3
 41
6
 71
    4
 72
    1
  1
R41
  7

210
0
220
0
230
1
 50
0
 73
    2
 44
1
  0
MTEXT
  5
419
100
AcDbEntity
  8
Component
  6
ByLayer
 62
  256
370
   -1
100
AcDbMText
 10
338
 20
214
 30
0
 40
3
 41
6.666666666666666
 71
    4
 72
    1
  1
R42
  7

210
0
220
0
230
1
 50
0
 73
    2
 44
1
  0
MTEXT
  5
41A
100
AcDbEntity
  8
Component
  6
ByLayer
 62
  256
370
   -1
100
AcDbMText
 10
338
 20
244
 30
0
 40
3
 41
6.666666666666853
 71
    4
 72
    1
  1
R43
  7

210
0
220
0
230
1
 50
0
 73
    2
 44
1
  0
MTEXT
  5
41B
100
AcDbEntity
  8
Component
  6
ByLayer
 62
  256
370
   -1
100
AcDbMText
 10
338
 20
274
 30
0
 40
3
 41
6.999999999999999
 71
    4
 72
    1
  1
R44
  7

210
0
220
0
230
1
 50
0
 73
    2
 44
1
  0
MTEXT
  5
41C
100
AcDbEntity
  8
Drawing info
  6
ByLayer
 62
  256
370
   -1
100
AcDbMText
 10
7
 20
20
 30
0
 40
3
 41
18.33333333333352
 71
    4
 72
    1
  1
16.02.2021
  7

210
0
220
0
230
1
 50
0
 73
    2
 44
1
  0
MTEXT
  5
41D
100
AcDbEntity
  8
Drawing info
  6
ByLayer
 62
  256
370
   -1
100
AcDbMText
 10
42
 20
20
 30
0
 40
3
 41
6.333333333333333
 71
    4
 72
    1
  1
1.00
  7

210
0
220
0
230
1
 50
0
 73
    2
 44
1
  0
MTEXT
  5
41E
100
AcDbEntity
  8
Drawing info
  6
ByLayer
 62
  256
370
   -1
100
AcDbMText
 10
68
 20
20
 30
0
 40
3
 41
33.25000000000055
 71
    4
 72
    1
  1
Eivind Lundeberg
  7

210
0
220
0
230
1
 50
0
 73
    2
 44
1
  0
MTEXT
  5
41F
100
AcDbEntity
  8
Drawing info
  6
ByLayer
 62
  256
370
   -1
100
AcDbMText
 10
107
 20
16
 30
0
 40
6
 41
73.66666848037751
 71
    4
 72
    1
  1
4x4 Sensor Array
  7

210
0
220
0
230
1
 50
0
 73
    2
 44
1
  0
MTEXT
  5
420
100
AcDbEntity
  8
Drawing info
  6
ByLayer
 62
  256
370
   -1
100
AcDbMText
 10
190
 20
15
 30
0
 40
6
 41
15.3333333333337
 71
    4
 72
    1
  1
3-01
  7

210
0
220
0
230
1
 50
0
 73
    2
 44
1
  0
MTEXT
  5
421
100
AcDbEntity
  8
Drawing info
  6
ByLayer
 62
  256
370
   -1
100
AcDbMText
 10
300
 20
15
 30
0
 40
6
 41
66.50000000000111
 71
    4
 72
    1
  1
Eivind Lundeberg
  7
standard
210
0
220
0
230
1
 50
0
 73
    2
 44
1
  0
MTEXT
  5
422
100
AcDbEntity
  8
0
  6
ByLayer
 62
  256
370
   -1
100
AcDbMText
 10
605.9066820768051
 20
25.5
 30
0
 40
2.5
 41
18.81944444444495
 71
    1
 72
    1
  1
Drawing Nr:
  7
standard
210
0
220
0
230
1
 50
0
 73
    2
 44
1
  0
MTEXT
  5
423
100
AcDbEntity
  8
0
  6
ByLayer
 62
  256
370
   -1
100
AcDbMText
 10
717.7006547337471
 20
25.5
 30
0
 40
2.5
 41
18.54166666666702
 71
    1
 72
    1
  1
Original By:
  7
standard
210
0
220
0
230
1
 50
0
 73
    2
 44
1
  0
MTEXT
  5
424
100
AcDbEntity
  8
0
  6
ByLayer
 62
  256
370
   -1
100
AcDbMText
 10
648.8096726390345
 20
25.4
 30
0
 40
2.5
 41
19.6527777777779
 71
    1
 72
    1
  1
Updated By:
  7
standard
210
0
220
0
230
1
 50
0
 73
    2
 44
1
  0
MTEXT
  5
425
100
AcDbEntity
  8
0
  6
ByLayer
 62
  256
370
   -1
100
AcDbMText
 10
524.5993080010511
 20
25.5
 30
0
 40
2.5
 41
23.54166666666741
 71
    1
 72
    1
  1
Drawing Name:
  7
standard
210
0
220
0
230
1
 50
0
 73
    2
 44
1
  0
MTEXT
  5
426
100
AcDbEntity
  8
0
  6
ByLayer
 62
  256
370
   -1
100
AcDbMText
 10
426
 20
25.5
 30
0
 40
2.5
 41
7.777777777778049
 71
    1
 72
    1
  1
Date:
  7
standard
210
0
220
0
230
1
 50
0
 73
    2
 44
1
  0
MTEXT
  5
427
100
AcDbEntity
  8
0
  6
ByLayer
 62
  256
370
   -1
100
AcDbMText
 10
461.5
 20
25.5
 30
0
 40
2.5
 41
6.111111111111112
 71
    1
 72
    1
  1
Ver:
  7
standard
210
0
220
0
230
1
 50
0
 73
    2
 44
1
  0
MTEXT
  5
428
100
AcDbEntity
  8
0
  6
ByLayer
 62
  256
370
   -1
100
AcDbMText
 10
474.5555555555555
 20
25.5
 30
0
 40
2.5
 41
5.555555555555555
 71
    1
 72
    1
  1
Ext:
  7
standard
210
0
220
0
230
1
 50
0
 73
    2
 44
1
  0
MTEXT
  5
429
100
AcDbEntity
  8
0
  6
ByLayer
 62
  256
370
   -1
100
AcDbMText
 10
486.9777777777778
 20
25.5
 30
0
 40
2.5
 41
4.166666666666667
 71
    1
 72
    1
  1
By:
  7
standard
210
0
220
0
230
1
 50
0
 73
    2
 44
1
  0
LINE
  5
42A
100
AcDbEntity
  8
0
  6
ByLayer
 62
  256
370
   -3
100
AcDbLine
 10
564.75
 20
5
 11
564.75
 21
9.230000000000004
  0
LINE
  5
42B
100
AcDbEntity
  8
0
  6
ByLayer
 62
  256
370
   -1
100
AcDbLine
 10
717.2
 20
5
 11
717.2
 21
21.92
  0
LINE
  5
42C
100
AcDbEntity
  8
0
  6
ByLayer
 62
  256
370
   -1
100
AcDbLine
 10
717.2
 20
26.15
 11
717.2
 21
21.92
  0
LINE
  5
42D
100
AcDbEntity
  8
0
  6
ByLayer
 62
  256
370
   70
100
AcDbLine
 10
834
 20
5
 11
834
 21
292
  0
LINE
  5
42E
100
AcDbEntity
  8
0
  6
ByLayer
 62
  256
370
   70
100
AcDbLine
 10
425
 20
5
 11
834
 21
5
  0
LINE
  5
42F
100
AcDbEntity
  8
0
  6
ByLayer
 62
  256
370
   70
100
AcDbLine
 10
425
 20
292
 11
425
 21
5
  0
LINE
  5
430
100
AcDbEntity
  8
0
  6
ByLayer
 62
  256
370
   70
100
AcDbLine
 10
834
 20
292
 11
425
 21
292
  0
LINE
  5
431
100
AcDbEntity
  8
0
  6
ByLayer
 62
  256
370
   70
100
AcDbLine
 10
425
 20
26.15
 11
834
 21
26.15
  0
LINE
  5
432
100
AcDbEntity
  8
0
  6
ByLayer
 62
  256
370
   -1
100
AcDbLine
 10
648.6
 20
26.15
 11
648.6
 21
21.92
  0
LINE
  5
433
100
AcDbEntity
  8
0
  6
ByLayer
 62
  256
370
   -1
100
AcDbLine
 10
648.6
 20
5
 11
648.6
 21
21.92
  0
LINE
  5
434
100
AcDbEntity
  8
0
  6
ByLayer
 62
  256
370
   -1
100
AcDbLine
 10
605.4
 20
21.92
 11
605.4
 21
5
  0
LINE
  5
435
100
AcDbEntity
  8
0
  6
ByLayer
 62
  256
370
   -1
100
AcDbLine
 10
605.4
 20
26.15
 11
605.4
 21
21.92
  0
LINE
  5
436
100
AcDbEntity
  8
0
  6
ByLayer
 62
  256
370
   -1
100
AcDbLine
 10
524.1
 20
26.15
 11
524.1
 21
5
  0
LINE
  5
437
100
AcDbEntity
  8
0
  6
ByLayer
 62
  256
370
   -1
100
AcDbLine
 10
425
 20
17.69
 11
524.1
 21
17.69
  0
LINE
  5
438
100
AcDbEntity
  8
0
  6
ByLayer
 62
  256
370
   -1
100
AcDbLine
 10
425
 20
13.46
 11
524.1
 21
13.46
  0
LINE
  5
439
100
AcDbEntity
  8
0
  6
ByLayer
 62
  256
370
   -1
100
AcDbLine
 10
425
 20
9.230000000000004
 11
524.1
 21
9.230000000000004
  0
LINE
  5
43A
100
AcDbEntity
  8
0
  6
ByLayer
 62
  256
370
   -1
100
AcDbLine
 10
460.5
 20
26.15
 11
460.5
 21
5
  0
LINE
  5
43B
100
AcDbEntity
  8
0
  6
ByLayer
 62
  256
370
   -1
100
AcDbLine
 10
473.5
 20
5
 11
473.5
 21
26.15
  0
LINE
  5
43C
100
AcDbEntity
  8
0
  6
ByLayer
 62
  256
370
   -1
100
AcDbLine
 10
486
 20
5
 11
486
 21
26.15
  0
LINE
  5
43D
100
AcDbEntity
  8
0
  6
ByLayer
 62
  256
370
   70
100
AcDbLine
 10
420
 20
200
 11
425
 21
200
  0
LINE
  5
43E
100
AcDbEntity
  8
0
  6
ByLayer
 62
  256
370
   70
100
AcDbLine
 10
420
 20
100
 11
425
 21
100
  0
LINE
  5
43F
100
AcDbEntity
  8
0
  6
ByLayer
 62
  256
370
   70
100
AcDbLine
 10
420
 20
150
 11
425
 21
150
  0
LINE
  5
440
100
AcDbEntity
  8
0
  6
ByLayer
 62
  256
370
   70
100
AcDbLine
 10
420
 20
250
 11
425
 21
250
  0
LINE
  5
441
100
AcDbEntity
  8
0
  6
ByLayer
 62
  256
370
   70
100
AcDbLine
 10
420
 20
50
 11
425
 21
50
  0
LINE
  5
442
100
AcDbEntity
  8
0
  6
ByLayer
 62
  256
370
   70
100
AcDbLine
 10
840
 20
100
 11
834
 21
100
  0
LINE
  5
443
100
AcDbEntity
  8
0
  6
ByLayer
 62
  256
370
   70
100
AcDbLine
 10
840
 20
50
 11
834
 21
50
  0
LINE
  5
444
100
AcDbEntity
  8
0
  6
ByLayer
 62
  256
370
   70
100
AcDbLine
 10
840
 20
150
 11
834
 21
150
  0
LINE
  5
445
100
AcDbEntity
  8
0
  6
ByLayer
 62
  256
370
   70
100
AcDbLine
 10
840
 20
200
 11
834
 21
200
  0
LINE
  5
446
100
AcDbEntity
  8
0
  6
ByLayer
 62
  256
370
   70
100
AcDbLine
 10
840
 20
250
 11
834
 21
250
  0
LINE
  5
447
100
AcDbEntity
  8
0
  6
ByLayer
 62
  256
370
   70
100
AcDbLine
 10
820
 20
0
 11
820
 21
5
  0
LINE
  5
448
100
AcDbEntity
  8
0
  6
ByLayer
 62
  256
370
   70
100
AcDbLine
 10
720
 20
0
 11
720
 21
5
  0
LINE
  5
449
100
AcDbEntity
  8
0
  6
ByLayer
 62
  256
370
   70
100
AcDbLine
 10
770
 20
0
 11
770
 21
5
  0
LINE
  5
44A
100
AcDbEntity
  8
0
  6
ByLayer
 62
  256
370
   70
100
AcDbLine
 10
670
 20
0
 11
670
 21
5
  0
LINE
  5
44B
100
AcDbEntity
  8
0
  6
ByLayer
 62
  256
370
   70
100
AcDbLine
 10
620
 20
0
 11
620
 21
5
  0
LINE
  5
44C
100
AcDbEntity
  8
0
  6
ByLayer
 62
  256
370
   70
100
AcDbLine
 10
570
 20
0
 11
570
 21
5
  0
LINE
  5
44D
100
AcDbEntity
  8
0
  6
ByLayer
 62
  256
370
   70
100
AcDbLine
 10
520
 20
0
 11
520
 21
5
  0
LINE
  5
44E
100
AcDbEntity
  8
0
  6
ByLayer
 62
  256
370
   70
100
AcDbLine
 10
470
 20
0
 11
470
 21
5
  0
LINE
  5
44F
100
AcDbEntity
  8
0
  6
ByLayer
 62
  256
370
   70
100
AcDbLine
 10
820
 20
300
 11
820
 21
292
  0
LINE
  5
450
100
AcDbEntity
  8
0
  6
ByLayer
 62
  256
370
   70
100
AcDbLine
 10
770
 20
300
 11
770
 21
292
  0
LINE
  5
451
100
AcDbEntity
  8
0
  6
ByLayer
 62
  256
370
   70
100
AcDbLine
 10
720
 20
300
 11
720
 21
292
  0
LINE
  5
452
100
AcDbEntity
  8
0
  6
ByLayer
 62
  256
370
   70
100
AcDbLine
 10
470
 20
300
 11
470
 21
292
  0
LINE
  5
453
100
AcDbEntity
  8
0
  6
ByLayer
 62
  256
370
   70
100
AcDbLine
 10
520
 20
300
 11
520
 21
292
  0
LINE
  5
454
100
AcDbEntity
  8
0
  6
ByLayer
 62
  256
370
   70
100
AcDbLine
 10
620
 20
300
 11
620
 21
292
  0
LINE
  5
455
100
AcDbEntity
  8
0
  6
ByLayer
 62
  256
370
   70
100
AcDbLine
 10
670
 20
300
 11
670
 21
292
  0
LINE
  5
456
100
AcDbEntity
  8
0
  6
ByLayer
 62
  256
370
   70
100
AcDbLine
 10
570
 20
300
 11
570
 21
292
  0
LINE
  5
457
100
AcDbEntity
  8
0
  6
ByLayer
 62
  256
370
   50
100
AcDbLine
 10
425
 20
21.92
 11
834
 21
21.92
  0
LINE
  5
458
100
AcDbEntity
  8
0
  6
ByLayer
 62
  256
370
   -1
100
AcDbLine
 10
524.1
 20
9.230000000000004
 11
834
 21
9.230000000000004
  0
LINE
  5
459
100
AcDbEntity
  8
0
  6
ByLayer
 62
  256
370
   -1
100
AcDbLine
 10
803.7
 20
26
 11
803.7
 21
5
  0
LINE
  5
45A
100
AcDbEntity
  8
0
  6
ByLayer
 62
  256
370
   13
100
AcDbLine
 10
803.7
 20
9.299999999999997
 11
833.7
 21
9.299999999999997
  0
LINE
  5
45B
100
AcDbEntity
  8
0
  6
ByLayer
 62
  256
370
   18
100
AcDbLine
 10
803.76
 20
9.299999999999997
 11
803.76
 21
21.7
  0
LINE
  5
45C
100
AcDbEntity
  8
0
  6
ByLayer
 62
  256
370
   50
100
AcDbLine
 10
803.9
 20
21.5
 11
833.7
 21
21.5
  0
MTEXT
  5
45D
100
AcDbEntity
  8
Drawing info
  6
ByLayer
 62
  256
370
   -1
100
AcDbMText
 10
427
 20
20
 30
0
 40
3
 41
18.33333333333352
 71
    4
 72
    1
  1
16.02.2021
  7

210
0
220
0
230
1
 50
0
 73
    2
 44
1
  0
MTEXT
  5
45E
100
AcDbEntity
  8
Drawing info
  6
ByLayer
 62
  256
370
   -1
100
AcDbMText
 10
462
 20
20
 30
0
 40
3
 41
6.333333333333333
 71
    4
 72
    1
  1
1.00
  7

210
0
220
0
230
1
 50
0
 73
    2
 44
1
  0
MTEXT
  5
45F
100
AcDbEntity
  8
Drawing info
  6
ByLayer
 62
  256
370
   -1
100
AcDbMText
 10
488
 20
20
 30
0
 40
3
 41
33.25000000000055
 71
    4
 72
    1
  1
Eivind Lundeberg
  7

210
0
220
0
230
1
 50
0
 73
    2
 44
1
  0
MTEXT
  5
460
100
AcDbEntity
  8
Drawing info
  6
ByLayer
 62
  256
370
   -1
100
AcDbMText
 10
527
 20
16
 30
0
 40
6
 41
73.66666848037751
 71
    4
 72
    1
  1
4x4 Sensor Array
  7

210
0
220
0
230
1
 50
0
 73
    2
 44
1
  0
MTEXT
  5
461
100
AcDbEntity
  8
Drawing info
  6
ByLayer
 62
  256
370
   -1
100
AcDbMText
 10
610
 20
15
 30
0
 40
6
 41
15.3333333333337
 71
    4
 72
    1
  1
3-01
  7

210
0
220
0
230
1
 50
0
 73
    2
 44
1
  0
MTEXT
  5
462
100
AcDbEntity
  8
Drawing info
  6
ByLayer
 62
  256
370
   -1
100
AcDbMText
 10
720
 20
15
 30
0
 40
6
 41
66.50000000000111
 71
    4
 72
    1
  1
Eivind Lundeberg
  7
standard
210
0
220
0
230
1
 50
0
 73
    2
 44
1
  0
ENDSEC
  0
SECTION
  2
OBJECTS
  0
DICTIONARY
  5
C
330
0
100
AcDbDictionary
281
    1
  3
ACAD_GROUP
350
D
  3
ACAD_IMAGE_DICT
350
463
  0
DICTIONARY
  5
D
330
C
100
AcDbDictionary
281
    1
  0
IMAGEDEF_REACTOR
  5
28F
330
290
100
AcDbRasterImageDefReactor
 90
    2
330
290
  0
IMAGEDEF_REACTOR
  5
291
330
292
100
AcDbRasterImageDefReactor
 90
    2
330
292
  0
DICTIONARY
  5
463
330
C
100
AcDbDictionary
281
    1
  3
uia-horisontal-uten-navn-Negativ
350
28E
  0
IMAGEDEF
  5
28E
102
{ACAD_REACTORS
330
28F
330
291
102
}
100
AcDbRasterImageDef
 90
    0
  1
/home/eivindl/Downloads/hovedlogo_norsk/png/uia-horisontal-uten-navn-Negativ.png
 10
1000
 20
418
 11
1
 21
1
280
    1
281
    0
  0
ENDSEC
  0
EOF
